<svg width="233" height="195" viewBox="0 0 233 195" fill="none" xmlns="http://www.w3.org/2000/svg">
<g opacity="0.82">
<path opacity="0.82" d="M109.175 63.9731C130.854 63.9731 148.455 81.5748 148.455 103.254C148.455 124.933 130.854 142.534 109.175 142.534C87.4958 142.534 69.8942 124.933 69.8942 103.254C69.8942 81.5748 87.4958 63.9731 109.175 63.9731Z" stroke="#BDF1ED" stroke-width="10"/>
</g>
<g opacity="0.61">
<path opacity="0.61" d="M109.175 49.5718C138.983 49.5718 163.186 73.774 163.186 103.583C163.186 133.391 138.983 157.593 109.175 157.593C79.3664 157.593 55.1642 133.391 55.1642 103.583C55.1642 73.774 79.3664 49.5718 109.175 49.5718Z" stroke="#BDF1ED" stroke-width="10"/>
</g>
<g opacity="0.41">
<path opacity="0.41" d="M109.502 33.6968C147.892 33.6968 179.061 64.8663 179.061 103.256C179.061 141.646 147.892 172.815 109.502 172.815C71.1123 172.815 39.9427 141.646 39.9427 103.256C39.9427 64.8663 71.1123 33.6968 109.502 33.6968Z" stroke="#BDF1ED" stroke-width="10"/>
</g>
<g opacity="0.2">
<path opacity="0.2" d="M109.502 16.5098C157.376 16.5098 196.247 55.38 196.247 103.254C196.247 151.129 157.376 189.999 109.502 189.999C61.6278 189.999 22.7576 151.129 22.7576 103.254C22.7576 55.38 61.6278 16.5098 109.502 16.5098Z" stroke="#BDF1ED" stroke-width="10"/>
</g>
<path d="M133.948 61.5409H85.8296V145.994H133.948V61.5409Z" fill="white"/>
<path d="M136.627 131.233V131.105C136.568 130.427 136.097 129.779 135.193 129.779H84.9437C84.1876 129.779 83.5689 130.359 83.5002 131.095L83.4903 131.233C83.4903 132.028 84.1385 132.676 84.9437 132.676H135.193C136.097 132.676 136.568 132.038 136.617 131.36L136.627 131.233ZM112.507 138.592C112.507 136.824 111.073 135.391 109.306 135.391C107.597 135.391 106.193 136.726 106.104 138.415L106.094 138.592C106.094 140.369 107.528 141.803 109.306 141.803C111.073 141.803 112.507 140.369 112.507 138.592ZM86.3853 68.1786C86.3853 64.7808 89.1546 62.0116 92.5524 62.0116H127.581C130.979 62.0116 133.748 64.7808 133.748 68.1786V139.532C133.748 142.93 130.979 145.699 127.581 145.699H92.5524C89.1546 145.699 86.3853 142.93 86.3853 139.532V68.1786ZM86.3775 131.417L86.3578 131.535C86.0927 133.047 83.7948 133.038 83.5198 131.535L83.51 131.417L83.5198 131.3C83.6376 130.681 84.1581 130.2 84.8062 130.141L84.9437 130.131C85.6508 130.131 86.2302 130.632 86.3578 131.3L86.3775 131.417ZM83.4933 139.528C83.4933 144.526 87.5588 148.592 92.5573 148.592H127.576C132.574 148.592 136.64 144.526 136.64 139.528V68.1845C136.64 63.186 132.574 59.1205 127.576 59.1205H92.5573C87.6472 59.1205 83.6406 63.0387 83.5031 67.9193L83.4933 68.1845V139.528Z" fill="#414958"/>
<path d="M109.795 102.604C117.386 102.604 123.543 108.761 123.543 116.352H96.0466C96.0466 108.761 102.204 102.604 109.795 102.604Z" fill="#1FA3F2"/>
<path d="M117.893 91.7197C117.893 96.3253 114.151 100.067 109.546 100.067C104.94 100.067 101.198 96.3253 101.198 91.7197C101.198 87.114 104.94 83.3726 109.546 83.3726C114.151 83.3726 117.893 87.114 117.893 91.7197Z" fill="#E8E8E8"/>
<path d="M42.1332 74.376C52.3298 74.376 60.6086 82.6548 60.6086 92.8514C60.6086 103.048 52.3298 111.327 42.1332 111.327C31.9366 111.327 23.6577 103.048 23.6577 92.8514C23.6577 82.6548 31.9366 74.376 42.1332 74.376Z" fill="#83EFE6"/>
<path d="M42.1332 74.376C52.3298 74.376 60.6086 82.6548 60.6086 92.8514C60.6086 103.048 52.3298 111.327 42.1332 111.327C31.9366 111.327 23.6577 103.048 23.6577 92.8514C23.6577 82.6548 31.9366 74.376 42.1332 74.376Z" stroke="white" stroke-width="10"/>
<path d="M42.133 93.1978C37.2524 93.1978 33.2949 96.9981 33.2949 101.692H50.9712C50.9712 96.9981 47.0137 93.1978 42.133 93.1978Z" fill="white"/>
<path d="M36.4519 86.2225C36.4519 89.0703 38.8578 91.378 41.8137 91.378C44.7794 91.378 47.1853 89.0703 47.1853 86.2225C47.1853 83.3746 44.7794 81.0669 41.8137 81.0669C38.8578 81.0669 36.4519 83.3746 36.4519 86.2225Z" fill="white"/>
<path d="M193.904 55.4639C204.888 55.4639 213.806 64.3822 213.806 75.3663C213.806 86.3505 204.888 95.2688 193.904 95.2688C182.92 95.2688 174.001 86.3505 174.001 75.3663C174.001 64.3822 182.92 55.4639 193.904 55.4639Z" fill="#FFC1C3"/>
<path d="M193.904 55.4639C204.888 55.4639 213.806 64.3822 213.806 75.3663C213.806 86.3505 204.888 95.2688 193.904 95.2688C182.92 95.2688 174.001 86.3505 174.001 75.3663C174.001 64.3822 182.92 55.4639 193.904 55.4639Z" stroke="white" stroke-width="10"/>
<path d="M194.231 77.0215C189.35 77.0215 185.393 80.8219 185.393 85.5159H203.069C203.069 80.8219 199.111 77.0215 194.231 77.0215Z" fill="white"/>
<path d="M188.55 70.0477C188.55 72.8955 190.956 75.2032 193.911 75.2032C196.877 75.2032 199.283 72.8955 199.283 70.0477C199.283 67.1998 196.877 64.8921 193.911 64.8921C190.956 64.8921 188.55 67.1998 188.55 70.0477Z" fill="white"/>
<path d="M173.265 121.19C179.098 121.19 183.834 125.927 183.834 131.76C183.834 137.593 179.098 142.329 173.265 142.329C167.431 142.329 162.695 137.593 162.695 131.76C162.695 125.927 167.431 121.19 173.265 121.19Z" fill="#83EFE6"/>
<path d="M173.265 121.19C179.098 121.19 183.834 125.927 183.834 131.76C183.834 137.593 179.098 142.329 173.265 142.329C167.431 142.329 162.695 137.593 162.695 131.76C162.695 125.927 167.431 121.19 173.265 121.19Z" stroke="white" stroke-width="10"/>
<path d="M51.7493 138.7C55.9048 138.7 59.2787 142.074 59.2787 146.229C59.2787 150.385 55.9048 153.759 51.7493 153.759C47.5938 153.759 44.2198 150.385 44.2198 146.229C44.2198 142.074 47.5938 138.7 51.7493 138.7Z" fill="#FFC1C3"/>
<path d="M51.7493 138.7C55.9048 138.7 59.2787 142.074 59.2787 146.229C59.2787 150.385 55.9048 153.759 51.7493 153.759C47.5938 153.759 44.2198 150.385 44.2198 146.229C44.2198 142.074 47.5938 138.7 51.7493 138.7Z" stroke="white" stroke-width="10"/>
<path d="M10.1795 110.501C7.31886 110.501 5 112.82 5 115.681C5 118.542 7.31886 120.86 10.1795 120.86C13.0401 120.86 15.3589 118.542 15.3589 115.681C15.3589 112.82 13.0401 110.501 10.1795 110.501Z" fill="#83EFE6"/>
<path d="M10.1795 110.501C7.31886 110.501 5 112.82 5 115.681C5 118.542 7.31886 120.86 10.1795 120.86C13.0401 120.86 15.3589 118.542 15.3589 115.681C15.3589 112.82 13.0401 110.501 10.1795 110.501Z" stroke="white" stroke-width="10"/>
<path d="M215.984 96.7988C212.368 96.7988 209.437 99.7296 209.437 103.345C209.437 106.961 212.368 109.892 215.984 109.892C219.599 109.892 222.53 106.961 222.53 103.345C222.53 99.7296 219.599 96.7988 215.984 96.7988Z" fill="#83EFE6"/>
<path d="M215.984 96.7988C212.368 96.7988 209.437 99.7296 209.437 103.345C209.437 106.961 212.368 109.892 215.984 109.892C219.599 109.892 222.53 106.961 222.53 103.345C222.53 99.7296 219.599 96.7988 215.984 96.7988Z" stroke="white" stroke-width="19.8877"/>
<path d="M139.84 32.6646C135.78 32.6646 132.488 35.9563 132.488 40.0169C132.488 44.0775 135.78 47.3692 139.84 47.3692C143.901 47.3692 147.193 44.0775 147.193 40.0169C147.193 35.9563 143.901 32.6646 139.84 32.6646Z" fill="#83EFE6"/>
<path d="M139.84 32.6646C135.78 32.6646 132.488 35.9563 132.488 40.0169C132.488 44.0775 135.78 47.3692 139.84 47.3692C143.901 47.3692 147.193 44.0775 147.193 40.0169C147.193 35.9563 143.901 32.6646 139.84 32.6646Z" stroke="white" stroke-width="10"/>
<circle cx="152.302" cy="44.3345" r="40.3345" fill="#D90009" stroke="white" stroke-width="8"/>
<path d="M145.313 58.3742C147.308 59.526 149.842 58.8744 150.972 56.9178L143.746 52.7458C142.616 54.7025 143.318 57.2225 145.313 58.3742ZM162.263 57.1113C161.835 55.3322 160.791 52.4248 164.06 46.7625C166.543 42.4617 165.454 37.2424 161.793 34.0024L162.459 32.8489C163.023 31.8708 162.673 30.6107 161.675 30.0348C160.678 29.459 159.411 29.7852 158.846 30.7632L158.18 31.9167C153.544 30.3659 148.479 32.0322 145.996 36.3329C142.727 41.9953 139.687 42.5451 137.932 43.0641C137.387 43.2255 136.991 43.5655 136.752 43.985C136.234 44.8964 136.463 46.1795 137.543 46.803L159.22 59.3182C160.3 59.9417 161.525 59.4982 162.055 58.5937C162.299 58.1774 162.396 57.6634 162.263 57.1113Z" fill="white"/>
</svg>
