<svg width="22" height="17" viewBox="0 0 22 17" fill="none" xmlns="http://www.w3.org/2000/svg">
<path d="M10.7083 4.41025L3.66696 10.1731V16.3928C3.66696 16.5538 3.73134 16.7083 3.84593 16.8222C3.96053 16.936 4.11596 17 4.27802 17L8.55776 16.989C8.71929 16.9882 8.87394 16.9239 8.98787 16.8101C9.10181 16.6963 9.16577 16.5423 9.16577 16.3818V12.7495C9.16577 12.5885 9.23015 12.434 9.34474 12.3202C9.45934 12.2063 9.61477 12.1423 9.77683 12.1423H12.2211C12.3832 12.1423 12.5386 12.2063 12.6532 12.3202C12.7678 12.434 12.8322 12.5885 12.8322 12.7495V16.3791C12.8319 16.459 12.8475 16.5382 12.8781 16.6121C12.9087 16.686 12.9537 16.7531 13.0105 16.8097C13.0672 16.8663 13.1347 16.9112 13.2089 16.9418C13.2832 16.9725 13.3628 16.9882 13.4432 16.9882L17.7214 17C17.8835 17 18.0389 16.936 18.1535 16.8222C18.2681 16.7083 18.3325 16.5538 18.3325 16.3928V10.1689L11.2927 4.41025C11.2099 4.34396 11.1068 4.30781 11.0005 4.30781C10.8942 4.30781 10.7911 4.34396 10.7083 4.41025ZM21.8308 8.32714L18.638 5.71195V0.455408C18.638 0.334626 18.5897 0.218792 18.5038 0.133386C18.4178 0.0479804 18.3013 0 18.1797 0H16.041C15.9195 0 15.8029 0.0479804 15.7169 0.133386C15.631 0.218792 15.5827 0.334626 15.5827 0.455408V3.21101L12.1634 0.41556C11.8353 0.147241 11.4235 0.000536374 10.9986 0.000536374C10.5736 0.000536374 10.1619 0.147241 9.83374 0.41556L0.166323 8.32714C0.119916 8.36525 0.0815212 8.41208 0.0533329 8.46494C0.0251445 8.51781 0.00771497 8.57568 0.00204025 8.63524C-0.00363448 8.6948 0.00255679 8.75489 0.0202603 8.81207C0.0379638 8.86925 0.0668326 8.92241 0.105217 8.9685L1.0791 10.145C1.11738 10.1912 1.16446 10.2295 1.21766 10.2577C1.27085 10.2858 1.32911 10.3033 1.3891 10.309C1.44909 10.3148 1.50962 10.3087 1.56725 10.2912C1.62487 10.2736 1.67845 10.245 1.72492 10.2068L10.7083 2.85427C10.7911 2.78798 10.8942 2.75183 11.0005 2.75183C11.1068 2.75183 11.2099 2.78798 11.2927 2.85427L20.2764 10.2068C20.3228 10.245 20.3763 10.2737 20.4339 10.2913C20.4914 10.3088 20.5519 10.315 20.6118 10.3094C20.6718 10.3037 20.73 10.2864 20.7832 10.2584C20.8364 10.2304 20.8835 10.1922 20.9219 10.1461L21.8958 8.96964C21.9341 8.92328 21.9629 8.86985 21.9803 8.81242C21.9978 8.75498 22.0037 8.69468 21.9977 8.63498C21.9917 8.57527 21.9738 8.51734 21.9452 8.46451C21.9165 8.41168 21.8777 8.36499 21.8308 8.32714Z" fill="white"/>
</svg>
