<svg width="19" height="19" viewBox="0 0 19 19" fill="none" xmlns="http://www.w3.org/2000/svg">
<path d="M0 9.5C0 14.748 4.25202 19 9.5 19C14.748 19 19 14.748 19 9.5C19 4.25202 14.748 0 9.5 0C4.25202 0 0 4.25202 0 9.5ZM5.47782 10.6109C5.13306 10.994 4.52016 10.994 4.1754 10.6492L3.75403 10.2278C3.37097 9.84476 3.37097 9.27016 3.75403 8.9254L8.84879 3.83065C9.19355 3.48589 9.76815 3.48589 10.1512 3.83065L15.2077 8.9254C15.5907 9.27016 15.5907 9.84476 15.2077 10.2278L14.7863 10.6492C14.4415 10.994 13.8286 10.994 13.4839 10.6109L10.7258 7.7379V14.7097C10.7258 15.246 10.3044 15.629 9.80645 15.629H9.19355C8.65726 15.629 8.27419 15.246 8.27419 14.7097V7.7379L5.47782 10.6109Z" fill="#B9141B"/>
</svg>
