<svg width="7" height="7" viewBox="0 0 7 7" fill="none" xmlns="http://www.w3.org/2000/svg">
<path d="M6.55273 3.73683C6.55273 2.08309 5.21284 0.743201 3.5591 0.743201C1.90536 0.743201 0.565466 2.08309 0.565466 3.73683C0.565466 5.39058 1.90536 6.73047 3.5591 6.73047C5.21284 6.73047 6.55273 5.39058 6.55273 3.73683ZM4.82657 3.38677C4.93521 3.26606 5.12834 3.26606 5.23698 3.3747L5.36977 3.50748C5.49048 3.62819 5.49048 3.80926 5.36977 3.9179L3.76431 5.52336C3.65567 5.632 3.4746 5.632 3.35389 5.52336L1.76051 3.9179C1.63979 3.80926 1.63979 3.62819 1.76051 3.50748L1.89329 3.3747C2.00193 3.26606 2.19507 3.26606 2.30371 3.38677L3.17283 4.29211V2.09516C3.17283 1.92617 3.30561 1.80546 3.46253 1.80546H3.65567C3.82466 1.80546 3.94538 1.92617 3.94538 2.09516V4.29211L4.82657 3.38677Z" fill="#0085CA"/>
</svg>
