<svg width="689" height="622" viewBox="0 0 689 622" fill="none" xmlns="http://www.w3.org/2000/svg">
<path d="M104.136 530.186C97.1856 536.701 97.8475 548.571 90.566 556.134C88.5094 558.47 85.9542 560.313 83.0896 561.527C80.225 562.741 77.1242 563.294 74.017 563.146C71.2037 562.815 68.5007 561.711 65.7425 561.379C55.9786 560.275 45.6632 568.501 37.0026 563.974C30.1072 560.386 28.7833 550.945 23.0463 545.7C18.493 542.649 13.5353 540.252 8.31774 538.578C3.40821 536.204 -1.28072 531.069 0.319009 525.769C0.925804 523.671 2.52553 521.905 3.24265 519.752C4.62173 515.611 2.36011 511.029 2.9669 506.722C3.90468 499.876 11.1862 496.122 16.0405 491.264C21.6314 485.011 25.1569 477.182 26.1354 468.849C27.2387 462.776 26.1354 453.721 33.0859 450.354C35.1272 449.555 37.3721 449.438 39.4849 450.022C48.5255 452.508 56.7841 457.258 63.4809 463.825C72.5854 470.687 82.3626 476.606 92.6622 481.492C94.0135 482.382 95.6327 482.772 97.2407 482.596C98.4805 482.181 99.5602 481.39 100.33 480.332C106.148 473.619 110.203 465.561 112.129 456.885C114.055 448.21 113.792 439.192 111.362 430.644C110.137 425.785 107.576 421.368 103.971 417.891C100.819 415.815 97.7976 413.547 94.9239 411.1C83.8913 399.009 110.425 400.831 115.003 408.395C112.024 403.481 119.858 398.457 125.374 399.948C130.89 401.438 135.689 405.8 141.426 405.469C152.459 405.469 157.975 389.458 169.008 388.906C173.366 388.906 177.779 391.059 181.971 389.844C190.246 387.36 191.073 373.006 199.679 372.067C203.43 371.681 206.795 374.22 210.711 374.607C218.379 375.38 223.895 366.988 224.999 359.314C226.102 351.64 224.723 343.579 227.591 336.402C230.46 329.225 240.665 324.311 245.905 329.998C236.307 338.5 255.835 358.209 245.299 365.552L260.027 380.238C273.211 367.485 295.442 373.558 312.377 366.491C319.607 363.284 325.591 357.798 329.415 350.871C333.24 343.943 334.695 335.953 333.56 328.12C335.508 327.386 337.6 327.115 339.671 327.33C341.742 327.545 343.734 328.24 345.49 329.36C347.246 330.48 348.717 331.994 349.787 333.781C350.857 335.569 351.496 337.581 351.653 339.659C361.527 334.856 359.155 316.968 348.399 314.815C359.702 305.782 374.127 301.612 388.502 303.221C392.86 298.142 384.641 290.854 378.076 292.179C371.512 293.504 365.996 298.252 359.376 299.08C347.406 300.626 337.807 287.487 337.918 275.396C338.312 265.427 341.695 255.809 347.626 247.791C352.536 241 367.099 233.878 365.554 224.217C365.047 221.96 363.751 219.958 361.901 218.571C360.05 217.185 357.766 216.505 355.46 216.653C353.222 216.926 351.072 217.692 349.165 218.894C347.257 220.097 345.639 221.707 344.427 223.61C341.948 227.512 340.261 231.864 339.462 236.418C339.33 237.999 338.881 239.538 338.142 240.942C337.402 242.346 336.388 243.586 335.16 244.589C318.114 254.527 310.06 260.103 314.915 280.696C318.997 297.811 305.04 297.866 302.834 312.607C302.921 316.433 303.252 320.251 303.827 324.035C303.428 326.986 302.448 329.829 300.942 332.397C299.436 334.966 297.436 337.209 295.056 338.997C288.547 345.015 251.973 365.994 263.116 339.935C264.235 337.221 265.864 334.747 267.916 332.648C269.66 331.24 270.9 329.302 271.446 327.127C271.33 324.978 270.56 322.917 269.239 321.219C265.213 314.208 271.777 296.43 262.454 294.277C258.593 293.339 255.063 296.486 251.422 298.473C241.879 303.994 228.529 302.835 229.743 289.971C231.122 275.672 232.942 240.283 253.297 239.731C256.632 240.296 260.057 239.972 263.227 238.792C267.309 236.308 271.722 228.192 275.307 224.769C281.077 219.481 286.205 213.533 290.588 207.047C303.055 188.11 312.653 166.413 336.208 158.96C345.089 156.144 355.129 154.156 360.921 146.924C362.008 145.205 363.368 143.676 364.948 142.397C365.763 141.764 366.789 141.469 367.816 141.572C368.842 141.674 369.79 142.167 370.464 142.949C372.505 146.206 366.878 151.12 369.581 153.991C371.402 155.868 374.436 153.991 376.642 152.611C380.515 150.234 385.097 149.291 389.593 149.947C394.088 150.603 398.211 152.815 401.245 156.199C403.341 158.684 404.775 161.72 406.761 163.984C411.657 168.353 417.965 170.803 424.524 170.885C431.027 170.952 437.482 172.013 443.665 174.032C454.698 178.835 457.732 193.079 444.934 197.716C433.811 201.792 421.925 203.357 410.126 202.299C411.34 202.299 421.766 223.057 424.138 225.542C430.261 231.836 438.977 237.577 447.968 234.154C446.256 231.786 445.201 229.005 444.911 226.096C444.62 223.187 445.104 220.253 446.313 217.592C449.402 210.194 454.753 211.243 459.994 207.047C470.033 198.931 460.876 180.767 464.241 169.449C465.289 165.75 470.254 162.935 472.957 165.64C474.137 167.232 474.741 169.18 474.667 171.161C474.84 173.852 475.735 176.446 477.26 178.669C478.021 179.779 479.116 180.618 480.385 181.065C481.654 181.511 483.033 181.542 484.321 181.154C486.449 180.052 488.099 178.204 488.954 175.964C490.011 174.275 490.741 172.402 491.106 170.443C491.124 168.929 491.032 167.416 490.83 165.916C490.59 162.118 491.406 158.327 493.188 154.964C494.97 151.602 497.648 148.8 500.925 146.869C501.652 146.373 502.534 146.157 503.407 146.262C505.338 146.758 505.503 150.016 507.434 150.568C508.056 150.655 508.69 150.585 509.278 150.363C509.866 150.141 510.389 149.775 510.799 149.298C517.474 143.777 528.617 138.256 533.802 131.962C544.835 121.252 525.417 122.522 524.645 114.792C524.645 111.314 528.837 109.658 532.313 109.271C546.048 108.498 562.432 108.554 570.927 121.086C576.443 129.091 580.58 141.403 575.836 150.678C573.244 155.813 564.804 157.359 562.928 160.947C560.336 166.192 568.445 180.326 570.375 186.067L572.361 191.588L594.426 252.87C597.799 261.087 600.134 269.692 601.377 278.487C606.397 279.371 612.41 282.407 611.803 287.431C610.92 295.602 599.667 296.486 603.252 306.81C611.196 329.39 627.248 299.025 637.123 310.564C641.039 315.146 639.384 322.434 642.639 327.679C647.218 335.905 673.475 334.414 669.614 348.493C669.148 349.681 668.442 350.76 667.54 351.662C666.638 352.565 665.56 353.271 664.373 353.738C651.189 360.473 635.413 357.933 620.739 359.811C606.066 361.688 589.627 372.343 591.779 387.029C593.433 398.347 605.349 405.303 609.817 415.848C618.533 436.827 590.73 448.587 586.703 466.64C586.106 470.764 586.365 474.967 587.467 478.986C588.568 483.004 590.486 486.752 593.102 489.994C597.957 496.729 604.135 502.195 609.651 508.434C615.34 514.943 620.042 522.254 623.608 530.131C624.876 532.947 625.869 536.646 623.608 538.799C622.498 539.679 621.156 540.216 619.746 540.345C602.425 543.05 586.042 530.131 568.5 530.462C563.535 530.462 558.625 531.732 553.661 531.677C538.491 531.677 521.39 519.807 508.648 512.63C504.177 510.4 500.127 507.411 496.677 503.796C495.001 501.934 493.847 499.66 493.333 497.207C492.82 494.753 492.965 492.207 493.754 489.828C495.409 486.019 499.27 483.59 501.532 480.167C503.793 476.744 504.179 470.947 500.318 469.401C498.625 468.904 496.825 468.904 495.133 469.401C485.424 471.443 474.557 473.431 468.765 482.154C458.89 496.895 475.826 495.073 475.384 505.342C475.384 508.71 471.412 510.421 468.158 511.249C462.728 512.585 457.189 513.435 451.609 513.789C449.87 514.018 448.102 513.79 446.479 513.126C440.631 510.145 444.603 500.208 440.466 495.018C438.986 493.68 437.232 492.68 435.327 492.089C433.421 491.498 431.41 491.329 429.433 491.595C419.669 491.595 403.672 502.195 403.341 512.795C403.581 517.087 404.265 521.343 405.382 525.493C405.642 526.323 405.727 527.198 405.632 528.063C405.537 528.928 405.264 529.764 404.831 530.517C403.562 532.174 401.135 532.284 399.314 533.057C390.764 536.314 395.839 547.687 398.211 553.429C399.711 556.159 400.649 559.163 400.969 562.263C400.969 571.538 388.006 574.574 378.904 572.09C369.802 569.605 360.424 564.637 352.039 568.556C341.007 573.801 341.503 590.64 347.626 601.13C349.72 604.015 351.135 607.337 351.764 610.847C352.37 620.067 339.131 624.815 331.077 620.232C323.024 615.65 319.217 606.32 315.632 597.762C310.957 587.874 307.369 577.508 304.93 566.845C304.455 562.216 303.064 557.728 300.839 553.643C298.613 549.558 295.597 545.957 291.967 543.05C285.733 538.467 277.624 535.873 273.708 529.248C270.508 523.727 270.784 517.046 267.529 511.746C265.298 508.612 262.42 505.995 259.089 504.072C251.863 499.379 231.839 482.982 225.992 497.889C220.972 510.642 236.748 519.972 244.361 527.039C247.339 529.597 250.056 532.445 252.47 535.541C254.676 538.688 256.221 542.277 258.483 545.369C265.544 555.03 278.452 559.281 284.74 569.44C286.03 571.227 286.602 573.434 286.34 575.623C286.261 576.16 286.074 576.674 285.789 577.136C285.504 577.597 285.127 577.995 284.683 578.305C284.239 578.616 283.736 578.832 283.205 578.94C282.674 579.048 282.126 579.047 281.596 578.936C273.542 576.065 274.756 586.334 271.17 591.082C267.585 595.83 259.2 597.928 256.386 604.553C254.345 609.246 256.386 615.153 253.739 619.625C247.726 619.625 244.968 611.896 239.507 609.356C236.556 608.498 233.552 607.835 230.515 607.369C227.591 606.43 224.999 603.173 226.267 600.467C236.649 602.095 247.271 599.961 256.221 594.45C259.358 592.82 261.806 590.116 263.116 586.831C263.687 584.347 263.592 581.757 262.841 579.322C260.261 569.127 254.066 560.219 245.409 554.257C238.348 549.509 229.687 546.638 224.502 539.958C220.862 534.006 218.338 527.439 217.055 520.58C216.378 517.158 214.947 513.931 212.867 511.133C210.787 508.335 208.109 506.036 205.03 504.403C196.203 500.98 187.819 507.164 179.875 509.924C168.842 514.065 163.326 511.636 152.294 507.495C140.268 502.802 143.909 503.851 139.661 512.63C131.552 529.744 116.493 518.703 104.136 530.186Z" fill="#097ABF"/>
<g opacity="0.82">
<path opacity="0.82" fill-rule="evenodd" clip-rule="evenodd" d="M309.248 173C245.781 173 194.248 224.533 194.248 288C194.248 351.467 245.781 403 309.248 403C372.715 403 424.248 351.467 424.248 288C424.248 224.533 372.715 173 309.248 173ZM184.248 288C184.248 219.011 240.259 163 309.248 163C378.237 163 434.248 219.011 434.248 288C434.248 356.989 378.237 413 309.248 413C240.259 413 184.248 356.989 184.248 288Z" fill="#BDBDBD"/>
</g>
<g opacity="0.61">
<path opacity="0.61" fill-rule="evenodd" clip-rule="evenodd" d="M309.248 129C220.946 129 149.248 200.698 149.248 289C149.248 377.302 220.946 449 309.248 449C397.55 449 469.248 377.302 469.248 289C469.248 200.698 397.55 129 309.248 129ZM139.248 289C139.248 195.175 215.423 119 309.248 119C403.073 119 479.248 195.175 479.248 289C479.248 382.825 403.073 459 309.248 459C215.423 459 139.248 382.825 139.248 289Z" fill="#BDBDBD"/>
</g>
<g opacity="0.41">
<path opacity="0.41" fill-rule="evenodd" clip-rule="evenodd" d="M310.248 80.5C195.731 80.5 102.748 173.483 102.748 288C102.748 402.517 195.731 495.5 310.248 495.5C424.765 495.5 517.748 402.517 517.748 288C517.748 173.483 424.765 80.5 310.248 80.5ZM92.748 288C92.748 167.96 190.208 70.5 310.248 70.5C430.288 70.5 527.748 167.96 527.748 288C527.748 408.04 430.288 505.5 310.248 505.5C190.208 505.5 92.748 408.04 92.748 288Z" fill="#BDBDBD"/>
</g>
<g opacity="0.2">
<path opacity="0.2" fill-rule="evenodd" clip-rule="evenodd" d="M310.248 28C166.756 28 50.248 144.508 50.248 288C50.248 431.492 166.756 548 310.248 548C453.74 548 570.248 431.492 570.248 288C570.248 144.508 453.74 28 310.248 28ZM40.248 288C40.248 138.985 161.233 18 310.248 18C459.263 18 580.248 138.985 580.248 288C580.248 437.015 459.263 558 310.248 558C161.233 558 40.248 437.015 40.248 288Z" fill="#BDBDBD"/>
</g>
<path d="M384.93 160.569H237.93V418.569H384.93V160.569Z" fill="white"/>
<path d="M393.113 373.47V373.08C392.933 371.01 391.493 369.03 388.733 369.03H235.223C232.913 369.03 231.023 370.8 230.813 373.05L230.783 373.47C230.783 375.9 232.763 377.88 235.223 377.88H388.733C391.493 377.88 392.933 375.93 393.083 373.86L393.113 373.47ZM319.427 395.952C319.427 390.552 315.047 386.172 309.647 386.172C304.427 386.172 300.137 390.252 299.867 395.412L299.837 395.952C299.837 401.382 304.217 405.762 309.647 405.762C315.047 405.762 319.427 401.382 319.427 395.952ZM239.627 180.843C239.627 170.463 248.087 162.003 258.467 162.003H365.477C375.857 162.003 384.317 170.463 384.317 180.843V398.823C384.317 409.203 375.857 417.663 365.477 417.663H258.467C248.087 417.663 239.627 409.203 239.627 398.823V180.843ZM239.603 374.034L239.543 374.394C238.733 379.014 231.713 378.984 230.873 374.394L230.843 374.034L230.873 373.674C231.233 371.784 232.823 370.314 234.803 370.134L235.223 370.104C237.383 370.104 239.153 371.634 239.543 373.674L239.603 374.034ZM230.792 398.811C230.792 414.081 243.212 426.501 258.482 426.501H365.462C380.732 426.501 393.152 414.081 393.152 398.811V180.861C393.152 165.591 380.732 153.171 365.462 153.171H258.482C243.482 153.171 231.242 165.141 230.822 180.051L230.792 180.861V398.811Z" fill="#414958"/>
<path d="M311.143 286.012C334.333 286.012 353.143 304.822 353.143 328.012H269.143C269.143 304.822 287.953 286.012 311.143 286.012Z" fill="#097ABF"/>
<path d="M335.881 252.761C335.881 266.831 324.451 278.261 310.381 278.261C296.311 278.261 284.881 266.831 284.881 252.761C284.881 238.691 296.311 227.261 310.381 227.261C324.451 227.261 335.881 238.691 335.881 252.761Z" fill="#E8E8E8"/>
<path d="M402.93 72.3501C390.525 72.3501 380.469 82.4061 380.469 94.8111C380.469 107.216 390.525 117.272 402.93 117.272C415.335 117.272 425.391 107.216 425.391 94.8111C425.391 82.4061 415.335 72.3501 402.93 72.3501Z" fill="#097ABF"/>
<path fill-rule="evenodd" clip-rule="evenodd" d="M375.469 94.8111C375.469 79.6447 387.763 67.3501 402.93 67.3501C418.096 67.3501 430.391 79.6447 430.391 94.8111C430.391 109.978 418.096 122.272 402.93 122.272C387.763 122.272 375.469 109.978 375.469 94.8111ZM402.93 77.3501C393.286 77.3501 385.469 85.1675 385.469 94.8111C385.469 104.455 393.286 112.272 402.93 112.272C412.573 112.272 420.391 104.455 420.391 94.8111C420.391 85.1675 412.573 77.3501 402.93 77.3501Z" fill="white"/>
<path d="M419.65 150.89C425.744 154.408 433.484 152.418 436.935 146.44L414.86 133.695C411.409 139.673 413.556 147.371 419.65 150.89ZM471.429 147.032C470.122 141.597 466.934 132.715 476.921 115.416C484.507 102.278 481.179 86.3333 469.993 76.435L472.028 72.9111C473.753 69.9233 472.681 66.0737 469.634 64.3144C466.587 62.5552 462.717 63.5517 460.992 66.5396L458.958 70.0635C444.793 65.3259 429.32 70.4163 421.735 83.5548C411.748 100.853 402.462 102.533 397.101 104.118C395.436 104.611 394.225 105.65 393.496 106.932C391.914 109.716 392.612 113.636 395.911 115.54L462.133 153.773C465.432 155.678 469.177 154.323 470.795 151.56C471.541 150.289 471.836 148.718 471.429 147.032Z" fill="white"/>
<path d="M95.3522 296.226L87.0524 312.774L68.4827 315.436C65.1526 315.911 63.818 319.948 66.233 322.261L79.6677 335.134L76.4901 353.319C75.9182 356.606 79.4389 359.069 82.3877 357.531L99 348.945L115.612 357.531C118.561 359.056 122.082 356.606 121.51 353.319L118.332 335.134L131.767 322.261C134.182 319.948 132.847 315.911 129.517 315.436L110.948 312.774L102.648 296.226C101.161 293.277 96.852 293.239 95.3522 296.226Z" fill="#FFE604"/>
<path fill-rule="evenodd" clip-rule="evenodd" d="M129.517 315.436L110.948 312.774L102.648 296.226C101.161 293.277 96.852 293.239 95.3522 296.226L87.0524 312.774L68.4827 315.436C65.1526 315.911 63.818 319.948 66.233 322.261L79.6677 335.134L76.4901 353.319C75.9182 356.606 79.4389 359.069 82.3877 357.531L99 348.945L115.612 357.531C118.561 359.056 122.082 356.606 121.51 353.319L118.332 335.134L131.767 322.261C134.182 319.948 132.847 315.911 129.517 315.436ZM118.368 352.202L118.367 352.201L118.368 352.202ZM114.911 350.415L111.871 333.015L124.623 320.796L106.991 318.268L99 302.336L91.0091 318.268L73.3769 320.796L86.1288 333.015L83.0885 350.415L99 342.191L114.911 350.415Z" fill="#097ABF"/>
<path d="M143.352 391.226L135.052 407.774L116.483 410.436C113.153 410.911 111.818 414.948 114.233 417.261L127.668 430.134L124.49 448.319C123.918 451.606 127.439 454.069 130.388 452.531L147 443.945L163.612 452.531C166.561 454.056 170.082 451.606 169.51 448.319L166.332 430.134L179.767 417.261C182.182 414.948 180.847 410.911 177.517 410.436L158.948 407.774L150.648 391.226C149.161 388.277 144.852 388.239 143.352 391.226Z" fill="#FFE604"/>
<path fill-rule="evenodd" clip-rule="evenodd" d="M177.517 410.436L158.948 407.774L150.648 391.226C149.161 388.277 144.852 388.239 143.352 391.226L135.052 407.774L116.483 410.436C113.153 410.911 111.818 414.948 114.233 417.261L127.668 430.134L124.49 448.319C123.918 451.606 127.439 454.069 130.388 452.531L147 443.945L163.612 452.531C166.561 454.056 170.082 451.606 169.51 448.319L166.332 430.134L179.767 417.261C182.182 414.948 180.847 410.911 177.517 410.436ZM166.368 447.202L166.367 447.201L166.368 447.202ZM162.911 445.415L159.871 428.015L172.623 415.796L154.991 413.268L147 397.336L139.009 413.268L121.377 415.796L134.129 428.015L131.089 445.415L147 437.191L162.911 445.415Z" fill="#097ABF"/>
<path d="M97.3522 186.226L89.0524 202.774L70.4827 205.436C67.1526 205.911 65.818 209.948 68.233 212.261L81.6677 225.134L78.4901 243.319C77.9182 246.606 81.4389 249.069 84.3877 247.531L101 238.945L117.612 247.531C120.561 249.056 124.082 246.606 123.51 243.319L120.332 225.134L133.767 212.261C136.182 209.948 134.847 205.911 131.517 205.436L112.948 202.774L104.648 186.226C103.161 183.277 98.852 183.239 97.3522 186.226Z" fill="#FFE604"/>
<path fill-rule="evenodd" clip-rule="evenodd" d="M131.517 205.436L112.948 202.774L104.648 186.226C103.161 183.277 98.852 183.239 97.3522 186.226L89.0524 202.774L70.4827 205.436C67.1526 205.911 65.818 209.948 68.233 212.261L81.6677 225.134L78.4901 243.319C77.9182 246.606 81.4389 249.069 84.3877 247.531L101 238.945L117.612 247.531C120.561 249.056 124.082 246.606 123.51 243.319L120.332 225.134L133.767 212.261C136.182 209.948 134.847 205.911 131.517 205.436ZM120.368 242.202L120.367 242.201L120.368 242.202ZM116.911 240.415L113.871 223.015L126.623 210.796L108.991 208.268L101 192.336L93.0091 208.268L75.3769 210.796L88.1288 223.015L85.0885 240.415L101 232.191L116.911 240.415Z" fill="#097ABF"/>
<path d="M158.352 97.2263L150.052 113.774L131.483 116.436C128.153 116.911 126.818 120.948 129.233 123.261L142.668 136.134L139.49 154.319C138.918 157.606 142.439 160.069 145.388 158.531L162 149.945L178.612 158.531C181.561 160.056 185.082 157.606 184.51 154.319L181.332 136.134L194.767 123.261C197.182 120.948 195.847 116.911 192.517 116.436L173.948 113.774L165.648 97.2263C164.161 94.2767 159.852 94.2392 158.352 97.2263Z" fill="#FFE604"/>
<path fill-rule="evenodd" clip-rule="evenodd" d="M192.517 116.436L173.948 113.774L165.648 97.2263C164.161 94.2767 159.852 94.2392 158.352 97.2263L150.052 113.774L131.483 116.436C128.153 116.911 126.818 120.948 129.233 123.261L142.668 136.134L139.49 154.319C138.918 157.606 142.439 160.069 145.388 158.531L162 149.945L178.612 158.531C181.561 160.056 185.082 157.606 184.51 154.319L181.332 136.134L194.767 123.261C197.182 120.948 195.847 116.911 192.517 116.436ZM181.368 153.202L181.367 153.201L181.368 153.202ZM177.911 151.415L174.871 134.015L187.623 121.796L169.991 119.268L162 103.336L154.009 119.268L136.377 121.796L149.129 134.015L146.089 151.415L162 143.191L177.911 151.415Z" fill="#097ABF"/>
<path d="M261.352 47.2263L253.052 63.7743L234.483 66.4364C231.153 66.9114 229.818 70.9484 232.233 73.2606L245.668 86.134L242.49 104.319C241.918 107.606 245.439 110.069 248.388 108.531L265 99.9448L281.612 108.531C284.561 110.056 288.082 107.606 287.51 104.319L284.332 86.134L297.767 73.2606C300.182 70.9484 298.847 66.9114 295.517 66.4364L276.948 63.7743L268.648 47.2263C267.161 44.2767 262.852 44.2392 261.352 47.2263Z" fill="#FFE604"/>
<path fill-rule="evenodd" clip-rule="evenodd" d="M295.517 66.4364L276.948 63.7743L268.648 47.2263C267.161 44.2767 262.852 44.2392 261.352 47.2263L253.052 63.7743L234.483 66.4364C231.153 66.9114 229.818 70.9484 232.233 73.2606L245.668 86.134L242.49 104.319C241.918 107.606 245.439 110.069 248.388 108.531L265 99.9448L281.612 108.531C284.561 110.056 288.082 107.606 287.51 104.319L284.332 86.134L297.767 73.2606C300.182 70.9484 298.847 66.9114 295.517 66.4364ZM284.368 103.202L284.367 103.201L284.368 103.202ZM280.911 101.415L277.871 84.0153L290.623 71.7961L272.991 69.2684L265 53.3363L257.009 69.2684L239.377 71.7961L252.129 84.0153L249.089 101.415L265 93.1907L280.911 101.415Z" fill="#097ABF"/>
<path d="M465.5 8C396.733 8 341 52.8875 341 108.286C341 132.2 351.407 154.089 368.721 171.302C362.642 195.602 342.313 217.25 342.07 217.491C341 218.6 340.708 220.239 341.34 221.686C341.973 223.132 343.334 224 344.891 224C377.134 224 401.305 208.668 413.268 199.218C429.171 205.148 446.825 208.571 465.5 208.571C534.267 208.571 590 163.684 590 108.286C590 52.8875 534.267 8 465.5 8Z" fill="#097ABF"/>
<path fill-rule="evenodd" clip-rule="evenodd" d="M342.07 217.491C342.313 217.25 362.642 195.602 368.721 171.302C351.407 154.089 341 132.2 341 108.286C341 52.8875 396.733 8 465.5 8C534.267 8 590 52.8875 590 108.286C590 163.684 534.267 208.571 465.5 208.571C446.825 208.571 429.171 205.148 413.268 199.218C401.305 208.668 377.134 224 344.891 224C343.334 224 341.973 223.132 341.34 221.686C340.708 220.239 341 218.6 342.07 217.491ZM414.666 208.209C430.325 213.539 447.468 216.571 465.5 216.571C536.982 216.571 598 169.631 598 108.286C598 46.9401 536.982 0 465.5 0C394.018 0 333 46.9401 333 108.286C333 133.032 343.132 155.573 359.756 173.53C356.713 182.857 351.531 191.787 346.63 198.864C341.618 206.101 337.23 210.934 336.526 211.709C336.442 211.802 336.411 211.836 336.438 211.81L336.374 211.872L336.313 211.936C332.954 215.418 332.103 220.527 334.01 224.89C335.939 229.302 340.213 232 344.891 232C376.687 232 401.054 218.207 414.666 208.209Z" fill="white"/>
<path d="M479 137.094C479 144.762 472.495 151 464.5 151C456.505 151 450 144.762 450 137.094C450 129.426 456.505 123.188 464.5 123.188C472.495 123.188 479 129.426 479 137.094ZM451.678 66.3803L454.143 113.662C454.259 115.882 456.17 117.625 458.488 117.625H470.512C472.83 117.625 474.741 115.882 474.857 113.662L477.322 66.3803C477.446 63.9973 475.465 62 472.977 62H456.023C453.535 62 451.554 63.9973 451.678 66.3803Z" fill="white"/>
<path d="M681 215.5C681 262.168 643.168 300 596.5 300C549.832 300 512 262.168 512 215.5C512 168.832 549.832 131 596.5 131C643.168 131 681 168.832 681 215.5Z" fill="#097ABF"/>
<path fill-rule="evenodd" clip-rule="evenodd" d="M689 215.5C689 266.586 647.586 308 596.5 308C545.414 308 504 266.586 504 215.5C504 164.414 545.414 123 596.5 123C647.586 123 689 164.414 689 215.5ZM596.5 300C643.168 300 681 262.168 681 215.5C681 168.832 643.168 131 596.5 131C549.832 131 512 168.832 512 215.5C512 262.168 549.832 300 596.5 300Z" fill="white"/>
<path d="M580.246 248.15C584.886 250.829 590.778 249.314 593.405 244.763L576.6 235.061C573.973 239.611 575.607 245.472 580.246 248.15ZM619.664 245.213C618.669 241.076 616.242 234.314 623.845 221.146C629.619 211.144 627.086 199.006 618.571 191.471L620.12 188.788C621.433 186.514 620.617 183.583 618.298 182.244C615.978 180.905 613.032 181.663 611.719 183.938L610.17 186.62C599.387 183.014 587.608 186.889 581.834 196.891C574.231 210.059 567.162 211.338 563.081 212.545C561.814 212.92 560.891 213.711 560.337 214.687C559.132 216.806 559.663 219.79 562.175 221.24L612.587 250.346C615.099 251.796 617.95 250.764 619.182 248.661C619.749 247.693 619.974 246.497 619.664 245.213Z" fill="white"/>
</svg>
