<svg width="214" height="194" viewBox="0 0 214 194" fill="none" xmlns="http://www.w3.org/2000/svg">
<path d="M31.5008 165.959C29.3983 167.93 29.5985 171.52 27.3959 173.808C26.7738 174.515 26.0008 175.072 25.1343 175.44C24.2678 175.807 23.3298 175.974 22.3899 175.929C21.5389 175.829 20.7212 175.495 19.8869 175.395C16.9333 175.061 13.8129 177.549 11.1931 176.18C9.10731 175.094 8.70683 172.238 6.97142 170.652C5.59406 169.729 4.09439 169.004 2.51608 168.497C1.03097 167.779 -0.387414 166.226 0.0964991 164.623C0.280052 163.988 0.763963 163.454 0.98089 162.803C1.39806 161.55 0.713924 160.164 0.897477 158.861C1.18115 156.79 3.38378 155.655 4.85221 154.185C6.54342 152.294 7.60988 149.926 7.90587 147.405C8.2396 145.568 7.90586 142.829 10.0084 141.81C10.6259 141.568 11.3049 141.533 11.944 141.71C14.6788 142.462 17.177 143.898 19.2027 145.885C21.9568 147.961 24.9144 149.751 28.03 151.229C28.4387 151.498 28.9285 151.616 29.415 151.563C29.79 151.438 30.1166 151.198 30.3494 150.878C32.1093 148.848 33.3359 146.41 33.9186 143.786C34.5013 141.162 34.4216 138.434 33.6867 135.848C33.316 134.378 32.5414 133.042 31.4507 131.99C30.4973 131.362 29.5834 130.676 28.7141 129.936C25.3768 126.278 33.4031 126.83 34.7881 129.118C33.887 127.631 36.2565 126.111 37.9251 126.562C39.5938 127.013 41.0456 128.333 42.781 128.232C46.1183 128.232 47.787 123.389 51.1243 123.222C52.4425 123.222 53.7775 123.874 55.0457 123.506C57.5487 122.755 57.799 118.412 60.4021 118.129C61.5368 118.012 62.5546 118.78 63.7394 118.897C66.0588 119.131 67.7275 116.592 68.0613 114.271C68.395 111.949 67.9778 109.511 68.8455 107.34C69.7132 105.169 72.8003 103.683 74.3855 105.403C71.482 107.975 77.3891 113.937 74.2019 116.158L78.6573 120.6C82.6454 116.742 89.3701 118.579 94.4929 116.442C96.68 115.472 98.49 113.812 99.6469 111.717C100.804 109.621 101.244 107.204 100.901 104.835C101.49 104.613 102.123 104.531 102.749 104.596C103.376 104.661 103.978 104.871 104.51 105.21C105.041 105.549 105.486 106.007 105.809 106.547C106.133 107.088 106.326 107.697 106.374 108.325C109.361 106.872 108.643 101.461 105.389 100.81C108.809 98.0777 113.172 96.8162 117.521 97.3029C118.839 95.7665 116.352 93.562 114.367 93.9628C112.381 94.3636 110.712 95.7999 108.71 96.0504C105.089 96.518 102.185 92.5433 102.219 88.8858C102.338 85.8705 103.361 82.9608 105.156 80.5356C106.641 78.4814 111.046 76.327 110.579 73.4044C110.425 72.7217 110.033 72.1161 109.474 71.6967C108.914 71.2773 108.223 71.0715 107.525 71.1165C106.848 71.1991 106.198 71.4306 105.621 71.7944C105.044 72.1582 104.555 72.6453 104.188 73.2207C103.438 74.4011 102.928 75.7176 102.686 77.0953C102.646 77.5736 102.51 78.039 102.287 78.4637C102.063 78.8883 101.756 79.2636 101.385 79.567C96.2283 82.5731 93.7921 84.2598 95.2605 90.4891C96.4953 95.6663 92.2736 95.683 91.6061 100.142C91.6323 101.3 91.7326 102.454 91.9065 103.599C91.786 104.492 91.4893 105.352 91.0339 106.129C90.5784 106.906 89.9731 107.584 89.2533 108.125C87.2843 109.945 76.221 116.291 79.5917 108.409C79.93 107.588 80.4229 106.839 81.0435 106.204C81.5713 105.779 81.9462 105.192 82.1114 104.534C82.0763 103.884 81.8434 103.261 81.4439 102.747C80.2258 100.626 82.2115 95.2488 79.3915 94.5975C78.2234 94.3136 77.1555 95.2655 76.0542 95.8667C73.1674 97.5368 69.1292 97.186 69.4963 93.2948C69.9135 88.9693 70.4641 78.2643 76.6215 78.0973C77.6302 78.2684 78.6662 78.1704 79.6251 77.8134C80.8599 77.0619 82.1949 74.6069 83.2795 73.5714C85.0246 71.9718 86.576 70.1725 87.9017 68.2106C91.6729 62.4823 94.5763 55.9189 101.702 53.6643C104.388 52.8126 107.425 52.2114 109.177 50.0236C109.506 49.5038 109.917 49.0412 110.395 48.6542C110.642 48.4628 110.952 48.3735 111.263 48.4045C111.573 48.4356 111.86 48.5848 112.064 48.8212C112.681 49.8065 110.979 51.2929 111.797 52.1613C112.348 52.7291 113.265 52.1613 113.933 51.7438C115.104 51.0249 116.491 50.7398 117.85 50.9381C119.21 51.1365 120.457 51.8057 121.375 52.8293C122.009 53.5808 122.443 54.4994 123.044 55.1841C124.525 56.5057 126.433 57.2471 128.417 57.2717C130.384 57.2919 132.337 57.6129 134.207 58.2236C137.544 59.6766 138.462 63.9853 134.591 65.3882C131.226 66.6211 127.631 67.0945 124.062 66.7743C124.429 66.7743 127.583 73.0537 128.3 73.8052C130.152 75.7091 132.789 77.446 135.509 76.4105C134.991 75.6939 134.672 74.8529 134.584 73.973C134.496 73.093 134.642 72.2054 135.008 71.4004C135.943 69.1625 137.561 69.4798 139.146 68.2106C142.183 65.7556 139.413 60.2611 140.431 56.8375C140.748 55.7185 142.25 54.8668 143.068 55.6851C143.425 56.1668 143.607 56.7558 143.585 57.3552C143.637 58.1692 143.908 58.9539 144.369 59.6265C144.6 59.9622 144.931 60.216 145.315 60.3511C145.699 60.4862 146.116 60.4956 146.505 60.378C147.149 60.0446 147.648 59.4858 147.907 58.8081C148.226 58.2972 148.447 57.7307 148.558 57.1381C148.563 56.6802 148.535 56.2225 148.474 55.7686C148.402 54.6196 148.648 53.4729 149.187 52.4558C149.726 51.4388 150.537 50.5911 151.528 50.0069C151.748 49.8569 152.015 49.7916 152.279 49.8232C152.863 49.9735 152.913 50.9589 153.497 51.1259C153.685 51.1523 153.877 51.131 154.055 51.0639C154.233 50.9967 154.391 50.886 154.515 50.7417C156.534 49.0717 159.905 47.4016 161.473 45.4978C164.81 42.2579 158.937 42.642 158.703 40.3039C158.703 39.2518 159.971 38.7507 161.023 38.6338C165.178 38.4 170.134 38.4167 172.703 42.2078C174.372 44.6293 175.623 48.3536 174.188 51.1593C173.404 52.7124 170.851 53.18 170.284 54.2656C169.499 55.8521 171.952 60.1275 172.536 61.8643L173.137 63.5344L179.812 82.072C180.832 84.5575 181.538 87.1606 181.914 89.8211C183.433 90.0883 185.252 91.0068 185.068 92.5266C184.801 94.9983 181.397 95.2655 182.482 98.3885C184.885 105.219 189.74 96.0337 192.727 99.5241C193.912 100.91 193.411 103.115 194.396 104.701C195.781 107.19 203.724 106.739 202.556 110.997C202.415 111.357 202.201 111.683 201.928 111.956C201.656 112.229 201.33 112.443 200.97 112.584C196.982 114.621 192.21 113.853 187.771 114.421C183.333 114.989 178.36 118.212 179.011 122.654C179.511 126.078 183.116 128.182 184.467 131.372C187.104 137.718 178.694 141.276 177.476 146.737C177.295 147.984 177.373 149.255 177.706 150.471C178.04 151.687 178.62 152.82 179.411 153.801C180.88 155.838 182.749 157.492 184.417 159.379C186.138 161.348 187.56 163.559 188.639 165.942C189.023 166.794 189.323 167.913 188.639 168.564C188.303 168.831 187.897 168.993 187.471 169.032C182.231 169.85 177.275 165.942 171.969 166.043C170.467 166.043 168.982 166.427 167.48 166.41C162.892 166.41 157.719 162.819 153.864 160.648C152.512 159.974 151.287 159.07 150.243 157.976C149.736 157.413 149.387 156.725 149.231 155.983C149.076 155.241 149.12 154.471 149.359 153.751C149.859 152.599 151.027 151.864 151.711 150.828C152.396 149.793 152.512 148.039 151.344 147.572C150.832 147.421 150.288 147.421 149.776 147.572C146.839 148.19 143.552 148.791 141.8 151.43C138.813 155.889 143.935 155.337 143.802 158.444C143.802 159.462 142.601 159.98 141.616 160.231C139.973 160.635 138.298 160.892 136.61 160.999C136.084 161.068 135.549 160.999 135.058 160.799C133.289 159.897 134.491 156.891 133.239 155.321C132.792 154.916 132.261 154.614 131.685 154.435C131.108 154.256 130.5 154.205 129.902 154.285C126.948 154.285 122.109 157.492 122.009 160.698C122.082 161.997 122.289 163.284 122.627 164.539C122.705 164.791 122.731 165.055 122.702 165.317C122.674 165.578 122.591 165.831 122.46 166.059C122.076 166.56 121.342 166.594 120.791 166.827C118.205 167.813 119.74 171.253 120.457 172.99C120.911 173.816 121.195 174.724 121.292 175.662C121.292 178.468 117.37 179.386 114.617 178.635C111.864 177.883 109.027 176.38 106.491 177.566C103.153 179.152 103.303 184.246 105.156 187.419C105.789 188.292 106.217 189.297 106.407 190.359C106.591 193.148 102.586 194.584 100.15 193.198C97.7134 191.811 96.5621 188.989 95.4774 186.4C94.0634 183.409 92.978 180.274 92.2402 177.048C92.0966 175.648 91.6759 174.29 91.0026 173.055C90.3294 171.819 89.4171 170.73 88.3189 169.85C86.4333 168.464 83.9803 167.679 82.7956 165.675C81.8277 164.005 81.9112 161.984 80.9267 160.381C80.2518 159.433 79.3811 158.641 78.3736 158.06C76.1877 156.64 70.1304 151.68 68.3616 156.189C66.8431 160.047 71.6155 162.869 73.9183 165.007C74.8192 165.781 75.6409 166.642 76.3712 167.579C77.0387 168.531 77.5059 169.616 78.1901 170.552C80.3259 173.474 84.2306 174.76 86.1329 177.833C86.5232 178.374 86.6959 179.041 86.6168 179.704C86.593 179.866 86.5362 180.022 86.45 180.161C86.3638 180.301 86.25 180.421 86.1156 180.515C85.9812 180.609 85.829 180.674 85.6684 180.707C85.5078 180.74 85.3422 180.739 85.1818 180.706C82.7455 179.837 83.1126 182.943 82.028 184.38C80.9434 185.816 78.407 186.451 77.556 188.455C76.9385 189.874 77.556 191.661 76.755 193.014C74.9361 193.014 74.1018 190.676 72.4498 189.908C71.5572 189.648 70.6487 189.447 69.7299 189.306C68.8455 189.022 68.0613 188.037 68.4451 187.219C71.5856 187.711 74.7985 187.066 77.5059 185.398C78.455 184.906 79.1953 184.088 79.5917 183.094C79.7643 182.343 79.7355 181.559 79.5083 180.823C78.728 177.739 76.8539 175.044 74.2353 173.24C72.0994 171.804 69.4796 170.936 67.9111 168.915C66.8098 167.115 66.0464 165.128 65.6584 163.053C65.4535 162.018 65.0207 161.042 64.3915 160.195C63.7622 159.349 62.9523 158.654 62.0207 158.16C59.3508 157.124 56.8144 158.995 54.4116 159.83C51.0742 161.082 49.4056 160.348 46.0682 159.095C42.4305 157.676 43.5319 157.993 42.247 160.648C39.7941 165.825 35.2386 162.485 31.5008 165.959Z" fill="#097ABF"/>
<g opacity="0.82">
<path opacity="0.82" d="M93.5468 56.3994C113.58 56.3994 129.846 72.6652 129.846 92.699C129.846 112.733 113.58 128.999 93.5468 128.999C73.513 128.999 57.2472 112.733 57.2472 92.699C57.2472 72.6652 73.513 56.3994 93.5468 56.3994Z" stroke="#BDBDBD" stroke-width="10"/>
</g>
<g opacity="0.61">
<path opacity="0.61" d="M93.5465 43.0898C121.093 43.0898 143.458 65.4554 143.458 93.0017C143.458 120.548 121.093 142.914 93.5465 142.914C66.0002 142.914 43.6346 120.548 43.6346 93.0017C43.6346 65.4554 66.0002 43.0898 93.5465 43.0898Z" stroke="#BDBDBD" stroke-width="10"/>
</g>
<g opacity="0.41">
<path opacity="0.41" d="M93.8491 28.4194C129.325 28.4194 158.13 57.2235 158.13 92.6999C158.13 128.176 129.325 156.98 93.8491 156.98C58.3727 156.98 29.5686 128.176 29.5686 92.6999C29.5686 57.2235 58.3727 28.4194 93.8491 28.4194Z" stroke="#BDBDBD" stroke-width="10"/>
</g>
<g opacity="0.2">
<path opacity="0.2" d="M93.8491 12.5376C138.09 12.5376 174.011 48.458 174.011 92.6991C174.011 136.94 138.09 172.861 93.8491 172.861C49.608 172.861 13.6876 136.94 13.6876 92.6991C13.6876 48.458 49.608 12.5376 93.8491 12.5376Z" stroke="#BDBDBD" stroke-width="10"/>
</g>
<path d="M116.44 54.1517H71.9729V132.196H116.44V54.1517Z" fill="white"/>
<path d="M118.916 118.554V118.436C118.861 117.809 118.426 117.21 117.591 117.21H71.1544C70.4557 117.21 69.8839 117.746 69.8204 118.426L69.8113 118.554C69.8113 119.289 70.4103 119.888 71.1544 119.888H117.591C118.426 119.888 118.861 119.298 118.906 118.672L118.916 118.554ZM96.6258 125.354C96.6258 123.721 95.3009 122.396 93.6674 122.396C92.0884 122.396 90.7907 123.63 90.709 125.191L90.6999 125.354C90.6999 126.997 92.0249 128.322 93.6674 128.322C95.3009 128.322 96.6258 126.997 96.6258 125.354ZM72.4866 60.2846C72.4866 57.1447 75.0457 54.5855 78.1856 54.5855H110.556C113.696 54.5855 116.255 57.1447 116.255 60.2846V126.223C116.255 129.363 113.696 131.922 110.556 131.922H78.1856C75.0457 131.922 72.4866 129.363 72.4866 126.223V60.2846ZM72.4794 118.724L72.4612 118.833C72.2162 120.231 70.0927 120.221 69.8386 118.833L69.8295 118.724L69.8386 118.615C69.9475 118.044 70.4284 117.599 71.0274 117.544L71.1544 117.535C71.8078 117.535 72.3432 117.998 72.4612 118.615L72.4794 118.724ZM69.8141 126.219C69.8141 130.838 73.5711 134.595 78.1902 134.595H110.551C115.17 134.595 118.927 130.838 118.927 126.219V60.29C118.927 55.6709 115.17 51.9139 110.551 51.9139H78.1902C73.6527 51.9139 69.9502 55.5348 69.8231 60.045L69.8141 60.29V126.219Z" fill="#414958"/>
<path d="M94.1197 92.0977C101.135 92.0977 106.825 97.7876 106.825 104.803H81.4149C81.4149 97.7876 87.1049 92.0977 94.1197 92.0977Z" fill="#097ABF"/>
<path d="M101.603 82.0393C101.603 86.2955 98.1451 89.753 93.889 89.753C89.6329 89.753 86.1753 86.2955 86.1753 82.0393C86.1753 77.7832 89.6329 74.3257 93.889 74.3257C98.1451 74.3257 101.603 77.7832 101.603 82.0393Z" fill="#E8E8E8"/>
<path d="M121.885 27.4658C118.132 27.4658 115.091 30.5077 115.091 34.2602C115.091 38.0127 118.132 41.0546 121.885 41.0546C125.637 41.0546 128.679 38.0127 128.679 34.2602C128.679 30.5077 125.637 27.4658 121.885 27.4658Z" fill="#097ABF"/>
<path d="M121.885 27.4658C118.132 27.4658 115.091 30.5077 115.091 34.2602C115.091 38.0127 118.132 41.0546 121.885 41.0546C125.637 41.0546 128.679 38.0127 128.679 34.2602C128.679 30.5077 125.637 27.4658 121.885 27.4658Z" stroke="white" stroke-width="10"/>
<path d="M126.943 51.2239C128.786 52.2882 131.128 51.6861 132.172 49.878L125.494 46.0226C124.45 47.8308 125.099 50.1596 126.943 51.2239ZM142.606 50.0568C142.211 48.4128 141.246 45.726 144.267 40.4934C146.562 36.519 145.555 31.6958 142.172 28.7016L142.787 27.6357C143.309 26.7318 142.985 25.5674 142.063 25.0352C141.141 24.503 139.971 24.8045 139.449 25.7083L138.833 26.7743C134.548 25.3412 129.868 26.881 127.574 30.8553C124.552 36.088 121.743 36.596 120.122 37.0757C119.618 37.2248 119.252 37.539 119.031 37.9267C118.553 38.7689 118.764 39.9546 119.762 40.5308L139.794 52.0962C140.792 52.6724 141.925 52.2626 142.414 51.4267C142.64 51.0421 142.729 50.567 142.606 50.0568Z" fill="white"/>
<path d="M26.759 103.163L28.3116 102.94L29.0148 101.538L29.9474 99.6791L30.8799 101.538L31.5831 102.94L33.1357 103.163L35.1216 103.448L33.7197 104.791L32.5647 105.898L32.8401 107.473L33.1819 109.43L31.3248 108.47L29.9474 107.758L28.5699 108.47L26.7128 109.43L27.0546 107.473L27.33 105.898L26.175 104.791L24.7731 103.448L26.759 103.163Z" fill="#FFE604" stroke="#097ABF" stroke-width="6"/>
<path d="M41.2785 131.9L42.8312 131.677L43.5344 130.275L44.4669 128.416L45.3994 130.275L46.1026 131.677L47.6553 131.9L49.6411 132.184L48.2392 133.528L47.0843 134.634L47.3596 136.21L47.7014 138.166L45.8444 137.207L44.4669 136.495L43.0894 137.207L41.2324 138.166L41.5742 136.21L41.8495 134.634L40.6945 133.528L39.2926 132.184L41.2785 131.9Z" fill="#FFE604" stroke="#097ABF" stroke-width="6"/>
<path d="M27.3639 69.888L28.9166 69.6655L29.6198 68.2634L30.5523 66.4042L31.4848 68.2634L32.1881 69.6655L33.7407 69.888L35.7266 70.1727L34.3247 71.5161L33.1697 72.6228L33.4451 74.1985L33.7869 76.1546L31.9298 75.1948L30.5523 74.4828L29.1748 75.1948L27.3178 76.1546L27.6596 74.1985L27.9349 72.6228L26.78 71.5161L25.3781 70.1727L27.3639 69.888Z" fill="#FFE604" stroke="#097ABF" stroke-width="6"/>
<path d="M45.816 42.9662L47.3686 42.7436L48.0718 41.3415L49.0044 39.4823L49.9369 41.3415L50.6401 42.7436L52.1927 42.9662L54.1786 43.2509L52.7767 44.5942L51.6217 45.7009L51.8971 47.2766L52.2389 49.2328L50.3819 48.2729L49.0044 47.5609L47.6269 48.2729L45.7698 49.2328L46.1116 47.2766L46.387 45.7009L45.232 44.5942L43.8301 43.2509L45.816 42.9662Z" fill="#FFE604" stroke="#097ABF" stroke-width="6"/>
<path d="M76.9732 27.8417L78.5259 27.6191L79.2291 26.217L80.1616 24.3578L81.0941 26.217L81.7973 27.6191L83.35 27.8417L85.3358 28.1264L83.9339 29.4697L82.779 30.5764L83.0543 32.1521L83.3961 34.1083L81.5391 33.1484L80.1616 32.4364L78.7841 33.1484L76.9271 34.1083L77.2689 32.1521L77.5442 30.5764L76.3892 29.4697L74.9873 28.1264L76.9732 27.8417Z" fill="#FFE604" stroke="#097ABF" stroke-width="6"/>
<path d="M106.353 74.1473C106.37 74.1297 106.389 74.1094 106.411 74.0865C106.392 74.1071 106.373 74.1275 106.354 74.1476L106.353 74.1473ZM100.659 68.5296L100.627 68.5609L100.596 68.5929C99.1284 70.1145 98.7605 72.3453 99.5892 74.2412C100.429 76.1616 102.297 77.3392 104.328 77.3392C113.899 77.3392 121.321 73.4004 125.703 70.3154C130.388 71.8221 135.477 72.6721 140.812 72.6721C162.972 72.6721 182.473 58.0675 182.473 38.3361C182.473 18.6046 162.972 4 140.812 4C118.653 4 99.1514 18.6046 99.1514 38.3361C99.1514 45.9463 102.142 52.8673 107.023 58.433C106.15 60.7464 104.84 62.9806 103.555 64.8361C102.17 66.8371 100.959 68.1913 100.699 68.4815C100.65 68.5362 100.635 68.5531 100.659 68.5296Z" fill="#097ABF" stroke="white" stroke-width="8"/>
<path d="M144.896 47.0501C144.896 49.3696 142.928 51.2566 140.51 51.2566C138.091 51.2566 136.123 49.3696 136.123 47.0501C136.123 44.7305 138.091 42.8435 140.51 42.8435C142.928 42.8435 144.896 44.7305 144.896 47.0501ZM136.631 25.6595L137.377 39.9619C137.412 40.6335 137.99 41.1608 138.691 41.1608H142.328C143.029 41.1608 143.607 40.6335 143.642 39.9619L144.388 25.6595C144.426 24.9386 143.826 24.3345 143.074 24.3345H137.945C137.193 24.3345 136.594 24.9386 136.631 25.6595Z" fill="white"/>
<circle cx="180.439" cy="70.768" r="29.5609" fill="#097ABF" stroke="white" stroke-width="8"/>
<path d="M175.522 80.6453C176.926 81.4555 178.708 80.9972 179.503 79.6207L174.42 76.6858C173.625 78.0623 174.119 79.8351 175.522 80.6453ZM187.446 79.7568C187.145 78.5053 186.411 76.46 188.711 72.4766C190.458 69.4511 189.691 65.7793 187.116 63.5L187.584 62.6885C187.981 62.0004 187.734 61.114 187.033 60.7088C186.331 60.3037 185.44 60.5332 185.043 61.2213L184.574 62.0327C181.312 60.9418 177.749 62.114 176.003 65.1395C173.703 69.1229 171.564 69.5097 170.33 69.8748C169.947 69.9883 169.668 70.2275 169.5 70.5227C169.136 71.1638 169.296 72.0665 170.056 72.5051L185.305 81.3094C186.065 81.748 186.928 81.436 187.3 80.7997C187.472 80.5069 187.54 80.1452 187.446 79.7568Z" fill="white"/>
</svg>
