<svg width="19" height="19" viewBox="0 0 19 19" fill="none" xmlns="http://www.w3.org/2000/svg">
<path d="M0.00548235 6.84371C-0.0806118 9.06248 0.853435 11.0608 2.37493 12.4272V19H8.31245V11.7455L0.136108 5.79834C0.0654558 6.14287 0.0217815 6.49239 0.00548235 6.84371ZM18.8968 10.2051C18.1175 8.45648 17.097 4.57373 16.1834 3.2749C15.471 2.26376 14.5262 1.43852 13.4284 0.868616C12.3306 0.298711 11.112 0.000817171 9.87514 0L7.42182 0C4.34173 0 1.57633 1.87662 0.491617 4.58857L8.87689 10.6875H18.9911C18.9944 10.5218 18.9623 10.3573 18.8968 10.2051ZM11.875 8.3125C11.6401 8.3125 11.4105 8.24285 11.2152 8.11237C11.0199 7.98189 10.8677 7.79642 10.7779 7.57944C10.688 7.36245 10.6645 7.12368 10.7103 6.89333C10.7561 6.66298 10.8692 6.45139 11.0353 6.28531C11.2014 6.11924 11.4129 6.00614 11.6433 5.96032C11.8737 5.9145 12.1124 5.93801 12.3294 6.02789C12.5464 6.11777 12.7319 6.26998 12.8623 6.46526C12.9928 6.66054 13.0625 6.89013 13.0625 7.125C13.0618 7.43973 12.9365 7.74138 12.7139 7.96393C12.4914 8.18648 12.1897 8.31181 11.875 8.3125ZM12.4687 13.6562H18.4062L19 11.875H9.49996V19H14.9135C15.4119 19 15.8977 18.8431 16.3021 18.5517C16.7064 18.2602 17.0088 17.8489 17.1664 17.3761L17.2187 17.2188H12.4687C12.3112 17.2188 12.1602 17.1562 12.0489 17.0448C11.9375 16.9335 11.875 16.7825 11.875 16.625C11.875 16.4675 11.9375 16.3165 12.0489 16.2052C12.1602 16.0938 12.3112 16.0312 12.4687 16.0312H17.6147L18.0107 14.8438H12.4687C12.3112 14.8438 12.1602 14.7812 12.0489 14.6698C11.9375 14.5585 11.875 14.4075 11.875 14.25C11.875 14.0925 11.9375 13.9415 12.0489 13.8302C12.1602 13.7188 12.3112 13.6562 12.4687 13.6562Z" fill="white"/>
</svg>
