<svg width="115" height="102" viewBox="0 0 115 102" fill="none" xmlns="http://www.w3.org/2000/svg">
<path fill-rule="evenodd" clip-rule="evenodd" d="M36.5 53C29.607 53 24 58.607 24 65.5V66H24.5H26.5H27V65.5C27 60.262 31.262 56 36.5 56C41.738 56 46 60.262 46 65.5V66H46.5H48.5H49V65.5C49 58.607 43.393 53 36.5 53Z" fill="white"/>
<path fill-rule="evenodd" clip-rule="evenodd" d="M36.5 39.875C39.05 39.875 41.125 41.95 41.125 44.5C41.125 47.05 39.05 49.125 36.5 49.125C33.95 49.125 31.875 47.05 31.875 44.5C31.875 41.95 33.95 39.875 36.5 39.875ZM36.5 52C40.636 52 44 48.636 44 44.5C44 40.364 40.636 37 36.5 37C32.364 37 29 40.364 29 44.5C29 48.636 32.364 52 36.5 52Z" fill="white"/>
<path fill-rule="evenodd" clip-rule="evenodd" d="M78.5 53C71.607 53 66 58.607 66 65.5V66H66.5H68.5H69V65.5C69 60.262 73.262 56 78.5 56C83.738 56 88 60.262 88 65.5V66H88.5H90.5H91V65.5C91 58.607 85.393 53 78.5 53Z" fill="white"/>
<path fill-rule="evenodd" clip-rule="evenodd" d="M78.5 39.875C81.05 39.875 83.125 41.95 83.125 44.5C83.125 47.05 81.05 49.125 78.5 49.125C75.95 49.125 73.875 47.05 73.875 44.5C73.875 41.95 75.95 39.875 78.5 39.875ZM78.5 52C82.636 52 86 48.636 86 44.5C86 40.364 82.636 37 78.5 37C74.364 37 71 40.364 71 44.5C71 48.636 74.364 52 78.5 52Z" fill="white"/>
<path d="M51.5 51.5H66.5" stroke="#FF000B" stroke-width="3" stroke-linecap="square" stroke-dasharray="1 5"/>
</svg>
