<svg width="15" height="18" viewBox="0 0 15 18" fill="none" xmlns="http://www.w3.org/2000/svg">
<path d="M11.7857 5.625V4.5C11.7857 2.01867 9.86314 0 7.5 0C5.13683 0 3.21429 2.01867 3.21429 4.5V5.625H0V15.1875C0 16.7408 1.19923 18 2.67857 18H12.3214C13.8008 18 15 16.7408 15 15.1875V5.625H11.7857ZM5.35714 4.5C5.35714 3.25934 6.31842 2.25 7.5 2.25C8.68158 2.25 9.64286 3.25934 9.64286 4.5V5.625H5.35714V4.5ZM10.7143 8.71875C10.2705 8.71875 9.91071 8.341 9.91071 7.875C9.91071 7.409 10.2705 7.03125 10.7143 7.03125C11.1581 7.03125 11.5179 7.409 11.5179 7.875C11.5179 8.341 11.1581 8.71875 10.7143 8.71875ZM4.28571 8.71875C3.84191 8.71875 3.48214 8.341 3.48214 7.875C3.48214 7.409 3.84191 7.03125 4.28571 7.03125C4.72952 7.03125 5.08929 7.409 5.08929 7.875C5.08929 8.341 4.72952 8.71875 4.28571 8.71875Z" fill="white"/>
</svg>
