<svg width="222" height="132" viewBox="0 0 222 132" fill="none" xmlns="http://www.w3.org/2000/svg">
<path d="M2.99999 8L0.113244 13L5.88675 13L2.99999 8ZM3.5 129L3.49999 12.5L2.49999 12.5L2.5 129L3.5 129Z" fill="#D1CDCD"/>
<path d="M24.5168 103.058C15.5157 103.058 10.5234 118.242 7 126L148.434 126V53.5001V8.49999C148.434 8.49999 140.907 5.22811 135.467 14.4269C132.305 19.7749 126.813 47.9033 123 65.3484C119.187 82.7934 117.085 91.8698 113.785 103.058C110.533 114.085 105.383 114.935 95.6262 118.242C85.8692 121.549 71.1627 123.854 64.729 123.854C58.2952 123.854 48.1963 124.703 41.1495 118.242C36.271 113.768 33.0187 103.058 24.5168 103.058Z" fill="#B9141B"/>
<path d="M151.5 8.49999V126L211.5 126V0C209.167 2 203.8 6.9 201 10.5C197.5 15 197 19.5 194.5 22.5C192 25.5 188.5 28.5 183 25C177.5 21.5 177.5 12.5 169.5 10.5C163.1 8.9 154.833 8.49999 151.5 8.49999Z" fill="#B9141B"/>
<rect opacity="0.7" x="151" width="61" height="126" fill="white"/>
<path d="M150.75 126V126.75H151.5H210.5H212.355L211.021 125.461L210.5 126C211.021 125.461 211.021 125.461 211.021 125.461L211.02 125.46L211.018 125.458L211.01 125.451L210.981 125.423C210.956 125.398 210.918 125.362 210.868 125.314C210.768 125.219 210.621 125.079 210.429 124.899C210.045 124.54 209.483 124.019 208.769 123.372C207.34 122.079 205.3 120.284 202.851 118.271C197.961 114.25 191.417 109.339 184.853 105.838C177.254 101.786 164.785 97.8409 151.533 97.2507L150.75 97.2159V98V126Z" fill="#9AEDE7" stroke="white" stroke-width="1.5"/>
<path d="M3 128.5H2.5V129.5H3V128.5ZM222 129L217 126.113V131.887L222 129ZM3 129.5L217.5 129.5V128.5L3 128.5V129.5Z" fill="#D1CDCD"/>
<circle cx="158" cy="82" r="23" fill="#21A4F4" stroke="white" stroke-width="2"/>
<circle cx="158" cy="82" r="19" fill="white"/>
<path d="M174 82C174 90.8387 166.839 98 158 98C149.161 98 142 90.8387 142 82C142 73.1613 149.161 66 158 66C166.839 66 174 73.1613 174 82ZM155.161 74.5161V82H150.587C149.897 82 149.548 82.8387 150.039 83.3226L157.452 90.6968C157.755 91 158.239 91 158.542 90.6968L165.955 83.3226C166.445 82.8323 166.097 82 165.406 82H160.839V74.5161C160.839 74.0903 160.49 73.7419 160.065 73.7419H155.935C155.51 73.7419 155.161 74.0903 155.161 74.5161Z" fill="#343434"/>
</svg>
