<svg width="14" height="23" viewBox="0 0 14 23" fill="none" xmlns="http://www.w3.org/2000/svg">
<path d="M8.83301 15.4814H5.09766C5.10742 14.6025 5.17578 13.8457 5.30273 13.2109C5.43945 12.5664 5.66895 11.9854 5.99121 11.4678C6.32324 10.9502 6.7627 10.4375 7.30957 9.92969C7.76855 9.51953 8.16895 9.12891 8.51074 8.75781C8.85254 8.38672 9.12109 8.00586 9.31641 7.61523C9.51172 7.21484 9.60938 6.77051 9.60938 6.28223C9.60938 5.71582 9.52148 5.24707 9.3457 4.87598C9.17969 4.49512 8.92578 4.20703 8.58398 4.01172C8.25195 3.81641 7.83203 3.71875 7.32422 3.71875C6.9043 3.71875 6.51367 3.81152 6.15234 3.99707C5.79102 4.17285 5.49316 4.44629 5.25879 4.81738C5.03418 5.18848 4.91699 5.67676 4.90723 6.28223H0.65918C0.688477 4.94434 0.996094 3.84082 1.58203 2.97168C2.17773 2.09277 2.97363 1.44336 3.96973 1.02344C4.96582 0.59375 6.08398 0.378906 7.32422 0.378906C8.69141 0.378906 9.86328 0.603516 10.8398 1.05273C11.8164 1.49219 12.5635 2.1416 13.0811 3.00098C13.5986 3.85059 13.8574 4.88574 13.8574 6.10645C13.8574 6.95605 13.6914 7.71289 13.3594 8.37695C13.0273 9.03125 12.5928 9.6416 12.0557 10.208C11.5186 10.7744 10.9277 11.3604 10.2832 11.9658C9.72656 12.4639 9.3457 12.9863 9.14062 13.5332C8.94531 14.0801 8.84277 14.7295 8.83301 15.4814ZM4.6582 20.0078C4.6582 19.3828 4.87305 18.8652 5.30273 18.4551C5.73242 18.0352 6.30859 17.8252 7.03125 17.8252C7.74414 17.8252 8.31543 18.0352 8.74512 18.4551C9.18457 18.8652 9.4043 19.3828 9.4043 20.0078C9.4043 20.6133 9.18457 21.126 8.74512 21.5459C8.31543 21.9658 7.74414 22.1758 7.03125 22.1758C6.30859 22.1758 5.73242 21.9658 5.30273 21.5459C4.87305 21.126 4.6582 20.6133 4.6582 20.0078Z" fill="white"/>
</svg>
