<svg width="115" height="102" viewBox="0 0 115 102" fill="none" xmlns="http://www.w3.org/2000/svg">
<mask id="mask0" mask-type="alpha" maskUnits="userSpaceOnUse" x="27" y="25" width="62" height="28">
<path fill-rule="evenodd" clip-rule="evenodd" d="M27.0001 25H88.3219V52.3606H27.0001V25Z" fill="white"/>
</mask>
<g mask="url(#mask0)">
<path fill-rule="evenodd" clip-rule="evenodd" d="M86.9063 52.3595C86.5863 52.3595 86.2623 52.2515 85.9983 52.0285L57.6613 28.2615L29.3243 52.0285C28.7263 52.5335 27.8323 52.4525 27.3313 51.8535C26.8283 51.2555 26.9073 50.3625 27.5063 49.8605L56.7523 25.3315C57.2773 24.8895 58.0453 24.8895 58.5703 25.3315L87.8163 49.8605C88.4153 50.3625 88.4943 51.2555 87.9913 51.8535C87.7123 52.1875 87.3103 52.3595 86.9063 52.3595Z" fill="white"/>
</g>
<path fill-rule="evenodd" clip-rule="evenodd" d="M81.2471 40.5664C80.7261 40.5664 80.3041 40.1444 80.3041 39.6234V29.2454H72.7561V32.0764C72.7561 32.5974 72.3341 33.0194 71.8121 33.0194C71.2911 33.0194 70.8691 32.5974 70.8691 32.0764V28.3014C70.8691 27.7804 71.2911 27.3584 71.8121 27.3584H81.2471C81.7681 27.3584 82.1901 27.7804 82.1901 28.3014V39.6234C82.1901 40.1444 81.7681 40.5664 81.2471 40.5664Z" fill="white"/>
<path fill-rule="evenodd" clip-rule="evenodd" d="M81.2472 78.7757H54.8312C54.0502 78.7757 53.4162 78.1417 53.4162 77.3607V56.1337H44.9252V77.3607C44.9252 78.1417 44.2912 78.7757 43.5102 78.7757H34.0752C33.2942 78.7757 32.6602 78.1417 32.6602 77.3607V53.3037H35.4902V75.9457H42.0952V54.7187C42.0952 53.9377 42.7282 53.3037 43.5102 53.3037H54.8312C55.6122 53.3037 56.2462 53.9377 56.2462 54.7187V75.9457H79.8322V53.3037H82.6622V77.3607C82.6622 78.1417 82.0282 78.7757 81.2472 78.7757Z" fill="white"/>
<path fill-rule="evenodd" clip-rule="evenodd" d="M63.3209 63.2089H70.8689V55.6619H63.3209V63.2089ZM71.8129 65.0959H62.3779C61.8569 65.0959 61.4349 64.6739 61.4349 64.1529V54.7189C61.4349 54.1979 61.8569 53.7759 62.3779 53.7759H71.8129C72.3339 53.7759 72.7559 54.1979 72.7559 54.7189V64.1529C72.7559 64.6739 72.3339 65.0959 71.8129 65.0959Z" fill="#FF000B"/>
</svg>
