<svg width="11" height="22" viewBox="0 0 11 22" fill="none" xmlns="http://www.w3.org/2000/svg">
<path d="M8.25 16.5C8.25 18.0188 7.01877 19.25 5.49999 19.25C3.98122 19.25 2.74999 18.0188 2.74999 16.5C2.74999 15.4823 3.30326 14.5944 4.12499 14.1188V9.625C4.12499 8.86561 4.74061 8.25 5.49999 8.25C6.25938 8.25 6.87499 8.86561 6.87499 9.625V14.1188C7.69673 14.5944 8.25 15.4823 8.25 16.5ZM9.625 12.8626C10.4806 13.8321 11 15.1053 11 16.5C11 19.5377 8.53776 22 5.49999 22C5.48715 22 5.47382 22 5.46093 21.9999C2.44014 21.9789 -0.0153535 19.4922 7.22848e-05 16.4713C0.00711917 15.0878 0.52528 13.8254 1.37499 12.8626V4.125C1.37499 1.84684 3.22183 0 5.49999 0C7.77816 0 9.625 1.84684 9.625 4.125V12.8626ZM8.9375 16.5C8.9375 15.0245 8.10519 14.2575 7.5625 13.6425V4.125C7.5625 2.98775 6.63725 2.0625 5.49999 2.0625C4.36274 2.0625 3.43749 2.98775 3.43749 4.125V13.6425C2.89041 14.2624 2.07001 15.0218 2.06253 16.4819C2.05291 18.3672 3.59063 19.9244 5.47524 19.9374L5.49999 19.9375C7.39543 19.9375 8.9375 18.3954 8.9375 16.5Z" fill="white"/>
</svg>
