<svg width="17" height="19" viewBox="0 0 17 19" fill="none" xmlns="http://www.w3.org/2000/svg">
<path d="M8.5 9.5C11.1828 9.5 13.3571 7.37363 13.3571 4.75C13.3571 2.12637 11.1828 0 8.5 0C5.81719 0 3.64286 2.12637 3.64286 4.75C3.64286 7.37363 5.81719 9.5 8.5 9.5ZM3.94643 15.7344C3.94643 16.2279 4.35246 16.625 4.85714 16.625C5.36183 16.625 5.76786 16.2279 5.76786 15.7344C5.76786 15.2408 5.36183 14.8438 4.85714 14.8438C4.35246 14.8438 3.94643 15.2408 3.94643 15.7344ZM12.1429 10.7098V12.5281C13.5279 12.8027 14.5714 14.0051 14.5714 15.4375V16.985C14.5714 17.267 14.3665 17.5119 14.0819 17.5676L12.86 17.8051C12.6969 17.8385 12.5375 17.7346 12.5033 17.5713L12.3857 16.9887C12.3516 16.8291 12.4578 16.6695 12.6248 16.6398L13.3571 16.4951V15.4375C13.3571 13.107 9.71429 13.0217 9.71429 15.508V16.4988L10.4467 16.6436C10.6098 16.677 10.7161 16.8328 10.6857 16.9924L10.5681 17.575C10.5339 17.7346 10.3746 17.8385 10.2114 17.8088L9.02746 17.6529C8.72768 17.6121 8.50379 17.3635 8.50379 17.0629V15.4375C8.50379 14.0051 9.54732 12.8064 10.9324 12.5281V10.8508C10.8489 10.8768 10.7654 10.8916 10.6819 10.9213C9.99888 11.1551 9.26652 11.285 8.50379 11.285C7.74107 11.285 7.00871 11.1551 6.32567 10.9213C6.04487 10.8248 5.76027 10.7654 5.46808 10.7283V13.7564C6.34464 14.0125 6.98594 14.7992 6.98594 15.7381C6.98594 16.8848 6.03348 17.8162 4.86094 17.8162C3.68839 17.8162 2.73594 16.8848 2.73594 15.7381C2.73594 14.7992 3.37723 14.0125 4.25379 13.7564V10.7729C1.8404 11.1699 0 13.2035 0 15.675V17.3375C0 18.2541 0.762723 19 1.7 19H15.3C16.2373 19 17 18.2541 17 17.3375V15.675C17 13.0031 14.8446 10.8396 12.1429 10.7098Z" fill="white"/>
</svg>
