<svg width="115" height="102" viewBox="0 0 115 102" fill="none" xmlns="http://www.w3.org/2000/svg">
<path fill-rule="evenodd" clip-rule="evenodd" d="M77.666 51.0236L78.2015 51.3105C78.7634 51.6114 79.4743 51.2787 79.5702 50.6485C79.8677 48.692 78.9317 46.6745 77.0873 45.6862L71.9727 42.9452C71.4713 42.6766 70.8628 42.9524 70.7119 43.5008C70.6612 43.6876 70.6005 43.8706 70.5308 44.051C70.3671 44.4728 70.5244 44.9495 70.9234 45.1628L75.93 47.8458C76.7921 48.3081 77.2461 49.2278 77.1605 50.1441C77.1264 50.5083 77.3435 50.8508 77.666 51.0236Z" fill="#D90009"/>
<path fill-rule="evenodd" clip-rule="evenodd" d="M79.863 68.1362L79.8975 68.0718C81.026 65.966 80.4185 63.3918 78.5814 61.9836C79.2896 61.5524 79.8982 60.9374 80.3177 60.1548L80.3522 60.0912C81.6137 57.7542 80.7368 54.8363 78.3961 53.582L65.0321 46.4199C65.8722 46.0951 66.7146 45.6226 67.5472 44.9916C68.6977 44.1201 69.2384 42.6645 68.9095 41.212C68.6613 40.1153 67.8871 39.2093 66.8943 38.681L59.2005 34.5861C55.1677 32.4398 50.5268 31.7228 46.0343 32.5523L36.8907 34.2405C36.577 34.2985 36.3064 34.4959 36.1559 34.7771L35.3079 36.3596C35.1487 36.6559 35.4037 37.0049 35.7346 36.9439L46.4796 34.962C50.4275 34.2329 54.5061 34.8631 58.0496 36.7495L65.7968 40.8732C66.2015 41.0885 66.5089 41.4803 66.549 41.9369C66.5877 42.3754 66.4115 42.779 66.0678 43.0385C63.9059 44.6764 61.9043 44.9299 60.1198 43.7915L53.1855 40.2419C52.5989 39.9414 51.88 40.1646 51.5666 40.7444L51.5552 40.7656C51.2316 41.3647 51.4639 42.112 52.0695 42.422L58.8435 45.8837C59.1209 46.058 59.404 46.2058 59.6905 46.3369L59.6901 46.3373L77.2221 55.7333C78.373 56.3498 78.8069 57.7822 78.1918 58.9339L78.1577 58.9975C77.5434 60.1484 76.1118 60.5819 74.9617 59.9657L58.393 51.0862C57.8575 50.7994 57.1909 51.0006 56.9041 51.5357L56.7855 51.7574C56.4986 52.2924 56.6994 52.959 57.2349 53.2459L73.8013 62.1238L76.7693 63.7143C77.9197 64.3308 78.3532 65.7633 77.7378 66.9141L77.7034 66.9785C77.0876 68.129 75.6555 68.5625 74.5058 67.9464L71.722 66.4545L56.5607 58.3291L54.9688 57.4761C54.4333 57.1888 53.7664 57.3908 53.4795 57.9259L53.3609 58.1476C53.0741 58.6826 53.2753 59.3492 53.8103 59.6357L55.4031 60.4891L70.5644 68.6141C71.6205 69.1802 72.0195 70.4944 71.4564 71.5521L71.4215 71.6176C70.8577 72.6764 69.5412 73.0762 68.4836 72.5097L64.1878 70.2072L51.7826 63.5593L51.7731 63.554C51.2418 63.2637 50.5753 63.4619 50.2892 63.9955L50.1637 64.2293C49.8769 64.7644 50.0796 65.4294 50.6154 65.714L50.6257 65.7193L63.0305 72.3672C63.8767 72.8204 64.192 73.8826 63.6978 74.7788C63.2367 75.6159 62.1544 75.8849 61.3116 75.4336L38.685 63.3081C36.3867 62.0765 34.3908 60.35 32.8405 58.2537L27.8399 51.5073C27.6645 51.2708 27.3026 51.2973 27.1635 51.5569L26.5015 52.7923C26.3101 53.15 26.3416 53.5862 26.583 53.9121L30.87 59.7096C32.6363 62.0981 34.9107 64.0652 37.5293 65.4684L60.2127 77.6247C62.2434 78.713 64.7805 77.9464 65.8969 75.8637C66.1883 75.3203 66.3425 74.7405 66.3793 74.1619L67.3134 74.6625C69.5658 75.8694 72.3704 75.0251 73.5812 72.7745L73.6138 72.7143C74.001 71.992 74.1735 71.2114 74.1579 70.4452C76.3251 71.1371 78.7508 70.2121 79.863 68.1362Z" fill="white"/>
<path fill-rule="evenodd" clip-rule="evenodd" d="M88.4632 52.4058C88.6368 49.6819 87.3468 47.0645 85.1285 45.5245C85.4404 39.7558 81.0313 34.7821 75.2527 34.4134C72.815 34.2587 70.5314 34.9556 68.6632 36.2285C67.8102 36.9224 68.8614 37.711 68.8671 37.7238C68.8671 37.7238 68.8743 37.7322 68.8766 37.7348C68.9372 37.7864 68.9933 37.8409 69.0513 37.894C69.2972 38.0831 69.7826 38.3195 70.4666 37.9755L70.4708 37.9808C71.8195 37.1801 73.4084 36.7518 75.0974 36.8591C79.5606 37.1437 82.9609 41.0074 82.6771 45.4718C82.668 45.6094 82.6494 45.7439 82.6316 45.8784L82.6142 46.011C82.5494 46.5078 82.7964 46.9929 83.236 47.2324L83.2436 47.2362C85.0599 48.2256 86.1486 50.1935 86.0175 52.2497C85.9648 53.0731 85.7257 53.8568 85.3055 54.5787L85.2998 54.5889C84.9966 55.1103 85.1228 55.7758 85.5965 56.1494L85.6052 56.1562C86.7345 57.0471 87.3533 58.4318 87.2627 59.8608C87.1191 62.1038 85.2876 63.8723 83.0568 63.9421C82.1318 64.0717 82.3375 65.0391 82.3375 65.0391L82.3345 65.0334C82.3474 65.1426 82.3531 65.2517 82.3607 65.3612L82.366 65.3449C82.366 65.3449 82.3326 66.2548 83.3338 66.3753C86.7246 66.1665 89.4887 63.4525 89.7081 60.0166C89.829 58.1241 89.1525 56.282 87.8709 54.9182C88.2086 54.1201 88.4071 53.2793 88.4632 52.4058Z" fill="#FF000B"/>
<path fill-rule="evenodd" clip-rule="evenodd" d="M34.4395 29.0549L45.1842 27.0734C49.1321 26.3446 53.2107 26.9745 56.7546 28.8605L64.5018 32.9846C64.9069 33.1998 65.2138 33.5924 65.2536 34.049C65.2741 34.2821 65.2297 34.5034 65.1358 34.7001L65.1384 34.7012C64.7807 35.2499 65.3396 35.6899 65.3396 35.6899L66.2404 36.1689C66.6102 36.3659 67.087 36.2469 67.2825 35.8767C67.6921 35.1021 67.8229 34.187 67.6023 33.2722C67.3435 32.196 66.5761 31.3123 65.5992 30.7924L57.9054 26.6974C53.8727 24.5511 49.2321 23.8341 44.7393 24.6636L35.5957 26.3518C35.2819 26.4098 35.0117 26.6073 34.8609 26.8881L34.0128 28.4709C33.854 28.7673 34.1087 29.1159 34.4395 29.0549Z" fill="white"/>
</svg>
