<svg width="30" height="30" viewBox="0 0 30 30" fill="none" xmlns="http://www.w3.org/2000/svg">
<mask id="mask0" mask-type="alpha" maskUnits="userSpaceOnUse" x="10" y="5" width="20" height="20">
<path fill-rule="evenodd" clip-rule="evenodd" d="M21.7067 5V7.04253L26.5115 7.04243L18.9301 14.6238L20.3744 16.068L27.9558 8.48667L27.9557 13.2915H29.9982V10.5277L29.9982 5.00003L21.7067 5ZM10 25L26.4803 24.9976V12.8214L24.4384 14.8633L24.4383 22.9556L12.042 22.958V10.5593L20.1319 10.5617L22.1739 8.51967L10.0001 8.51733L10 25Z" fill="white"/>
</mask>
<g mask="url(#mask0)">
<path fill-rule="evenodd" clip-rule="evenodd" d="M21.7067 5V7.04253L26.5115 7.04243L18.9301 14.6238L20.3744 16.068L27.9558 8.48667L27.9557 13.2915H29.9982V10.5277L29.9982 5.00003L21.7067 5ZM10 25L26.4803 24.9976V12.8214L24.4384 14.8633L24.4383 22.9556L12.042 22.958V10.5593L20.1319 10.5617L22.1739 8.51967L10.0001 8.51733L10 25Z" fill="white"/>
</g>
</svg>
