<svg width="242" height="200" viewBox="0 0 242 200" fill="none" xmlns="http://www.w3.org/2000/svg">
<g opacity="0.82">
<path opacity="0.82" d="M113.709 62.6533C136.332 62.6533 154.7 81.0212 154.7 103.644C154.7 126.267 136.332 144.634 113.709 144.634C91.0866 144.634 72.7188 126.267 72.7188 103.644C72.7188 81.0212 91.0866 62.6533 113.709 62.6533Z" stroke="#BDF1ED" stroke-width="10"/>
</g>
<g opacity="0.61">
<path opacity="0.61" d="M113.71 47.6255C144.816 47.6255 170.072 72.8813 170.072 103.988C170.072 135.094 144.816 160.35 113.71 160.35C82.6035 160.35 57.3477 135.094 57.3477 103.988C57.3477 72.8813 82.6035 47.6255 113.71 47.6255Z" stroke="#BDF1ED" stroke-width="10"/>
</g>
<g opacity="0.41">
<path opacity="0.41" d="M114.052 31.0581C154.113 31.0581 186.639 63.5846 186.639 103.646C186.639 143.707 154.113 176.233 114.052 176.233C73.9906 176.233 41.4641 143.707 41.4641 103.646C41.4641 63.5846 73.9906 31.0581 114.052 31.0581Z" stroke="#BDF1ED" stroke-width="10"/>
</g>
<g opacity="0.2">
<path opacity="0.2" d="M114.052 13.1245C164.01 13.1245 204.572 53.6869 204.572 103.645C204.572 153.604 164.01 194.166 114.052 194.166C64.0932 194.166 23.5308 153.604 23.5308 103.645C23.5308 53.6869 64.0932 13.1245 114.052 13.1245Z" stroke="#BDF1ED" stroke-width="10"/>
</g>
<path d="M139.561 60.1144H89.3478V148.244H139.561V60.1144Z" fill="white"/>
<path d="M142.357 132.842V132.709C142.296 132.001 141.804 131.325 140.861 131.325H88.4239C87.6349 131.325 86.9893 131.93 86.9175 132.698L86.9073 132.842C86.9073 133.672 87.5836 134.348 88.4239 134.348H140.861C141.804 134.348 142.296 133.682 142.347 132.975L142.357 132.842ZM117.187 140.521C117.187 138.677 115.691 137.181 113.846 137.181C112.063 137.181 110.598 138.574 110.506 140.337L110.495 140.521C110.495 142.376 111.991 143.872 113.846 143.872C115.691 143.872 117.187 142.376 117.187 140.521ZM89.9283 67.0427C89.9283 63.497 92.8181 60.6072 96.3638 60.6072H132.917C136.463 60.6072 139.353 63.497 139.353 67.0427V141.502C139.353 145.048 136.463 147.938 132.917 147.938H96.3638C92.8181 147.938 89.9283 145.048 89.9283 141.502V67.0427ZM89.9201 133.034L89.8996 133.157C89.6229 134.736 87.225 134.725 86.938 133.157L86.9278 133.034L86.938 132.911C87.061 132.266 87.6041 131.764 88.2805 131.702L88.4239 131.692C89.1618 131.692 89.7664 132.215 89.8996 132.911L89.9201 133.034ZM86.9104 141.498C86.9104 146.714 91.1529 150.957 96.3689 150.957H132.912C138.128 150.957 142.371 146.714 142.371 141.498V67.0488C142.371 61.8328 138.128 57.5903 132.912 57.5903H96.3689C91.2451 57.5903 87.0641 61.6791 86.9206 66.7721L86.9104 67.0488V141.498Z" fill="#414958"/>
<path d="M114.357 102.965C122.279 102.965 128.704 109.391 128.704 117.312H100.01C100.01 109.391 106.436 102.965 114.357 102.965Z" fill="#B9141B"/>
<path d="M122.808 91.608C122.808 96.4141 118.903 100.318 114.097 100.318C109.291 100.318 105.387 96.4141 105.387 91.608C105.387 86.8018 109.291 82.8975 114.097 82.8975C118.903 82.8975 122.808 86.8018 122.808 91.608Z" fill="#E8E8E8"/>
<path d="M43.7497 73.5103C54.3902 73.5103 63.0295 82.1495 63.0295 92.79C63.0295 103.43 54.3902 112.07 43.7497 112.07C33.1092 112.07 24.47 103.43 24.47 92.79C24.47 82.1495 33.1092 73.5103 43.7497 73.5103Z" fill="#83EFE6"/>
<path d="M43.7497 73.5103C54.3902 73.5103 63.0295 82.1495 63.0295 92.79C63.0295 103.43 54.3902 112.07 43.7497 112.07C33.1092 112.07 24.47 103.43 24.47 92.79C24.47 82.1495 33.1092 73.5103 43.7497 73.5103Z" stroke="white" stroke-width="10"/>
<path d="M43.7502 93.1489C38.6571 93.1489 34.5273 97.1148 34.5273 102.013H52.9731C52.9731 97.1148 48.8433 93.1489 43.7502 93.1489Z" fill="white"/>
<path d="M37.8218 85.8712C37.8218 88.843 40.3325 91.2512 43.417 91.2512C46.5118 91.2512 49.0225 88.843 49.0225 85.8712C49.0225 82.8994 46.5118 80.4912 43.417 80.4912C40.3325 80.4912 37.8218 82.8994 37.8218 85.8712Z" fill="white"/>
<path d="M202.128 53.7729C213.59 53.7729 222.896 63.0795 222.896 74.5418C222.896 86.0042 213.59 95.3107 202.128 95.3107C190.665 95.3107 181.359 86.0042 181.359 74.5418C181.359 63.0795 190.665 53.7729 202.128 53.7729Z" fill="#83EFE6"/>
<path d="M202.128 53.7729C213.59 53.7729 222.896 63.0795 222.896 74.5418C222.896 86.0042 213.59 95.3107 202.128 95.3107C190.665 95.3107 181.359 86.0042 181.359 74.5418C181.359 63.0795 190.665 53.7729 202.128 53.7729Z" stroke="white" stroke-width="10"/>
<path d="M202.469 76.2686C197.376 76.2686 193.246 80.2344 193.246 85.1328H211.692C211.692 80.2344 207.562 76.2686 202.469 76.2686Z" fill="white"/>
<path d="M196.541 68.9913C196.541 71.9632 199.051 74.3714 202.136 74.3714C205.231 74.3714 207.741 71.9632 207.741 68.9913C207.741 66.0195 205.231 63.6113 202.136 63.6113C199.051 63.6113 196.541 66.0195 196.541 68.9913Z" fill="white"/>
<path d="M180.59 122.361C186.677 122.361 191.619 127.303 191.619 133.39C191.619 139.478 186.677 144.42 180.59 144.42C174.503 144.42 169.56 139.478 169.56 133.39C169.56 127.303 174.503 122.361 180.59 122.361Z" fill="#83EFE6"/>
<path d="M180.59 122.361C186.677 122.361 191.619 127.303 191.619 133.39C191.619 139.478 186.677 144.42 180.59 144.42C174.503 144.42 169.56 139.478 169.56 133.39C169.56 127.303 174.503 122.361 180.59 122.361Z" stroke="white" stroke-width="10"/>
<path d="M53.7842 140.631C58.1206 140.631 61.6414 144.152 61.6414 148.489C61.6414 152.825 58.1206 156.346 53.7842 156.346C49.4478 156.346 45.927 152.825 45.927 148.489C45.927 144.152 49.4478 140.631 53.7842 140.631Z" fill="#83EFE6"/>
<path d="M53.7842 140.631C58.1206 140.631 61.6414 144.152 61.6414 148.489C61.6414 152.825 58.1206 156.346 53.7842 156.346C49.4478 156.346 45.927 152.825 45.927 148.489C45.927 144.152 49.4478 140.631 53.7842 140.631Z" stroke="white" stroke-width="10"/>
<path d="M10.4049 111.206C7.41981 111.206 5 113.625 5 116.611C5 119.596 7.41981 122.015 10.4049 122.015C13.3901 122.015 15.8099 119.596 15.8099 116.611C15.8099 113.625 13.3901 111.206 10.4049 111.206Z" fill="#83EFE6"/>
<path d="M10.4049 111.206C7.41981 111.206 5 113.625 5 116.611C5 119.596 7.41981 122.015 10.4049 122.015C13.3901 122.015 15.8099 119.596 15.8099 116.611C15.8099 113.625 13.3901 111.206 10.4049 111.206Z" stroke="white" stroke-width="10"/>
<path d="M225.168 96.9077C221.395 96.9077 218.337 99.9661 218.337 103.739C218.337 107.512 221.395 110.571 225.168 110.571C228.941 110.571 232 107.512 232 103.739C232 99.9661 228.941 96.9077 225.168 96.9077Z" fill="#83EFE6"/>
<path d="M225.168 96.9077C221.395 96.9077 218.337 99.9661 218.337 103.739C218.337 107.512 221.395 110.571 225.168 110.571C228.941 110.571 232 107.512 232 103.739C232 99.9661 228.941 96.9077 225.168 96.9077Z" stroke="white" stroke-width="19.8877"/>
<path d="M145.71 29.981C141.473 29.981 138.038 33.416 138.038 37.6534C138.038 41.8908 141.473 45.3258 145.71 45.3258C149.948 45.3258 153.383 41.8908 153.383 37.6534C153.383 33.416 149.948 29.981 145.71 29.981Z" fill="#83EFE6"/>
<path d="M145.71 29.981C141.473 29.981 138.038 33.416 138.038 37.6534C138.038 41.8908 141.473 45.3258 145.71 45.3258C149.948 45.3258 153.383 41.8908 153.383 37.6534C153.383 33.416 149.948 29.981 145.71 29.981Z" stroke="white" stroke-width="10"/>
<path d="M151.422 56.8092C153.503 58.0111 156.147 57.3312 157.326 55.2894L149.786 50.9358C148.607 52.9776 149.34 55.6073 151.422 56.8092ZM169.109 55.4913C168.663 53.6348 167.573 50.6008 170.985 44.692C173.576 40.204 172.439 34.7575 168.618 31.3764L169.313 30.1726C169.903 29.152 169.537 27.837 168.496 27.2361C167.455 26.6352 166.133 26.9756 165.544 27.9962L164.849 29.1999C160.01 27.5816 154.725 29.3204 152.134 33.8084C148.722 39.7172 145.55 40.291 143.719 40.8326C143.151 41.001 142.737 41.3558 142.488 41.7936C141.948 42.7446 142.186 44.0836 143.313 44.7342L165.933 57.7943C167.06 58.4449 168.34 57.9821 168.892 57.0382C169.147 56.6039 169.248 56.0674 169.109 55.4913Z" fill="white"/>
<path d="M124.662 80.9968L121.007 82.5945C121.871 84.5715 123.792 85.783 125.885 85.783C136.705 85.783 145.069 81.2637 149.935 77.7968C155.242 79.5317 161.02 80.5128 167.083 80.5128C191.931 80.5128 213.611 64.1535 213.611 42.2564C213.611 20.3593 191.931 4 167.083 4C142.236 4 120.556 20.3593 120.556 42.2564C120.556 50.8129 123.959 58.5973 129.52 64.8399C128.515 67.6138 126.953 70.2859 125.437 72.4753C123.833 74.7921 122.43 76.355 122.147 76.6692C122.1 76.7224 122.084 76.7398 122.105 76.719L122.073 76.7503L122.043 76.7823C120.533 78.3472 120.153 80.6421 121.007 82.5945L124.662 80.9968ZM124.662 80.9968L124.665 80.9958L124.662 80.9968ZM127.8 82.337L127.799 82.3367C127.816 82.3198 127.834 82.3004 127.855 82.2785C127.837 82.2982 127.818 82.3177 127.8 82.337Z" fill="#D90009" stroke="white" stroke-width="8"/>
<path d="M171.695 52.0969C171.695 54.7162 169.473 56.8471 166.742 56.8471C164.011 56.8471 161.789 54.7162 161.789 52.0969C161.789 49.4777 164.011 47.3467 166.742 47.3467C169.473 47.3467 171.695 49.4777 171.695 52.0969ZM162.362 27.9421L163.204 44.0928C163.244 44.8512 163.897 45.4466 164.688 45.4466H168.796C169.588 45.4466 170.24 44.8512 170.28 44.0928L171.122 27.9421C171.164 27.128 170.488 26.4458 169.638 26.4458H163.846C162.997 26.4458 162.32 27.128 162.362 27.9421Z" fill="white"/>
</svg>
