<svg width="20" height="18" viewBox="0 0 20 18" fill="none" xmlns="http://www.w3.org/2000/svg">
<path d="M3.33333 4.5C3.77285 4.5 4.20249 4.36804 4.56793 4.12081C4.93338 3.87357 5.2182 3.52217 5.3864 3.11104C5.55459 2.6999 5.5986 2.24751 5.51286 1.81105C5.42711 1.37459 5.21547 0.973679 4.90468 0.659011C4.5939 0.344343 4.19794 0.130051 3.76687 0.0432341C3.3358 -0.0435826 2.88898 0.000974882 2.48293 0.171272C2.07687 0.341569 1.7298 0.629957 1.48562 0.999968C1.24144 1.36998 1.11111 1.80499 1.11111 2.25C1.11111 2.84674 1.34524 3.41903 1.76199 3.84099C2.17873 4.26295 2.74396 4.5 3.33333 4.5ZM3.33333 10.6903C3.33284 10.4801 3.37457 10.2719 3.45598 10.0785C3.5374 9.88515 3.65681 9.71054 3.80694 9.56531L6.31146 7.17188C6.36875 7.11738 6.44236 7.09066 6.50625 7.04637C6.34284 6.62753 6.0589 6.26807 5.69125 6.01462C5.32361 5.76117 4.88922 5.62543 4.44444 5.625H2.22222C1.63285 5.625 1.06762 5.86205 0.650874 6.28401C0.234126 6.70597 0 7.27826 0 7.875L0 11.25C0 11.5484 0.117063 11.8345 0.325437 12.0455C0.533811 12.2565 0.816426 12.375 1.11111 12.375V16.875C1.11111 17.1734 1.22817 17.4595 1.43655 17.6705C1.64492 17.8815 1.92754 18 2.22222 18H4.44444C4.73913 18 5.02174 17.8815 5.23012 17.6705C5.43849 17.4595 5.55556 17.1734 5.55556 16.875V13.4863L3.80694 11.8153C3.65676 11.6701 3.53732 11.4955 3.4559 11.3021C3.37448 11.1087 3.33278 10.9006 3.33333 10.6903ZM16.6667 4.5C17.1062 4.5 17.5358 4.36804 17.9013 4.12081C18.2667 3.87357 18.5515 3.52217 18.7197 3.11104C18.8879 2.6999 18.9319 2.24751 18.8462 1.81105C18.7604 1.37459 18.5488 0.973679 18.238 0.659011C17.9272 0.344343 17.5313 0.130051 17.1002 0.0432341C16.6691 -0.0435826 16.2223 0.000974882 15.8163 0.171272C15.4102 0.341569 15.0631 0.629957 14.819 0.999968C14.5748 1.36998 14.4444 1.80499 14.4444 2.25C14.4444 2.84674 14.6786 3.41903 15.0953 3.84099C15.5121 4.26295 16.0773 4.5 16.6667 4.5ZM17.7778 5.625H15.5556C15.1108 5.6254 14.6765 5.76109 14.3088 6.01447C13.9412 6.26786 13.6572 6.62724 13.4938 7.04602C13.5576 7.09066 13.6326 7.11633 13.6889 7.17223L16.1931 9.56496C16.3427 9.71053 16.4618 9.88521 16.5432 10.0785C16.6245 10.2719 16.6665 10.4798 16.6665 10.69C16.6665 10.9001 16.6245 11.1081 16.5432 11.3014C16.4618 11.4947 16.3427 11.6694 16.1931 11.815L14.4444 13.4866V16.875C14.4444 17.1734 14.5615 17.4595 14.7699 17.6705C14.9783 17.8815 15.2609 18 15.5556 18H17.7778C18.0725 18 18.3551 17.8815 18.5635 17.6705C18.7718 17.4595 18.8889 17.1734 18.8889 16.875V12.375C19.1836 12.375 19.4662 12.2565 19.6746 12.0455C19.8829 11.8345 20 11.5484 20 11.25V7.875C20 7.27826 19.7659 6.70597 19.3491 6.28401C18.9324 5.86205 18.3671 5.625 17.7778 5.625ZM15.4306 10.383L12.9264 7.99031C12.8673 7.93326 12.7929 7.89505 12.7125 7.88044C12.6322 7.86582 12.5493 7.87544 12.4743 7.9081C12.3993 7.94076 12.3354 7.99503 12.2906 8.06414C12.2458 8.13326 12.222 8.21419 12.2222 8.29688V9.5625H7.77778V8.29688C7.77808 8.21416 7.75436 8.13319 7.70957 8.06401C7.66478 7.99484 7.6009 7.94052 7.52586 7.90782C7.45083 7.87511 7.36795 7.86547 7.28754 7.88007C7.20713 7.89467 7.13274 7.93289 7.07361 7.98996L4.56944 10.383C4.4894 10.4647 4.44448 10.5751 4.44448 10.6901C4.44448 10.8052 4.4894 10.9156 4.56944 10.9972L7.07361 13.3903C7.13276 13.4474 7.20719 13.4856 7.28763 13.5002C7.36807 13.5148 7.45097 13.5051 7.52602 13.4724C7.60107 13.4396 7.66495 13.3853 7.70972 13.316C7.75448 13.2468 7.77815 13.1658 7.77778 13.083V11.8125H12.2222V13.083C12.2219 13.1658 12.2455 13.2468 12.2903 13.316C12.335 13.3853 12.3989 13.4396 12.474 13.4724C12.549 13.5051 12.6319 13.5148 12.7124 13.5002C12.7928 13.4856 12.8672 13.4474 12.9264 13.3903L15.4306 10.9972C15.5106 10.9156 15.5555 10.8052 15.5555 10.6901C15.5555 10.5751 15.5106 10.4647 15.4306 10.383Z" fill="white"/>
</svg>
