<svg width="14" height="14" viewBox="0 0 14 14" fill="none" xmlns="http://www.w3.org/2000/svg">
<path d="M12.049 13.6563L12.1584 11.393C11.5231 12.1425 10.7321 12.7444 9.84039 13.1568C8.9487 13.5693 7.97781 13.7824 6.99535 13.7813C3.68402 13.7813 0.927227 11.4045 0.336056 8.26273C0.32731 8.2154 0.329088 8.16671 0.341263 8.12014C0.353437 8.07357 0.37571 8.03024 0.406502 7.99324C0.437294 7.95624 0.475851 7.92646 0.519438 7.90603C0.563024 7.88559 0.610573 7.875 0.658712 7.875L1.99992 7.875C2.07386 7.87508 2.1456 7.90013 2.20352 7.94609C2.26144 7.99204 2.30214 8.05622 2.31902 8.1282C2.53776 9.03597 3.01597 9.86045 3.69533 10.501C4.37469 11.1416 5.22581 11.5706 6.14485 11.7357C7.06389 11.9008 8.01111 11.7948 8.87093 11.4307C9.73076 11.0666 10.466 10.4601 10.987 9.68516L8.21269 9.81805C8.16831 9.82016 8.12396 9.81323 8.08233 9.79769C8.04071 9.78215 8.00267 9.75831 7.97053 9.72763C7.93839 9.69695 7.91282 9.66006 7.89536 9.6192C7.87791 9.57834 7.86893 9.53436 7.86898 9.48992L7.86898 8.19355C7.86898 8.10653 7.90355 8.02307 7.96509 7.96154C8.02662 7.9 8.11008 7.86543 8.19711 7.86543L13.6719 7.86543C13.7589 7.86543 13.8424 7.9 13.9039 7.96154C13.9654 8.02307 14 8.10653 14 8.19356L14 13.6719C14 13.7589 13.9654 13.8424 13.9039 13.9039C13.8424 13.9654 13.7589 14 13.6719 14L12.3766 14C12.3322 14 12.2883 13.9909 12.2475 13.9735C12.2067 13.956 12.1699 13.9304 12.1392 13.8983C12.1086 13.8661 12.0848 13.8281 12.0693 13.7865C12.0538 13.7449 12.0469 13.7006 12.049 13.6563ZM6.99535 2.1875C6.20636 2.18682 5.42936 2.38057 4.73306 2.75162C4.03676 3.12266 3.44261 3.65956 3.00317 4.31484L5.78676 4.18168C5.83114 4.17957 5.87549 4.18649 5.91712 4.20204C5.95874 4.21758 5.99678 4.24141 6.02892 4.2721C6.06106 4.30278 6.08663 4.33967 6.10409 4.38053C6.12154 4.42139 6.13052 4.46537 6.13047 4.5098L6.13047 5.8059C6.13047 5.89292 6.0959 5.97638 6.03436 6.03792C5.97283 6.09945 5.88937 6.13402 5.80234 6.13402L0.328126 6.13402C0.241102 6.13402 0.157642 6.09945 0.096107 6.03792C0.0345716 5.97638 1.41749e-06 5.89292 1.4327e-06 5.8059L2.39047e-06 0.328122C2.40568e-06 0.241098 0.0345726 0.157638 0.096108 0.0961027C0.157643 0.0345669 0.241103 -2.81887e-06 0.328127 -2.80365e-06L1.62285 -2.57727e-06C1.66736 -5.78826e-05 1.71141 0.00894004 1.75233 0.0264466C1.79325 0.0439533 1.83018 0.0696004 1.86087 0.101829C1.89157 0.134057 1.91538 0.172194 1.93087 0.213917C1.94636 0.25564 1.9532 0.300079 1.95098 0.344529L1.8375 2.6023C2.47267 1.85441 3.26307 1.25378 4.15378 0.842169C5.04448 0.430553 6.01414 0.217819 6.99535 0.218748C10.307 0.218749 13.0637 2.59547 13.6549 5.73727C13.6637 5.7846 13.6619 5.83329 13.6497 5.87986C13.6375 5.92643 13.6153 5.96976 13.5845 6.00676C13.5537 6.04376 13.5151 6.07354 13.4715 6.09397C13.428 6.11441 13.3804 6.125 13.3323 6.125L11.9911 6.125C11.9171 6.12492 11.8454 6.09987 11.7875 6.05391C11.7295 6.00795 11.6888 5.94378 11.672 5.8718C11.4194 4.82172 10.8208 3.88724 9.97239 3.21888C9.12402 2.55053 8.07536 2.18722 6.99535 2.1875Z" fill="#949494"/>
</svg>
