<svg width="15" height="20" viewBox="0 0 15 20" fill="none" xmlns="http://www.w3.org/2000/svg">
<path d="M14.7266 4.10156L10.9023 0.273438C10.7266 0.0976562 10.4883 0 10.2383 0H10V5H15V4.76172C15 4.51562 14.9023 4.27734 14.7266 4.10156ZM8.75 5.3125V0H0.9375C0.417969 0 0 0.417969 0 0.9375V19.0625C0 19.582 0.417969 20 0.9375 20H14.0625C14.582 20 15 19.582 15 19.0625V6.25H9.6875C9.17188 6.25 8.75 5.82812 8.75 5.3125ZM11.25 11.5625V13.4375C11.25 13.6094 11.1094 13.75 10.9375 13.75H8.75V15.9375C8.75 16.1094 8.60938 16.25 8.4375 16.25H6.5625C6.39062 16.25 6.25 16.1094 6.25 15.9375V13.75H4.0625C3.89062 13.75 3.75 13.6094 3.75 13.4375V11.5625C3.75 11.3906 3.89062 11.25 4.0625 11.25H6.25V9.0625C6.25 8.89062 6.39062 8.75 6.5625 8.75H8.4375C8.60938 8.75 8.75 8.89062 8.75 9.0625V11.25H10.9375C11.1094 11.25 11.25 11.3906 11.25 11.5625Z" fill="white"/>
</svg>
