<svg width="13" height="15" viewBox="0 0 13 15" fill="none" xmlns="http://www.w3.org/2000/svg">
<path d="M4.29464 8.4375H3.13393C2.94241 8.4375 2.78571 8.2793 2.78571 8.08594V6.91406C2.78571 6.7207 2.94241 6.5625 3.13393 6.5625H4.29464C4.48616 6.5625 4.64286 6.7207 4.64286 6.91406V8.08594C4.64286 8.2793 4.48616 8.4375 4.29464 8.4375ZM7.42857 8.08594V6.91406C7.42857 6.7207 7.27187 6.5625 7.08036 6.5625H5.91964C5.72812 6.5625 5.57143 6.7207 5.57143 6.91406V8.08594C5.57143 8.2793 5.72812 8.4375 5.91964 8.4375H7.08036C7.27187 8.4375 7.42857 8.2793 7.42857 8.08594ZM10.2143 8.08594V6.91406C10.2143 6.7207 10.0576 6.5625 9.86607 6.5625H8.70536C8.51384 6.5625 8.35714 6.7207 8.35714 6.91406V8.08594C8.35714 8.2793 8.51384 8.4375 8.70536 8.4375H9.86607C10.0576 8.4375 10.2143 8.2793 10.2143 8.08594ZM7.42857 10.8984V9.72656C7.42857 9.5332 7.27187 9.375 7.08036 9.375H5.91964C5.72812 9.375 5.57143 9.5332 5.57143 9.72656V10.8984C5.57143 11.0918 5.72812 11.25 5.91964 11.25H7.08036C7.27187 11.25 7.42857 11.0918 7.42857 10.8984ZM4.64286 10.8984V9.72656C4.64286 9.5332 4.48616 9.375 4.29464 9.375H3.13393C2.94241 9.375 2.78571 9.5332 2.78571 9.72656V10.8984C2.78571 11.0918 2.94241 11.25 3.13393 11.25H4.29464C4.48616 11.25 4.64286 11.0918 4.64286 10.8984ZM10.2143 10.8984V9.72656C10.2143 9.5332 10.0576 9.375 9.86607 9.375H8.70536C8.51384 9.375 8.35714 9.5332 8.35714 9.72656V10.8984C8.35714 11.0918 8.51384 11.25 8.70536 11.25H9.86607C10.0576 11.25 10.2143 11.0918 10.2143 10.8984ZM13 3.28125V13.5938C13 14.3701 12.3761 15 11.6071 15H1.39286C0.623884 15 0 14.3701 0 13.5938V3.28125C0 2.50488 0.623884 1.875 1.39286 1.875H2.78571V0.351562C2.78571 0.158203 2.94241 0 3.13393 0H4.29464C4.48616 0 4.64286 0.158203 4.64286 0.351562V1.875H8.35714V0.351562C8.35714 0.158203 8.51384 0 8.70536 0H9.86607C10.0576 0 10.2143 0.158203 10.2143 0.351562V1.875H11.6071C12.3761 1.875 13 2.50488 13 3.28125ZM11.6071 13.418V4.6875H1.39286V13.418C1.39286 13.5146 1.47121 13.5938 1.56696 13.5938H11.433C11.5288 13.5938 11.6071 13.5146 11.6071 13.418Z" fill="#949494"/>
</svg>
