<svg width="32" height="32" viewBox="0 0 32 32" fill="none" xmlns="http://www.w3.org/2000/svg">
<path fill-rule="evenodd" clip-rule="evenodd" d="M6 9C6 8.44772 6.44772 8 7 8H31C31.5523 8 32 8.44772 32 9V9.93878C32 10.4911 31.5523 10.9388 31 10.9388H7C6.44772 10.9388 6 10.4911 6 9.93878V9ZM6 23C6 22.4477 6.44772 22 7 22H31C31.5523 22 32 22.4477 32 23V23.9388C32 24.4911 31.5523 24.9388 31 24.9388H7C6.44772 24.9388 6 24.4911 6 23.9388V23ZM7 15C6.44772 15 6 15.4477 6 16V16.9388C6 17.4911 6.44772 17.9388 7 17.9388H31C31.5523 17.9388 32 17.4911 32 16.9388V16C32 15.4477 31.5523 15 31 15H7Z" fill="white"/>
<mask id="mask0" mask-type="alpha" maskUnits="userSpaceOnUse" x="6" y="8" width="26" height="17">
<path fill-rule="evenodd" clip-rule="evenodd" d="M6 9C6 8.44772 6.44772 8 7 8H31C31.5523 8 32 8.44772 32 9V9.93878C32 10.4911 31.5523 10.9388 31 10.9388H7C6.44772 10.9388 6 10.4911 6 9.93878V9ZM6 23C6 22.4477 6.44772 22 7 22H31C31.5523 22 32 22.4477 32 23V23.9388C32 24.4911 31.5523 24.9388 31 24.9388H7C6.44772 24.9388 6 24.4911 6 23.9388V23ZM7 15C6.44772 15 6 15.4477 6 16V16.9388C6 17.4911 6.44772 17.9388 7 17.9388H31C31.5523 17.9388 32 17.4911 32 16.9388V16C32 15.4477 31.5523 15 31 15H7Z" fill="white"/>
</mask>
<g mask="url(#mask0)">
</g>
</svg>
