<svg width="16" height="16" viewBox="0 0 16 16" fill="none" xmlns="http://www.w3.org/2000/svg">
<path d="M0.75 0.25H15.25C15.66 0.25 16 0.59 16 1C16 1.41 15.66 1.75 15.25 1.75H0.75C0.34 1.75 0 1.41 0 1C0 0.59 0.34 0.25 0.75 0.25Z" fill="#343434"/>
<path d="M0.75 7.25H15.25C15.66 7.25 16 7.59 16 8C16 8.41 15.66 8.75 15.25 8.75H0.75C0.34 8.75 0 8.41 0 8C0 7.59 0.34 7.25 0.75 7.25Z" fill="#343434"/>
<path d="M0.75 14.25H15.25C15.66 14.25 16 14.59 16 15C16 15.41 15.66 15.75 15.25 15.75H0.75C0.34 15.75 0 15.41 0 15C0 14.59 0.34 14.25 0.75 14.25Z" fill="#343434"/>
</svg>
