<svg width="312" height="144" viewBox="0 0 312 144" fill="none" xmlns="http://www.w3.org/2000/svg">
<path fill-rule="evenodd" clip-rule="evenodd" d="M103.459 64.7427L119.6 59.8664C119.6 59.8664 120.312 63.5235 116.746 64.3412C113.18 65.1588 104.897 67.2307 104.897 67.2307L103.459 64.7427Z" fill="#E7E7E7"/>
<path fill-rule="evenodd" clip-rule="evenodd" d="M97.6302 75.6216L114.407 73.9102C114.407 73.9102 114.407 77.6358 110.75 77.759C107.093 77.8822 98.567 78.3379 98.567 78.3379L97.6302 75.6216Z" fill="#E7E7E7"/>
<path opacity="0.9" fill-rule="evenodd" clip-rule="evenodd" d="M57.8483 31.3147C57.8483 31.3147 58.3675 28.6166 55.142 38.8995C51.9165 49.1825 39.1563 92.3504 39.1563 92.3504C39.1563 92.3504 38.5806 101.962 45.8702 103.962C53.1597 105.961 79.1158 111.236 79.1158 111.236L51.2108 102.121L43.8649 96.9333L43.4127 91.0083L57.8483 31.3147Z" fill="#E5E5E5" stroke="#E5E5E5" stroke-width="3"/>
<path fill-rule="evenodd" clip-rule="evenodd" d="M86.0838 113.019L49.0605 103.099C43.7803 101.684 40.6373 96.2304 42.0541 90.943L62.2854 15.4385C63.7024 10.1503 69.151 6.99909 74.4312 8.41391L111.455 18.3343C116.734 19.7489 119.877 25.2023 118.46 30.4904L111.585 56.1482C111.043 58.1704 107.985 57.3543 108.528 55.3291L115.403 29.6713C116.368 26.0709 114.228 22.359 110.634 21.3959L73.6109 11.4755C70.0166 10.5124 66.3072 12.6572 65.3424 16.2576L45.111 91.7621C44.1465 95.3618 46.2866 99.0739 49.8809 100.037L86.9042 109.957C90.4984 110.92 94.2071 108.776 95.1717 105.176L97.4268 96.7595C97.6534 95.9137 98.5217 95.4122 99.3655 95.6382C100.21 95.8645 100.71 96.7328 100.484 97.5786L98.2286 105.995C96.8119 111.282 91.3632 114.434 86.0838 113.019Z" fill="white"/>
<path fill-rule="evenodd" clip-rule="evenodd" d="M86.0838 113.019L49.0605 103.099C43.7803 101.684 40.6373 96.2304 42.0541 90.943L62.2854 15.4385C63.7024 10.1503 69.151 6.99909 74.4312 8.41391L111.455 18.3343C116.734 19.7489 119.877 25.2023 118.46 30.4904C118.46 30.4904 116.329 38.4431 115.264 42.4194C114.037 46.9957 111.585 56.1482 111.585 56.1482C111.043 58.1704 107.985 57.3543 108.528 55.3291L115.403 29.6713C116.368 26.0709 114.228 22.359 110.634 21.3959L73.6109 11.4755C70.0166 10.5124 66.3072 12.6572 65.3424 16.2576L45.111 91.7621C44.1465 95.3618 46.2866 99.0739 49.8809 100.037L86.9042 109.957C90.4984 110.92 94.2071 108.776 95.1717 105.176L97.4268 96.7595C97.6534 95.9137 98.5217 95.4122 99.3655 95.6382C100.21 95.8645 100.71 96.7328 100.484 97.5786L98.2286 105.995C96.8119 111.282 91.3632 114.434 86.0838 113.019Z" stroke="white"/>
<path fill-rule="evenodd" clip-rule="evenodd" d="M74.6037 98.6059C74.1017 100.48 72.1775 101.592 70.3066 101.091C68.435 100.59 67.3251 98.6638 67.8271 96.7901C68.3294 94.9156 70.2535 93.8028 72.1252 94.3043C73.9961 94.8056 75.106 96.7314 74.6037 98.6059Z" fill="white"/>
<path fill-rule="evenodd" clip-rule="evenodd" d="M74.6037 98.6059C74.1017 100.48 72.1775 101.592 70.3066 101.091C68.435 100.59 67.3251 98.6638 67.8271 96.7901C68.3294 94.9156 70.2535 93.8028 72.1252 94.3043C73.9961 94.8056 75.106 96.7314 74.6037 98.6059Z" stroke="white"/>
<path fill-rule="evenodd" clip-rule="evenodd" d="M54.0499 122.242C53.5753 122.115 53.1674 121.769 52.9795 121.275C52.6688 120.457 53.0795 119.541 53.896 119.23C55.938 118.451 58.4594 118.123 61.1286 117.776C66.8243 117.035 73.9109 116.113 79.8981 110.316C80.5268 109.706 81.5279 109.724 82.1359 110.353C82.7439 110.982 82.7257 111.985 82.0974 112.594C75.357 119.12 67.6923 120.117 61.5341 120.918C58.9481 121.255 56.7143 121.546 55.021 122.191C54.6979 122.315 54.3594 122.325 54.0499 122.242Z" fill="white"/>
<path fill-rule="evenodd" clip-rule="evenodd" d="M54.0499 122.242C53.5753 122.115 53.1674 121.769 52.9795 121.275C52.6688 120.457 53.0795 119.541 53.896 119.23C55.938 118.451 58.4594 118.123 61.1286 117.776C66.8243 117.035 73.9109 116.113 79.8981 110.316C80.5268 109.706 81.5279 109.724 82.1359 110.353C82.7439 110.982 82.7257 111.985 82.0974 112.594C75.357 119.12 67.6923 120.117 61.5341 120.918C58.9481 121.255 56.7143 121.546 55.021 122.191C54.6979 122.315 54.3594 122.325 54.0499 122.242Z" stroke="white"/>
<path fill-rule="evenodd" clip-rule="evenodd" d="M28.7342 89.2172C27.9492 88.8329 27.6244 87.8837 28.0088 87.0974C29.966 83.0943 29.0495 71.3187 28.9339 67.3968C28.6375 57.2532 43.4604 47.8893 47.9717 31.7042C50.29 23.3851 61.7041 25.0678 60.3532 34.8356C60.0648 36.9207 56.9322 36.4661 57.2182 34.4024C58.0187 28.6144 52.3005 27.96 51.0202 32.5547C46.4286 49.0276 31.8541 58.9502 32.0974 67.3018C32.1159 67.9114 32.152 68.6848 32.1927 69.5751C32.4487 75.1007 32.8758 84.3498 30.8517 88.4892C30.4658 89.2784 29.5155 89.5996 28.7342 89.2172Z" fill="white"/>
<path fill-rule="evenodd" clip-rule="evenodd" d="M28.7342 89.2172C27.9492 88.8329 27.6244 87.8837 28.0088 87.0974C29.966 83.0943 29.0495 71.3187 28.9339 67.3968C28.6375 57.2532 43.4604 47.8893 47.9717 31.7042C50.29 23.3851 61.7041 25.0678 60.3532 34.8356C60.0648 36.9207 56.9322 36.4661 57.2182 34.4024C58.0187 28.6144 52.3005 27.96 51.0202 32.5547C46.4286 49.0276 31.8541 58.9502 32.0974 67.3018C32.1159 67.9114 32.152 68.6848 32.1927 69.5751C32.4487 75.1007 32.8758 84.3498 30.8517 88.4892C30.4658 89.2784 29.5155 89.5996 28.7342 89.2172Z" stroke="white"/>
<path fill-rule="evenodd" clip-rule="evenodd" d="M113.058 57.0717C106.422 59.1583 105.554 59.1234 104.684 60.7887C103.78 62.521 104.44 64.6249 106.167 65.5265C107.829 66.4001 108.538 65.865 115.158 63.7854C118.131 62.8494 118.504 58.7657 115.733 57.3153C114.898 56.8798 113.95 56.7924 113.058 57.0717ZM104.7 68.336C99.4445 65.5899 100.133 57.8129 105.796 56.034L112.111 54.0477C115.626 52.9436 119.381 54.9072 120.481 58.425C121.581 61.9429 119.618 65.7032 116.104 66.8085L109.788 68.7938C108.055 69.3376 106.249 69.1474 104.7 68.336Z" fill="white"/>
<path d="M113.058 57.0717L112.908 56.5946L112.908 56.5947L113.058 57.0717ZM104.684 60.7887L104.241 60.5572L104.241 60.5573L104.684 60.7887ZM106.167 65.5265L106.399 65.0839L106.398 65.0832L106.167 65.5265ZM115.158 63.7854L115.308 64.2625L115.308 64.2624L115.158 63.7854ZM115.733 57.3153L115.965 56.8723L115.964 56.8719L115.733 57.3153ZM104.7 68.336L104.932 67.8931L104.931 67.8929L104.7 68.336ZM105.796 56.034L105.946 56.511L105.946 56.511L105.796 56.034ZM112.111 54.0477L111.961 53.5707L111.961 53.5707L112.111 54.0477ZM120.481 58.425L120.004 58.5741L120.004 58.5742L120.481 58.425ZM116.104 66.8085L116.254 67.2855L116.254 67.2854L116.104 66.8085ZM109.788 68.7938L109.938 69.2709L109.938 69.2708L109.788 68.7938ZM112.908 56.5947C109.622 57.6279 107.701 58.1544 106.523 58.6237C105.922 58.8632 105.468 59.1046 105.101 59.4192C104.728 59.7385 104.475 60.1081 104.241 60.5572L105.127 61.0201C105.327 60.6366 105.509 60.3861 105.752 60.1784C105.999 59.966 106.339 59.7734 106.894 59.5527C108.026 59.1015 109.858 58.602 113.208 57.5487L112.908 56.5947ZM104.241 60.5573C103.209 62.5338 103.963 64.94 105.935 65.9697L106.398 65.0832C104.917 64.3098 104.351 62.5082 105.127 61.02L104.241 60.5573ZM105.934 65.9691C106.383 66.2052 106.803 66.3642 107.292 66.413C107.774 66.4609 108.287 66.3982 108.918 66.2502C110.154 65.9601 112.03 65.2921 115.308 64.2625L115.008 63.3084C111.666 64.3583 109.878 64.9976 108.689 65.2766C108.107 65.4131 107.717 65.4503 107.392 65.4179C107.074 65.3862 106.781 65.2846 106.399 65.0839L105.934 65.9691ZM115.308 64.2624C118.703 63.1932 119.132 58.5299 115.965 56.8723L115.501 57.7583C117.876 59.0014 117.558 62.5056 115.008 63.3085L115.308 64.2624ZM115.964 56.8719C115.014 56.3761 113.929 56.2751 112.908 56.5946L113.207 57.5489C113.971 57.3096 114.783 57.3836 115.502 57.7586L115.964 56.8719ZM104.931 67.8929C100.071 65.3531 100.708 58.1565 105.946 56.511L105.646 55.557C99.5588 57.4693 98.8181 65.8267 104.468 68.7792L104.931 67.8929ZM105.946 56.511L112.261 54.5247L111.961 53.5707L105.646 55.5571L105.946 56.511ZM112.261 54.5247C115.512 53.5035 118.987 55.3201 120.004 58.5741L120.958 58.2758C119.776 54.4943 115.74 52.3837 111.961 53.5707L112.261 54.5247ZM120.004 58.5742C121.022 61.8292 119.204 65.3091 115.954 66.3315L116.254 67.2854C120.031 66.0973 122.141 62.0567 120.958 58.2757L120.004 58.5742ZM115.954 66.3315L109.638 68.3168L109.938 69.2708L116.254 67.2855L115.954 66.3315ZM109.639 68.3168C108.035 68.8198 106.366 68.6444 104.932 67.8931L104.468 68.779C106.132 69.6504 108.075 69.8554 109.938 69.2709L109.639 68.3168Z" fill="white"/>
<path fill-rule="evenodd" clip-rule="evenodd" d="M108.661 70.229C101.588 70.543 100.815 70.2881 99.5633 71.6567C98.264 73.0756 98.3527 75.2544 99.7764 76.5596C101.147 77.817 101.936 77.4877 108.964 77.1756C112.016 77.0402 113.446 73.2428 111.155 71.1416C110.47 70.5134 109.586 70.1881 108.661 70.229ZM95.4878 74.2932C95.3276 70.6325 98.1726 67.5227 101.83 67.36L108.524 67.0626C112.178 66.8971 115.285 69.7461 115.444 73.4081C115.604 77.0688 112.759 80.1793 109.102 80.3414L102.407 80.6386C98.7714 80.8023 95.647 77.9725 95.4878 74.2932Z" fill="white"/>
<path d="M108.661 70.229L108.639 69.7294L108.639 69.7295L108.661 70.229ZM99.5633 71.6567L99.932 71.9943L99.9323 71.9941L99.5633 71.6567ZM99.7764 76.5596L100.114 76.1911L100.114 76.191L99.7764 76.5596ZM108.964 77.1756L108.942 76.6761L108.942 76.6761L108.964 77.1756ZM111.155 71.1416L111.493 70.7731L111.493 70.7731L111.155 71.1416ZM95.4878 74.2932L95.9873 74.2715L95.9873 74.2713L95.4878 74.2932ZM101.83 67.36L101.808 66.8605L101.808 66.8605L101.83 67.36ZM108.524 67.0626L108.546 67.5621L108.547 67.5621L108.524 67.0626ZM115.444 73.4081L114.944 73.4298L114.944 73.4299L115.444 73.4081ZM109.102 80.3414L109.08 79.8419L109.08 79.8419L109.102 80.3414ZM102.407 80.6386L102.385 80.1391L102.385 80.1391L102.407 80.6386ZM108.639 69.7295C105.136 69.885 103.128 69.9014 101.87 70.0509C101.229 70.1271 100.731 70.2422 100.301 70.4502C99.8635 70.6614 99.5309 70.9511 99.1943 71.3193L99.9323 71.9941C100.221 71.6779 100.455 71.4863 100.736 71.3506C101.023 71.2117 101.396 71.1142 101.988 71.0439C103.198 70.9001 105.114 70.887 108.683 70.7285L108.639 69.7295ZM99.1945 71.319C97.7096 72.9407 97.8106 75.4357 99.4385 76.9282L100.114 76.191C98.8948 75.0731 98.8185 73.2104 99.932 71.9943L99.1945 71.319ZM99.4384 76.9281C99.8084 77.2675 100.169 77.527 100.627 77.6984C101.077 77.8672 101.586 77.9374 102.234 77.956C103.505 77.9925 105.505 77.8297 108.986 77.6751L108.942 76.6761C105.394 76.8336 103.486 76.9915 102.263 76.9564C101.664 76.9392 101.28 76.8754 100.977 76.762C100.682 76.6513 100.43 76.4805 100.114 76.1911L99.4384 76.9281ZM108.986 77.6751C112.476 77.5203 114.117 73.1798 111.493 70.7731L110.817 71.5101C112.775 73.3057 111.556 76.5602 108.942 76.6761L108.986 77.6751ZM111.493 70.7731C110.711 70.0563 109.699 69.6826 108.639 69.7294L108.683 70.7285C109.474 70.6935 110.228 70.9705 110.817 71.5102L111.493 70.7731ZM95.9873 74.2713C95.8392 70.886 98.4709 68.01 101.852 67.8595L101.808 66.8605C97.8743 67.0355 94.816 70.3789 94.9883 74.315L95.9873 74.2713ZM101.852 67.8595L108.546 67.5621L108.502 66.5631L101.808 66.8605L101.852 67.8595ZM108.547 67.5621C111.923 67.4092 114.797 70.043 114.944 73.4298L115.943 73.3864C115.772 69.4491 112.432 66.3851 108.502 66.5631L108.547 67.5621ZM114.944 73.4299C115.092 76.8153 112.46 79.692 109.08 79.8419L109.124 80.8409C113.057 80.6665 116.115 77.3222 115.943 73.3862L114.944 73.4299ZM109.08 79.8419L102.385 80.1391L102.429 81.1381L109.124 80.8409L109.08 79.8419ZM102.385 80.1391C99.0242 80.2904 96.1346 77.6736 95.9873 74.2715L94.9882 74.3148C95.1595 78.2713 98.5187 81.3142 102.43 81.1381L102.385 80.1391Z" fill="white"/>
<path fill-rule="evenodd" clip-rule="evenodd" d="M104.975 82.8241C102.606 82.246 101.532 81.753 100.078 82.6375C97.5674 84.1649 98.1182 87.9631 101.011 88.7168C101.03 88.7212 103.394 89.2979 103.394 89.2979C105.17 89.7303 106.981 88.6283 107.417 86.85C107.626 85.9905 107.487 85.0968 107.023 84.3335C106.577 83.5962 105.906 83.0735 104.975 82.8241ZM95.4954 83.9403C96.3468 80.4539 99.8752 78.3156 103.344 79.1638C103.412 79.1805 105.8 79.7629 105.869 79.7814C111.369 81.255 112.421 88.6462 107.55 91.611C104.904 93.2203 102.781 92.4102 100.26 91.7953C96.8735 91.0004 94.6286 87.4899 95.4954 83.9403Z" fill="white"/>
<path d="M104.975 82.8241L105.105 82.341L105.094 82.3383L104.975 82.8241ZM100.078 82.6375L100.338 83.0647L100.338 83.0647L100.078 82.6375ZM101.011 88.7168L100.885 89.2007L100.893 89.2028L100.901 89.2046L101.011 88.7168ZM103.394 89.2979L103.275 89.7836L103.275 89.7837L103.394 89.2979ZM107.417 86.85L107.903 86.969L107.903 86.9682L107.417 86.85ZM107.023 84.3335L106.595 84.5924L106.596 84.5931L107.023 84.3335ZM95.4954 83.9403L95.0096 83.8217L95.0096 83.8217L95.4954 83.9403ZM103.344 79.1638L103.225 79.6495L103.225 79.6495L103.344 79.1638ZM107.55 91.611L107.81 92.0382L107.81 92.0381L107.55 91.611ZM100.26 91.7953L100.378 91.3096L100.374 91.3086L100.26 91.7953ZM105.094 82.3383C103.956 82.0608 103.028 81.7752 102.24 81.6855C101.396 81.5894 100.65 81.7043 99.8185 82.2104L100.338 83.0647C100.96 82.6863 101.478 82.6053 102.127 82.6791C102.832 82.7593 103.625 83.0093 104.857 83.3098L105.094 82.3383ZM99.8186 82.2104C96.9254 83.9701 97.5703 88.337 100.885 89.2007L101.137 88.233C98.6662 87.5892 98.2093 84.3597 100.338 83.0647L99.8186 82.2104ZM100.901 89.2046C100.9 89.2044 101.043 89.2393 101.273 89.2952C101.497 89.3499 101.794 89.4224 102.091 89.4947C102.388 89.5671 102.684 89.6393 102.906 89.6934C103.017 89.7205 103.109 89.7431 103.174 89.7588C103.206 89.7667 103.231 89.7729 103.249 89.7771C103.257 89.7793 103.264 89.7809 103.268 89.782C103.271 89.7825 103.272 89.7829 103.273 89.7832C103.274 89.7833 103.274 89.7834 103.275 89.7835C103.275 89.7835 103.275 89.7836 103.275 89.7836C103.275 89.7836 103.275 89.7836 103.275 89.7836C103.275 89.7836 103.275 89.7836 103.394 89.2979C103.512 88.8121 103.512 88.8121 103.512 88.8121C103.512 88.8121 103.512 88.8121 103.512 88.8121C103.512 88.8121 103.512 88.812 103.512 88.812C103.511 88.8119 103.511 88.8118 103.51 88.8117C103.509 88.8114 103.508 88.811 103.505 88.8105C103.501 88.8094 103.494 88.8078 103.486 88.8056C103.468 88.8014 103.443 88.7952 103.411 88.7873C103.346 88.7716 103.254 88.749 103.143 88.7219C102.921 88.6678 102.625 88.5956 102.328 88.5232C101.74 88.3798 101.136 88.2325 101.121 88.2291L100.901 89.2046ZM103.275 89.7837C105.32 90.2816 107.402 89.0146 107.903 86.969L106.931 86.7311C106.561 88.2421 105.02 89.1791 103.512 88.8121L103.275 89.7837ZM107.903 86.9682C108.143 85.9791 107.983 84.9496 107.45 84.0738L106.596 84.5931C106.991 85.244 107.109 86.0019 106.931 86.7319L107.903 86.9682ZM107.451 84.0746C106.937 83.2255 106.158 82.6235 105.105 82.3411L104.846 83.307C105.654 83.5235 106.217 83.9669 106.595 84.5924L107.451 84.0746ZM95.9811 84.0589C96.7671 80.8404 100.025 78.867 103.225 79.6495L103.463 78.6781C99.7252 77.7642 95.9265 80.0673 95.0096 83.8217L95.9811 84.0589ZM103.225 79.6495C103.259 79.6579 103.874 79.8077 104.488 79.9576C104.795 80.0326 105.102 80.1077 105.336 80.1651C105.453 80.1938 105.552 80.2181 105.624 80.2357C105.66 80.2446 105.689 80.2517 105.71 80.2569C105.733 80.2628 105.741 80.2647 105.74 80.2643L105.998 79.2984C105.922 79.278 103.524 78.693 103.462 78.678L103.225 79.6495ZM105.74 80.2643C110.812 81.6236 111.787 88.4468 107.29 91.1838L107.81 92.0381C113.055 88.8457 111.925 80.8864 105.998 79.2984L105.74 80.2643ZM107.29 91.1838C104.856 92.6641 102.964 91.9402 100.378 91.3096L100.141 92.2811C102.598 92.8801 104.952 93.7764 107.81 92.0382L107.29 91.1838ZM100.374 91.3086C97.2563 90.5766 95.1808 87.3365 95.9811 84.0589L95.0096 83.8217C94.0765 87.6433 96.4908 91.4241 100.145 92.2821L100.374 91.3086Z" fill="white"/>
<path fill-rule="evenodd" clip-rule="evenodd" d="M98.6438 98.3323L45.5262 84.0995C43.5063 83.5583 44.3243 80.4961 46.3465 81.0379L99.4641 95.2707C100.308 95.4968 100.809 96.3661 100.582 97.2111C100.356 98.0561 99.4875 98.5584 98.6438 98.3323Z" fill="white"/>
<path fill-rule="evenodd" clip-rule="evenodd" d="M98.6438 98.3323L45.5262 84.0995C43.5063 83.5583 44.3243 80.4961 46.3465 81.0379L99.4641 95.2707C100.308 95.4968 100.809 96.3661 100.582 97.2111C100.356 98.0561 99.4875 98.5584 98.6438 98.3323Z" stroke="white"/>
<path fill-rule="evenodd" clip-rule="evenodd" d="M0.683472 97.814L20.525 86.3757C24.3493 84.1711 29.2365 85.4806 31.4461 89.302L49.9825 121.36C52.1962 125.188 50.8837 130.086 47.0524 132.295L33.717 139.983L0.683472 97.814Z" fill="#7FF0E8"/>
<path fill-rule="evenodd" clip-rule="evenodd" d="M208.541 64.7427L192.4 59.8664C192.4 59.8664 191.688 63.5235 195.254 64.3412C198.82 65.1588 207.103 67.2307 207.103 67.2307L208.541 64.7427Z" fill="#E7E7E7"/>
<path fill-rule="evenodd" clip-rule="evenodd" d="M214.37 75.6216L197.593 73.9102C197.593 73.9102 197.593 77.6358 201.25 77.759C204.907 77.8822 213.433 78.3379 213.433 78.3379L214.37 75.6216Z" fill="#E7E7E7"/>
<path opacity="0.9" fill-rule="evenodd" clip-rule="evenodd" d="M254.152 31.3147C254.152 31.3147 253.633 28.6166 256.858 38.8995C260.084 49.1825 272.844 92.3504 272.844 92.3504C272.844 92.3504 273.419 101.962 266.13 103.962C258.84 105.961 232.884 111.236 232.884 111.236L260.789 102.121L268.135 96.9333L268.587 91.0083L254.152 31.3147Z" fill="#E5E5E5" stroke="#E5E5E5" stroke-width="3"/>
<path fill-rule="evenodd" clip-rule="evenodd" d="M225.916 113.019L262.94 103.099C268.22 101.684 271.363 96.2304 269.946 90.943L249.715 15.4385C248.298 10.1503 242.849 6.99909 237.569 8.41391L200.546 18.3343C195.266 19.7489 192.123 25.2023 193.54 30.4904L200.415 56.1482C200.957 58.1704 204.015 57.3543 203.472 55.3291L196.597 29.6713C195.632 26.0709 197.772 22.359 201.366 21.3959L238.389 11.4755C241.984 10.5124 245.693 12.6572 246.658 16.2576L266.889 91.7621C267.854 95.3618 265.713 99.0739 262.119 100.037L225.096 109.957C221.502 110.92 217.793 108.776 216.828 105.176L214.573 96.7595C214.347 95.9137 213.478 95.4122 212.635 95.6382C211.79 95.8645 211.29 96.7328 211.516 97.5786L213.771 105.995C215.188 111.282 220.637 114.434 225.916 113.019Z" fill="white"/>
<path fill-rule="evenodd" clip-rule="evenodd" d="M225.916 113.019L262.94 103.099C268.22 101.684 271.363 96.2304 269.946 90.943L249.715 15.4385C248.298 10.1503 242.849 6.99909 237.569 8.41391L200.546 18.3343C195.266 19.7489 192.123 25.2023 193.54 30.4904L200.415 56.1482C200.957 58.1704 204.015 57.3543 203.472 55.3291L196.597 29.6713C195.632 26.0709 197.772 22.359 201.366 21.3959L238.389 11.4755C241.984 10.5124 245.693 12.6572 246.658 16.2576L266.889 91.7621C267.854 95.3618 265.713 99.0739 262.119 100.037L225.096 109.957C221.502 110.92 217.793 108.776 216.828 105.176L214.573 96.7595C214.347 95.9137 213.478 95.4122 212.635 95.6382C211.79 95.8645 211.29 96.7328 211.516 97.5786L213.771 105.995C215.188 111.282 220.637 114.434 225.916 113.019Z" stroke="white"/>
<path fill-rule="evenodd" clip-rule="evenodd" d="M237.396 98.6059C237.898 100.48 239.823 101.592 241.693 101.091C243.565 100.59 244.675 98.6638 244.173 96.7901C243.671 94.9156 241.747 93.8028 239.875 94.3043C238.004 94.8056 236.894 96.7314 237.396 98.6059Z" fill="white"/>
<path fill-rule="evenodd" clip-rule="evenodd" d="M237.396 98.6059C237.898 100.48 239.823 101.592 241.693 101.091C243.565 100.59 244.675 98.6638 244.173 96.7901C243.671 94.9156 241.747 93.8028 239.875 94.3043C238.004 94.8056 236.894 96.7314 237.396 98.6059Z" stroke="white"/>
<path fill-rule="evenodd" clip-rule="evenodd" d="M257.95 122.242C258.425 122.115 258.833 121.769 259.021 121.275C259.331 120.457 258.921 119.541 258.104 119.23C256.062 118.451 253.541 118.123 250.872 117.776C245.176 117.035 238.089 116.113 232.102 110.316C231.473 109.706 230.472 109.724 229.864 110.353C229.256 110.982 229.274 111.985 229.903 112.594C236.643 119.12 244.308 120.117 250.466 120.918C253.052 121.255 255.286 121.546 256.979 122.191C257.302 122.315 257.641 122.325 257.95 122.242Z" fill="white"/>
<path fill-rule="evenodd" clip-rule="evenodd" d="M257.95 122.242C258.425 122.115 258.833 121.769 259.021 121.275C259.331 120.457 258.921 119.541 258.104 119.23C256.062 118.451 253.541 118.123 250.872 117.776C245.176 117.035 238.089 116.113 232.102 110.316C231.473 109.706 230.472 109.724 229.864 110.353C229.256 110.982 229.274 111.985 229.903 112.594C236.643 119.12 244.308 120.117 250.466 120.918C253.052 121.255 255.286 121.546 256.979 122.191C257.302 122.315 257.641 122.325 257.95 122.242Z" stroke="white"/>
<path fill-rule="evenodd" clip-rule="evenodd" d="M283.266 89.2172C284.051 88.8329 284.376 87.8837 283.991 87.0974C282.034 83.0943 282.951 71.3187 283.066 67.3968C283.363 57.2532 268.54 47.8893 264.028 31.7042C261.71 23.3851 250.296 25.0678 251.647 34.8356C251.935 36.9207 255.068 36.4661 254.782 34.4024C253.981 28.6144 259.7 27.96 260.98 32.5547C265.572 49.0276 280.146 58.9502 279.903 67.3018C279.884 67.9114 279.848 68.6848 279.807 69.5751C279.551 75.1007 279.124 84.3498 281.148 88.4892C281.534 89.2784 282.485 89.5996 283.266 89.2172Z" fill="white"/>
<path fill-rule="evenodd" clip-rule="evenodd" d="M283.266 89.2172C284.051 88.8329 284.376 87.8837 283.991 87.0974C282.034 83.0943 282.951 71.3187 283.066 67.3968C283.363 57.2532 268.54 47.8893 264.028 31.7042C261.71 23.3851 250.296 25.0678 251.647 34.8356C251.935 36.9207 255.068 36.4661 254.782 34.4024C253.981 28.6144 259.7 27.96 260.98 32.5547C265.572 49.0276 280.146 58.9502 279.903 67.3018C279.884 67.9114 279.848 68.6848 279.807 69.5751C279.551 75.1007 279.124 84.3498 281.148 88.4892C281.534 89.2784 282.485 89.5996 283.266 89.2172Z" stroke="white"/>
<path fill-rule="evenodd" clip-rule="evenodd" d="M198.942 57.0717C205.578 59.1583 206.446 59.1234 207.316 60.7887C208.22 62.521 207.56 64.6249 205.833 65.5265C204.171 66.4001 203.462 65.865 196.842 63.7854C193.87 62.8494 193.496 58.7657 196.267 57.3153C197.102 56.8798 198.05 56.7924 198.942 57.0717ZM207.3 68.336C212.556 65.5899 211.867 57.8129 206.204 56.034L199.889 54.0477C196.374 52.9436 192.619 54.9072 191.519 58.425C190.419 61.9429 192.382 65.7032 195.896 66.8085L202.212 68.7938C203.945 69.3376 205.751 69.1474 207.3 68.336Z" fill="white"/>
<path d="M198.942 57.0717L199.092 56.5946L199.092 56.5947L198.942 57.0717ZM207.316 60.7887L207.759 60.5572L207.759 60.5573L207.316 60.7887ZM205.833 65.5265L205.601 65.0839L205.602 65.0832L205.833 65.5265ZM196.842 63.7854L196.692 64.2625L196.692 64.2624L196.842 63.7854ZM196.267 57.3153L196.035 56.8723L196.036 56.8719L196.267 57.3153ZM207.3 68.336L207.068 67.8931L207.069 67.8929L207.3 68.336ZM206.204 56.034L206.054 56.511L206.054 56.511L206.204 56.034ZM199.889 54.0477L200.039 53.5707L200.039 53.5707L199.889 54.0477ZM191.519 58.425L191.996 58.5741L191.996 58.5742L191.519 58.425ZM195.896 66.8085L195.746 67.2855L195.746 67.2854L195.896 66.8085ZM202.212 68.7938L202.062 69.2709L202.062 69.2708L202.212 68.7938ZM199.092 56.5947C202.378 57.6279 204.299 58.1544 205.477 58.6237C206.078 58.8632 206.532 59.1046 206.899 59.4192C207.272 59.7385 207.525 60.1081 207.759 60.5572L206.873 61.0201C206.673 60.6366 206.491 60.3861 206.249 60.1784C206.001 59.966 205.661 59.7734 205.107 59.5527C203.974 59.1015 202.142 58.602 198.792 57.5487L199.092 56.5947ZM207.759 60.5573C208.791 62.5338 208.037 64.94 206.065 65.9697L205.602 65.0832C207.083 64.3098 207.649 62.5082 206.873 61.02L207.759 60.5573ZM206.066 65.9691C205.617 66.2052 205.197 66.3642 204.708 66.413C204.226 66.4609 203.713 66.3982 203.083 66.2502C201.846 65.9601 199.97 65.2921 196.692 64.2625L196.992 63.3084C200.334 64.3583 202.122 64.9976 203.311 65.2766C203.893 65.4131 204.283 65.4503 204.609 65.4179C204.927 65.3862 205.219 65.2846 205.601 65.0839L206.066 65.9691ZM196.692 64.2624C193.297 63.1932 192.868 58.5299 196.035 56.8723L196.499 57.7583C194.124 59.0014 194.442 62.5056 196.992 63.3085L196.692 64.2624ZM196.036 56.8719C196.987 56.3761 198.071 56.2751 199.092 56.5946L198.793 57.5489C198.029 57.3096 197.217 57.3836 196.498 57.7586L196.036 56.8719ZM207.069 67.8929C211.929 65.3531 211.292 58.1565 206.054 56.511L206.354 55.557C212.441 57.4693 213.182 65.8267 207.532 68.7792L207.069 67.8929ZM206.054 56.511L199.739 54.5247L200.039 53.5707L206.354 55.5571L206.054 56.511ZM199.739 54.5247C196.488 53.5035 193.013 55.3201 191.996 58.5741L191.042 58.2758C192.224 54.4943 196.26 52.3837 200.039 53.5707L199.739 54.5247ZM191.996 58.5742C190.978 61.8292 192.796 65.3091 196.046 66.3315L195.746 67.2854C191.969 66.0973 189.86 62.0567 191.042 58.2757L191.996 58.5742ZM196.046 66.3315L202.362 68.3168L202.062 69.2708L195.746 67.2855L196.046 66.3315ZM202.362 68.3168C203.965 68.8198 205.634 68.6444 207.068 67.8931L207.532 68.779C205.868 69.6504 203.925 69.8554 202.062 69.2709L202.362 68.3168Z" fill="white"/>
<path fill-rule="evenodd" clip-rule="evenodd" d="M203.339 70.229C210.412 70.543 211.186 70.2881 212.437 71.6567C213.736 73.0756 213.647 75.2544 212.224 76.5596C210.853 77.817 210.064 77.4877 203.036 77.1756C199.984 77.0402 198.554 73.2428 200.845 71.1416C201.53 70.5134 202.414 70.1881 203.339 70.229ZM216.512 74.2932C216.673 70.6325 213.827 67.5227 210.17 67.36L203.476 67.0626C199.822 66.8971 196.716 69.7461 196.557 73.4081C196.396 77.0688 199.242 80.1793 202.898 80.3414L209.593 80.6386C213.229 80.8023 216.353 77.9725 216.512 74.2932Z" fill="white"/>
<path d="M203.339 70.229L203.361 69.7294L203.361 69.7295L203.339 70.229ZM212.437 71.6567L212.068 71.9943L212.068 71.9941L212.437 71.6567ZM212.224 76.5596L211.886 76.1911L211.886 76.191L212.224 76.5596ZM203.036 77.1756L203.058 76.6761L203.058 76.6761L203.036 77.1756ZM200.845 71.1416L200.507 70.7731L200.507 70.7731L200.845 71.1416ZM216.512 74.2932L216.013 74.2715L216.013 74.2713L216.512 74.2932ZM210.17 67.36L210.192 66.8605L210.192 66.8605L210.17 67.36ZM203.476 67.0626L203.454 67.5621L203.453 67.5621L203.476 67.0626ZM196.557 73.4081L197.056 73.4298L197.056 73.4299L196.557 73.4081ZM202.898 80.3414L202.92 79.8419L202.92 79.8419L202.898 80.3414ZM209.593 80.6386L209.615 80.1391L209.615 80.1391L209.593 80.6386ZM203.361 69.7295C206.864 69.885 208.872 69.9014 210.13 70.0509C210.772 70.1271 211.269 70.2422 211.7 70.4502C212.137 70.6614 212.469 70.9511 212.806 71.3193L212.068 71.9941C211.779 71.6779 211.545 71.4863 211.264 71.3506C210.977 71.2117 210.604 71.1142 210.012 71.0439C208.802 70.9001 206.886 70.887 203.317 70.7285L203.361 69.7295ZM212.806 71.319C214.291 72.9407 214.19 75.4357 212.562 76.9282L211.886 76.191C213.105 75.0731 213.182 73.2104 212.068 71.9943L212.806 71.319ZM212.562 76.9281C212.192 77.2675 211.831 77.527 211.374 77.6984C210.923 77.8672 210.414 77.9374 209.766 77.956C208.495 77.9925 206.495 77.8297 203.014 77.6751L203.058 76.6761C206.606 76.8336 208.514 76.9915 209.737 76.9564C210.336 76.9392 210.72 76.8754 211.023 76.762C211.318 76.6513 211.57 76.4805 211.886 76.1911L212.562 76.9281ZM203.014 77.6751C199.524 77.5203 197.883 73.1798 200.507 70.7731L201.183 71.5101C199.225 73.3057 200.444 76.5602 203.058 76.6761L203.014 77.6751ZM200.507 70.7731C201.289 70.0563 202.301 69.6826 203.361 69.7294L203.317 70.7285C202.526 70.6935 201.772 70.9705 201.183 71.5102L200.507 70.7731ZM216.013 74.2713C216.161 70.886 213.529 68.01 210.148 67.8595L210.192 66.8605C214.126 67.0355 217.184 70.3789 217.012 74.315L216.013 74.2713ZM210.148 67.8595L203.454 67.5621L203.498 66.5631L210.192 66.8605L210.148 67.8595ZM203.453 67.5621C200.077 67.4092 197.203 70.043 197.056 73.4298L196.057 73.3864C196.228 69.4491 199.568 66.3851 203.498 66.5631L203.453 67.5621ZM197.056 73.4299C196.908 76.8153 199.54 79.692 202.92 79.8419L202.876 80.8409C198.943 80.6665 195.885 77.3222 196.057 73.3862L197.056 73.4299ZM202.92 79.8419L209.615 80.1391L209.571 81.1381L202.876 80.8409L202.92 79.8419ZM209.615 80.1391C212.976 80.2904 215.866 77.6736 216.013 74.2715L217.012 74.3148C216.841 78.2713 213.481 81.3142 209.571 81.1381L209.615 80.1391Z" fill="white"/>
<path fill-rule="evenodd" clip-rule="evenodd" d="M207.025 82.8241C209.394 82.246 210.468 81.753 211.922 82.6375C214.433 84.1649 213.882 87.9631 210.989 88.7168C210.97 88.7212 208.606 89.2979 208.606 89.2979C206.83 89.7303 205.019 88.6283 204.583 86.85C204.374 85.9905 204.513 85.0968 204.977 84.3335C205.423 83.5962 206.094 83.0735 207.025 82.8241ZM216.505 83.9403C215.653 80.4539 212.125 78.3156 208.656 79.1638C208.588 79.1805 206.2 79.7629 206.131 79.7814C200.632 81.255 199.579 88.6462 204.45 91.611C207.096 93.2203 209.219 92.4102 211.74 91.7953C215.127 91.0004 217.371 87.4899 216.505 83.9403Z" fill="white"/>
<path d="M207.025 82.8241L206.896 82.341L206.906 82.3383L207.025 82.8241ZM211.922 82.6375L211.662 83.0647L211.662 83.0647L211.922 82.6375ZM210.989 88.7168L211.115 89.2007L211.107 89.2028L211.099 89.2046L210.989 88.7168ZM208.606 89.2979L208.725 89.7836L208.725 89.7837L208.606 89.2979ZM204.583 86.85L204.098 86.969L204.097 86.9682L204.583 86.85ZM204.977 84.3335L205.405 84.5924L205.404 84.5931L204.977 84.3335ZM216.505 83.9403L216.99 83.8217L216.99 83.8217L216.505 83.9403ZM208.656 79.1638L208.775 79.6495L208.775 79.6495L208.656 79.1638ZM204.45 91.611L204.19 92.0382L204.19 92.0381L204.45 91.611ZM211.74 91.7953L211.622 91.3096L211.626 91.3086L211.74 91.7953ZM206.906 82.3383C208.044 82.0608 208.972 81.7752 209.76 81.6855C210.604 81.5894 211.35 81.7043 212.182 82.2104L211.662 83.0647C211.04 82.6863 210.522 82.6053 209.873 82.6791C209.168 82.7593 208.375 83.0093 207.144 83.3098L206.906 82.3383ZM212.181 82.2104C215.075 83.9701 214.43 88.337 211.115 89.2007L210.863 88.233C213.334 87.5892 213.791 84.3597 211.662 83.0647L212.181 82.2104ZM211.099 89.2046C211.1 89.2044 210.957 89.2393 210.727 89.2952C210.503 89.3499 210.206 89.4224 209.909 89.4947C209.612 89.5671 209.316 89.6393 209.095 89.6934C208.984 89.7205 208.891 89.7431 208.827 89.7588C208.794 89.7667 208.769 89.7729 208.752 89.7771C208.743 89.7793 208.736 89.7809 208.732 89.782C208.73 89.7825 208.728 89.7829 208.727 89.7832C208.726 89.7833 208.726 89.7834 208.725 89.7835C208.725 89.7835 208.725 89.7836 208.725 89.7836C208.725 89.7836 208.725 89.7836 208.725 89.7836C208.725 89.7836 208.725 89.7836 208.606 89.2979C208.488 88.8121 208.488 88.8121 208.488 88.8121C208.488 88.8121 208.488 88.8121 208.488 88.8121C208.488 88.8121 208.488 88.812 208.488 88.812C208.489 88.8119 208.489 88.8118 208.49 88.8117C208.491 88.8114 208.492 88.811 208.495 88.8105C208.499 88.8094 208.506 88.8078 208.514 88.8056C208.532 88.8014 208.557 88.7952 208.59 88.7873C208.654 88.7716 208.747 88.749 208.858 88.7219C209.079 88.6678 209.375 88.5956 209.672 88.5232C210.26 88.3798 210.864 88.2325 210.879 88.2291L211.099 89.2046ZM208.725 89.7837C206.68 90.2816 204.599 89.0146 204.098 86.969L205.069 86.7311C205.439 88.2421 206.981 89.1791 208.488 88.8121L208.725 89.7837ZM204.097 86.9682C203.857 85.9791 204.017 84.9496 204.55 84.0738L205.404 84.5931C205.009 85.244 204.891 86.0019 205.069 86.7319L204.097 86.9682ZM204.549 84.0746C205.063 83.2255 205.842 82.6235 206.896 82.3411L207.154 83.307C206.347 83.5235 205.783 83.9669 205.405 84.5924L204.549 84.0746ZM216.019 84.0589C215.233 80.8404 211.975 78.867 208.775 79.6495L208.538 78.6781C212.275 77.7642 216.074 80.0673 216.99 83.8217L216.019 84.0589ZM208.775 79.6495C208.741 79.6579 208.127 79.8077 207.512 79.9576C207.205 80.0326 206.898 80.1077 206.664 80.1651C206.547 80.1938 206.448 80.2181 206.376 80.2357C206.34 80.2446 206.311 80.2517 206.29 80.2569C206.267 80.2628 206.259 80.2647 206.26 80.2643L206.002 79.2984C206.078 79.278 208.476 78.693 208.538 78.678L208.775 79.6495ZM206.26 80.2643C201.188 81.6236 200.213 88.4468 204.71 91.1838L204.19 92.0381C198.945 88.8457 200.075 80.8864 206.002 79.2984L206.26 80.2643ZM204.71 91.1838C207.144 92.6641 209.036 91.9402 211.622 91.3096L211.859 92.2811C209.403 92.8801 207.048 93.7764 204.19 92.0382L204.71 91.1838ZM211.626 91.3086C214.744 90.5766 216.819 87.3365 216.019 84.0589L216.99 83.8217C217.924 87.6433 215.509 91.4241 211.855 92.2821L211.626 91.3086Z" fill="white"/>
<path fill-rule="evenodd" clip-rule="evenodd" d="M213.356 98.3323L266.474 84.0995C268.494 83.5583 267.676 80.4961 265.654 81.0379L212.536 95.2707C211.692 95.4968 211.191 96.3661 211.418 97.2111C211.644 98.0561 212.513 98.5584 213.356 98.3323Z" fill="white"/>
<path fill-rule="evenodd" clip-rule="evenodd" d="M213.356 98.3323L266.474 84.0995C268.494 83.5583 267.676 80.4961 265.654 81.0379L212.536 95.2707C211.692 95.4968 211.191 96.3661 211.418 97.2111C211.644 98.0561 212.513 98.5584 213.356 98.3323Z" stroke="white"/>
<path fill-rule="evenodd" clip-rule="evenodd" d="M311.317 97.814L291.475 86.3757C287.651 84.1711 282.764 85.4806 280.554 89.302L262.018 121.36C259.804 125.188 261.116 130.086 264.948 132.295L278.283 139.983L311.317 97.814Z" fill="#20A4F3"/>
<path fill-rule="evenodd" clip-rule="evenodd" d="M233.359 67.9281C241.394 65.7751 249.651 70.5359 251.802 78.5619L222.704 86.3586C220.554 78.3326 225.324 70.0812 233.359 67.9281Z" fill="#84F0E7"/>
<path fill-rule="evenodd" clip-rule="evenodd" d="M238.985 54.6459C240.214 59.2321 237.256 64.0096 232.377 65.3168C227.499 66.624 222.548 63.9658 221.319 59.3796C220.09 54.7934 223.048 50.0158 227.927 48.7087C232.805 47.4015 237.756 50.0597 238.985 54.6459Z" fill="#E8E8E8"/>
<path fill-rule="evenodd" clip-rule="evenodd" d="M78.6799 67.9281C70.6447 65.7751 62.3878 70.5359 60.2372 78.5619L89.3349 86.3586C91.4855 78.3326 86.7151 70.0812 78.6799 67.9281Z" fill="#20A4F3"/>
<path fill-rule="evenodd" clip-rule="evenodd" d="M79.6621 65.3168C84.5406 66.624 89.4916 63.9658 90.7204 59.3796C91.9493 54.7934 88.9907 50.0158 84.1123 48.7087C79.2338 47.4015 74.2829 50.0597 73.054 54.6459C71.8251 59.2321 74.7837 64.0096 79.6621 65.3168Z" fill="#E8E8E8"/>
<path d="M128 61.5H184.462" stroke="#D90009" stroke-width="5" stroke-linecap="square" stroke-dasharray="2 10"/>
</svg>
