<svg width="144" height="111" viewBox="0 0 144 111" fill="none" xmlns="http://www.w3.org/2000/svg">
<rect y="16.2744" width="128.037" height="78.7256" rx="3.46047" fill="#0085CA"/>
<path d="M62.1267 15.246C46.0748 4.84129 25.3014 2.18778 14.1083 2.12332C12.2629 2.11269 10.8147 3.63733 10.8147 5.48273V74.3201C10.8147 76.1871 12.3013 77.7132 14.1654 77.8159C39.605 79.2176 55.0745 86.6851 61.7146 91.8372C63.2065 92.9949 65.3631 93.0932 66.8773 91.9648C80.6992 81.6641 102.288 78.2941 114.419 77.7512C116.328 77.6658 117.873 76.1196 117.873 74.2085V5.42057C117.873 3.60056 116.459 2.08344 114.64 2.03233C92.74 1.41711 74.5924 9.72032 66.3091 15.211C65.0455 16.0486 63.3988 16.0706 62.1267 15.246Z" fill="white" stroke="#424855" stroke-width="3.89302"/>
<rect x="64.8838" y="15.4087" width="4.75814" height="75.2652" fill="#ECECEC"/>
<rect x="58.8279" y="15.4087" width="5.1907" height="75.2652" fill="#ECECEC"/>
<path d="M62.1267 15.246C46.0748 4.84129 25.3014 2.18778 14.1083 2.12332C12.2629 2.11269 10.8147 3.63733 10.8147 5.48273V74.3201C10.8147 76.1871 12.3013 77.7132 14.1654 77.8159C39.605 79.2176 55.0745 86.6851 61.7146 91.8372C63.2065 92.9949 65.3631 93.0932 66.8773 91.9648C80.6992 81.6641 102.288 78.2941 114.419 77.7512C116.328 77.6658 117.873 76.1196 117.873 74.2085V5.42057C117.873 3.60056 116.459 2.08344 114.64 2.03233C92.74 1.41711 74.5924 9.72032 66.3091 15.211C65.0455 16.0486 63.3988 16.0706 62.1267 15.246Z" stroke="#424855" stroke-width="3.89302"/>
<path d="M64.0186 16.4619V94.1061" stroke="#424855" stroke-width="3.89302"/>
<circle cx="114" cy="81" r="30" fill="white"/>
<circle cx="114" cy="81" r="25" fill="#0085CA"/>
<circle cx="114" cy="73.4286" r="7.42857" fill="white"/>
<path d="M114 82.7144C106.82 82.7144 101 88.5347 101 95.7144H127C127 88.5347 121.18 82.7144 114 82.7144Z" fill="white"/>
</svg>
