<svg width="144" height="111" viewBox="0 0 144 111" fill="none" xmlns="http://www.w3.org/2000/svg">
<rect y="16.2747" width="128.037" height="78.7256" rx="3.46047" fill="#0085CA"/>
<path d="M62.127 15.246C46.075 4.84129 25.3016 2.18778 14.1085 2.12332C12.2632 2.11269 10.8149 3.63733 10.8149 5.48273V74.3201C10.8149 76.1871 12.3015 77.7132 14.1657 77.8159C39.6053 79.2176 55.0748 86.6851 61.7148 91.8372C63.2067 92.9949 65.3634 93.0932 66.8775 91.9648C80.6995 81.6641 102.288 78.2941 114.419 77.7512C116.328 77.6658 117.873 76.1196 117.873 74.2085V5.42057C117.873 3.60056 116.46 2.08344 114.64 2.03233C92.7402 1.41711 74.5927 9.72032 66.3094 15.211C65.0458 16.0486 63.3991 16.0706 62.127 15.246Z" fill="white" stroke="#424855" stroke-width="3.89302"/>
<rect x="64.8838" y="15.4087" width="4.75814" height="75.2652" fill="#ECECEC"/>
<rect x="58.8276" y="15.4087" width="5.1907" height="75.2652" fill="#ECECEC"/>
<path d="M62.127 15.246C46.075 4.84129 25.3016 2.18778 14.1085 2.12332C12.2632 2.11269 10.8149 3.63733 10.8149 5.48273V74.3201C10.8149 76.1871 12.3015 77.7132 14.1657 77.8159C39.6053 79.2176 55.0748 86.6851 61.7148 91.8372C63.2067 92.9949 65.3634 93.0932 66.8775 91.9648C80.6995 81.6641 102.288 78.2941 114.419 77.7512C116.328 77.6658 117.873 76.1196 117.873 74.2085V5.42057C117.873 3.60056 116.46 2.08344 114.64 2.03233C92.7402 1.41711 74.5927 9.72032 66.3094 15.211C65.0458 16.0486 63.3991 16.0706 62.127 15.246Z" stroke="#424855" stroke-width="3.89302"/>
<path d="M64.0186 16.4622V94.1064" stroke="#424855" stroke-width="3.89302"/>
<circle cx="114" cy="81" r="30" fill="#121212"/>
<circle cx="114" cy="81" r="25" fill="#0085CA"/>
<circle cx="114" cy="73.4286" r="7.42857" fill="white"/>
<path d="M114 82.7141C106.82 82.7141 101 88.5344 101 95.7141H127C127 88.5344 121.18 82.7141 114 82.7141Z" fill="white"/>
</svg>
