<svg width="200" height="157" viewBox="0 0 200 157" fill="none" xmlns="http://www.w3.org/2000/svg">
<g clip-path="url(#clip0_101_2071)">
<path opacity="0.24" d="M83.6569 156.805C71.9237 153.977 60.6365 149.841 49.5281 145.453C33.0695 138.953 15.9098 131.074 7.1686 117.126C0.87378 107.082 -0.164602 95.1352 0.0201949 83.6456C0.149259 76.2478 0.765248 68.724 3.75133 61.8102C9.29523 48.9654 23.3662 39.3383 38.8129 37.8189C47.73 36.9389 56.8643 38.561 65.6641 37.0093C90.5589 32.6094 103.65 5.23013 128.51 0.689408C134.89 -0.483905 141.507 0.0176864 147.954 0.856605C161.902 2.67524 221.501 38.2882 191.819 104.337C187.084 114.867 177.498 123.075 167.197 129.666C158.717 135.092 149.131 139.217 141.443 145.506C137.527 148.706 133.969 152.545 128.985 154.214C125.917 155.247 122.57 155.358 119.29 155.458L92.5828 156.282" fill="#9AEDE7"/>
<path d="M81.4839 135.876L85.0918 156.928L102.076 156.174L102.621 141.244L105.22 156.426L119.564 155.922L124.764 132.186L81.4839 135.876Z" fill="#606161"/>
<path d="M81.4839 135.876L85.0918 156.928L102.076 156.174L102.621 141.244L105.22 156.426L119.564 155.922L124.764 132.186L81.4839 135.876Z" fill="url(#paint0_linear_101_2071)"/>
<path d="M89.3006 28.2094C89.2579 28.6812 89.3168 29.1568 89.4731 29.604C89.6294 30.0513 89.8797 30.4599 90.207 30.8024C90.36 30.9751 90.5535 31.1072 90.7702 31.1867C91.8936 31.5386 91.92 29.2536 91.5856 28.6112C91.1896 27.8838 89.4326 26.7398 89.3006 28.2094Z" fill="url(#paint1_linear_101_2071)"/>
<path d="M109.33 26.6106C109.387 27.0812 109.343 27.5585 109.201 28.0107C109.059 28.463 108.822 28.8796 108.506 29.233C108.36 29.4133 108.171 29.5544 107.957 29.6436C106.845 30.0308 106.743 27.7487 107.059 27.0946C107.42 26.3378 109.139 25.1469 109.33 26.6106Z" fill="url(#paint2_linear_101_2071)"/>
<path d="M94.4433 41.635C89.4772 44.1253 85.7578 48.4871 82.1821 52.7345C81.4606 53.591 81.1379 54.6323 80.7624 55.6854C76.8054 66.8319 77.5153 73.9627 76.3625 83.0089C75.4092 90.4184 73.2327 97.9686 75.0719 105.22C75.0719 105.22 75.9519 134.954 77.5857 139.642L126.68 137.679C126.68 137.679 122.154 89.6645 121.746 83.7862C119.719 55.263 113.856 49.0679 109.47 45.2077C105.085 41.3475 94.4433 41.635 94.4433 41.635Z" fill="#B9141B"/>
<path d="M94.4433 41.635C89.4772 44.1254 85.7578 48.4872 82.1821 52.7345C81.4606 53.5911 81.1379 54.6324 80.7624 55.6854C76.8054 66.8319 77.5153 73.9627 76.3625 83.0089C75.4092 90.4184 73.2327 97.9687 75.0719 105.22C75.0719 105.22 75.9519 134.954 77.5857 139.642L126.68 137.679C126.68 137.679 122.051 92.0346 121.925 86.1417C121.394 61.2616 114.982 49.2469 109.479 45.2077C104.763 41.7523 94.4433 41.635 94.4433 41.635Z" fill="url(#paint3_linear_101_2071)"/>
<path d="M100.394 104.352C100.572 104.378 100.754 104.345 100.911 104.258C100.999 104.179 101.068 104.081 101.113 103.972C101.158 103.863 101.178 103.745 101.172 103.627C101.292 101.656 99.9779 99.9312 99.2211 98.1096C98.5817 96.5784 98.3235 94.9094 97.7075 93.3665C97.0916 91.8236 95.9945 90.3276 94.3929 89.8876C93.7192 89.7395 93.0278 89.6882 92.3396 89.7351L86.7664 89.8641C86.6128 89.8315 86.4537 89.8369 86.3026 89.8797C86.1516 89.9225 86.0133 90.0016 85.8998 90.1099C85.7862 90.2183 85.7008 90.3527 85.6509 90.5016C85.601 90.6504 85.5882 90.8092 85.6136 90.9641C85.4757 92.4044 84.4403 95.7923 85.3702 97.0653C85.7867 97.652 86.9013 97.8427 87.5232 98.136C88.423 98.5739 89.2966 99.0636 90.1397 99.6026C93.202 101.509 96.5636 104.352 100.394 104.352Z" fill="url(#paint4_linear_101_2071)"/>
<path d="M108.543 90.5798C105.903 91.9409 104.918 95.1323 103.671 97.8338C102.949 99.3988 102.064 100.883 101.031 102.263C100.717 102.683 100.371 103.161 100.444 103.677C100.508 103.939 100.651 104.174 100.854 104.351C101.058 104.528 101.311 104.637 101.579 104.663C102.116 104.703 102.655 104.617 103.152 104.41C105.748 103.525 108.167 102.189 110.3 100.465C111.696 99.3357 113.01 98.0128 114.7 97.4027C115.36 97.1651 116.123 97.0008 116.519 96.42C116.723 96.0608 116.84 95.6591 116.862 95.2467C117.006 94.1262 117.155 92.9851 116.938 91.8764C116.574 89.9727 115.741 89.4417 114.046 89.5679C112.242 89.6999 110.186 89.7321 108.543 90.5798Z" fill="url(#paint5_linear_101_2071)"/>
<path d="M93.1553 44.8792C93.1553 44.8792 98.9397 50.1913 102.026 46.5071C105.111 42.8229 104.739 44.2016 104.739 44.2016L103.131 78.8143L93.1553 44.8792Z" fill="#606161"/>
<path d="M100.473 9.01682C99.3996 7.74522 97.871 6.94407 96.2143 6.78459C94.6098 6.64086 92.8469 7.22752 91.9962 8.59443C91.3773 9.58588 91.3157 10.8179 91.3127 11.9882C91.3127 13.0794 91.3509 14.2146 91.8613 15.1797C92.4008 16.1209 93.2623 16.8355 94.2871 17.1919C96.6337 18.0719 99.4115 17.2799 101.198 15.5815C102.984 13.8831 101.914 10.724 100.473 9.01682Z" fill="#606161"/>
<path d="M100.473 9.01682C99.3996 7.74522 97.871 6.94407 96.2143 6.78459C94.6098 6.64086 92.8469 7.22752 91.9962 8.59443C91.3773 9.58588 91.3157 10.8179 91.3127 11.9882C91.3127 13.0794 91.3509 14.2146 91.8613 15.1797C92.4008 16.1209 93.2623 16.8355 94.2871 17.1919C96.6337 18.0719 99.4115 17.2799 101.198 15.5815C102.984 13.8831 101.914 10.724 100.473 9.01682Z" fill="url(#paint6_linear_101_2071)"/>
<path d="M95.2176 34.4983C95.2176 34.4983 95.2704 41.9635 93.5955 43.5621C91.9206 45.1608 100.547 52.362 104.017 44.1165C104.017 44.1165 101.864 40.6142 102.489 34.642C103.114 28.6699 95.2176 34.4983 95.2176 34.4983Z" fill="url(#paint7_linear_101_2071)"/>
<path d="M94.9824 36.2701L95.0088 37.9068C95.0088 37.9068 99.4322 44.0667 101.169 41.9342C102.905 39.8017 102.371 39.3618 102.371 39.3618L102.5 34.6304L94.9824 36.2701Z" fill="url(#paint8_linear_101_2071)"/>
<path d="M90.9197 23.8916C90.9197 23.8916 89.8579 35.305 95.9855 37.4668C102.113 39.6286 105.695 36.3287 107.276 30.7994C108.857 25.2702 106.126 14.2147 99.6491 15.3997C93.1725 16.5847 90.9197 23.8916 90.9197 23.8916Z" fill="url(#paint9_linear_101_2071)"/>
<path d="M90.0045 27.7341C89.7167 27.3458 89.5293 26.8924 89.459 26.4142C89.0294 24.2824 89.1662 22.0752 89.8559 20.0129C90.5456 17.9505 91.764 16.105 93.3895 14.6605C94.0495 14.0592 94.8181 13.5893 95.654 13.276C96.4943 13.0261 97.3722 12.9268 98.2471 12.9827C100.978 13.0648 103.718 13.9125 105.874 15.5933C108.03 17.274 109.54 19.8201 109.716 22.5452C109.802 23.3546 109.683 24.1725 109.37 24.9241C109.21 25.2969 108.966 25.6271 108.655 25.8884C108.345 26.1497 107.978 26.3348 107.584 26.4288C106.179 26.6958 105.771 25.4051 104.621 24.5545C102.888 23.2785 102.31 21.3513 98.4201 21.7385C92.0725 22.375 91.7469 29.7904 90.0045 27.7341Z" fill="#606161"/>
<path d="M88.7462 45.6389C88.7462 45.6389 67.7674 60.7101 67.3332 88.5206C67.078 104.636 85.2263 101.597 85.8129 101.195C86.3996 100.793 87.9454 87.0129 87.9454 87.0129C87.9454 87.0129 81.4629 87.1155 80.6562 85.951C79.8496 84.7865 88.7462 45.6389 88.7462 45.6389Z" fill="#B9141B"/>
<path d="M88.7462 45.6389C88.7462 45.6389 67.7674 60.7101 67.3332 88.5206C67.078 104.636 85.2263 101.597 85.8129 101.195C86.3996 100.793 87.9454 87.0129 87.9454 87.0129C87.9454 87.0129 81.4629 87.1155 80.6562 85.951C79.8496 84.7865 88.7462 45.6389 88.7462 45.6389Z" fill="url(#paint10_linear_101_2071)"/>
<path d="M111.107 45.6389C111.107 45.6389 132.089 60.7101 132.52 88.5206C132.775 104.636 114.627 101.597 114.04 101.195C113.454 100.793 111.911 87.0129 111.911 87.0129C111.911 87.0129 118.393 87.1155 119.197 85.951C120.001 84.7865 111.107 45.6389 111.107 45.6389Z" fill="#B9141B"/>
<path d="M111.107 45.6389C111.107 45.6389 132.089 60.7101 132.52 88.5206C132.775 104.636 114.627 101.597 114.04 101.195C113.454 100.793 111.911 87.0129 111.911 87.0129C111.911 87.0129 118.393 87.1155 119.197 85.951C120.001 84.7865 111.107 45.6389 111.107 45.6389Z" fill="url(#paint11_linear_101_2071)"/>
<path d="M113.852 50.3351C113.782 50.3347 113.713 50.3125 113.656 50.2716C113.599 50.2306 113.556 50.1728 113.532 50.1063C112.18 46.0496 106.9 43.7235 106.848 43.6883C106.807 43.6711 106.77 43.646 106.74 43.6144C106.709 43.5829 106.685 43.5455 106.669 43.5046C106.653 43.4636 106.645 43.4199 106.646 43.3759C106.647 43.3319 106.657 43.2885 106.674 43.2483C106.71 43.167 106.776 43.103 106.858 43.07C106.941 43.0371 107.033 43.0379 107.114 43.0723C107.343 43.172 112.723 45.5509 114.172 49.8951C114.199 49.9799 114.192 50.072 114.152 50.1515C114.112 50.231 114.042 50.2916 113.958 50.3204C113.924 50.331 113.888 50.336 113.852 50.3351Z" fill="#B9141B"/>
<path d="M113.852 50.3351C113.782 50.3347 113.713 50.3125 113.656 50.2716C113.599 50.2306 113.556 50.1728 113.532 50.1063C112.18 46.0496 106.9 43.7235 106.848 43.6883C106.807 43.6711 106.77 43.646 106.74 43.6144C106.709 43.5829 106.685 43.5455 106.669 43.5046C106.653 43.4636 106.645 43.4199 106.646 43.3759C106.647 43.3319 106.657 43.2885 106.674 43.2483C106.71 43.167 106.776 43.103 106.858 43.07C106.941 43.0371 107.033 43.0379 107.114 43.0723C107.343 43.172 112.723 45.5509 114.172 49.8951C114.199 49.9799 114.192 50.072 114.152 50.1515C114.112 50.231 114.042 50.2916 113.958 50.3204C113.924 50.331 113.888 50.336 113.852 50.3351Z" fill="url(#paint12_linear_101_2071)"/>
<path d="M93.0968 73.2353C84.2178 60.5166 90.8088 45.4073 90.8411 45.3691C90.8891 45.2989 90.911 45.2141 90.9029 45.1294C90.8949 45.0448 90.8575 44.9656 90.7971 44.9057C90.7715 44.8759 90.7397 44.852 90.7041 44.8356C90.6684 44.8193 90.6296 44.8108 90.5903 44.8108C90.551 44.8108 90.5122 44.8193 90.4765 44.8356C90.4408 44.852 90.4091 44.8759 90.3835 44.9057C90.2486 45.0758 83.3437 60.5254 92.516 73.2676C92.6216 73.4084 93.1789 73.3497 93.0968 73.2353Z" fill="#B9141B"/>
<path d="M94.6161 41.9079C94.6161 41.9079 92.4191 43.8439 94.7217 48.5224C97.0243 53.201 103.343 79.6915 103.343 79.6915L91.2428 60.4433L92.4367 53.0866L89.917 51.1624C89.917 51.1624 89.8055 44.2222 91.0903 42.7585C92.3751 41.2948 93.783 41.377 94.6161 41.9079Z" fill="#B9141B"/>
<path d="M102.821 40.8928C102.821 40.8928 106.37 41.72 106.986 43.3802C107.602 45.0405 110.127 49.9127 110.127 49.9127L108.59 52.098L111.092 54.908L103.334 79.6913C103.334 79.6913 104.894 46.2519 104.009 44.1165C103.123 41.9811 102.821 40.8928 102.821 40.8928Z" fill="#B9141B"/>
<path d="M94.6161 41.9079C94.6161 41.9079 92.4191 43.8439 94.7217 48.5224C97.0243 53.201 103.343 79.6915 103.343 79.6915L91.2428 60.4433L92.4367 53.0866L89.917 51.1624C89.917 51.1624 89.8055 44.2222 91.0903 42.7585C92.3751 41.2948 93.783 41.377 94.6161 41.9079Z" fill="url(#paint13_linear_101_2071)"/>
<path d="M103.407 78.1631C103.701 71.5867 104.801 45.9733 104.014 44.1136C103.134 41.9693 102.818 40.887 102.818 40.887C102.827 40.8978 102.839 40.9051 102.853 40.9075C103.246 40.9955 106.408 41.8168 106.98 43.3715C107.608 45.0346 110.145 49.8951 110.145 49.8951L108.608 52.095L111.092 54.9022L103.334 79.6914C103.334 79.6914 103.351 79.1458 103.407 78.1631Z" fill="url(#paint14_linear_101_2071)"/>
<path d="M108.209 27.4439C108.284 27.3733 108.344 27.2886 108.385 27.1946C108.408 27.0875 108.421 26.9785 108.423 26.869C108.434 26.7564 108.486 26.6518 108.57 26.5756C108.609 26.5399 108.657 26.5154 108.708 26.5046C108.76 26.4937 108.814 26.497 108.863 26.514C108.908 26.5339 108.948 26.563 108.98 26.5994C109.012 26.6358 109.037 26.6787 109.051 26.7252C109.082 26.82 109.098 26.9189 109.098 27.0186C109.143 27.3927 109.093 27.7721 108.951 28.1215C108.817 28.3622 108.642 28.5784 108.435 28.7609C108.363 28.8519 108.257 28.9108 108.142 28.9252C108.067 28.9195 107.995 28.8942 107.934 28.8519C107.906 28.8394 107.882 28.8202 107.863 28.7961C107.85 28.7706 107.842 28.7427 107.84 28.714C107.791 28.4562 107.791 28.1916 107.84 27.9338C107.911 27.737 108.04 27.5662 108.209 27.4439Z" fill="url(#paint15_linear_101_2071)"/>
<path d="M90.5799 28.9515C90.5023 28.8858 90.4402 28.8036 90.3981 28.711C90.3696 28.6046 90.3529 28.4954 90.3482 28.3854C90.3341 28.2719 90.2788 28.1675 90.1927 28.0921C90.1503 28.0574 90.0997 28.0343 90.0457 28.0251C89.9917 28.0158 89.9363 28.0207 89.8847 28.0393C89.8412 28.061 89.8025 28.0915 89.7712 28.1289C89.7399 28.1662 89.7167 28.2096 89.7029 28.2563C89.6778 28.352 89.6659 28.4507 89.6677 28.5497C89.6328 28.9256 89.6944 29.3042 89.8466 29.6497C89.9905 29.8856 90.173 30.0958 90.3863 30.2715C90.4607 30.3589 90.5656 30.4145 90.6797 30.427C90.7538 30.4188 90.8246 30.3915 90.885 30.3478C90.9133 30.3349 90.9376 30.3146 90.9554 30.2891C90.968 30.2625 90.975 30.2335 90.9759 30.204C91.0112 29.9449 90.9993 29.6816 90.9407 29.4267C90.8688 29.2369 90.7435 29.0718 90.5799 28.9515Z" fill="url(#paint16_linear_101_2071)"/>
<path d="M103.407 78.1631C103.701 71.5867 104.801 45.9733 104.014 44.1136C103.134 41.9693 102.818 40.887 102.818 40.887C102.827 40.8978 102.839 40.9051 102.853 40.9075C103.102 41.1392 104.748 42.6411 105.158 43.6941C105.569 44.7472 106.159 70.5835 103.407 78.1631Z" fill="url(#paint17_linear_101_2071)"/>
<path d="M84.7518 78.6558C84.7518 78.6558 87.3713 71.132 94.2967 72.1146C101.222 73.0973 102.428 77.6409 102.428 77.6409C102.428 77.6409 104.282 69.2107 113.777 72.7218C123.272 76.2329 115.924 87.5642 114.818 88.3181C113.712 89.0719 101.433 100.905 101.433 100.905C101.433 100.905 86.0278 87.5613 85.1537 86.1826C84.2796 84.804 83.3879 82.2139 84.7518 78.6558Z" fill="#B9141B"/>
<path d="M86.3118 78.5063C87.0979 76.2536 89.0016 74.1915 91.3835 74.0536C91.5396 74.0337 91.6981 74.0581 91.841 74.124C91.9313 74.191 92.0067 74.2758 92.0628 74.3732C92.1188 74.4706 92.1541 74.5785 92.1666 74.6901C92.4981 76.2507 91.6856 77.7994 91.4069 79.3687C90.8672 82.4105 92.3368 85.3996 93.557 88.2361C93.7594 88.6995 93.9383 89.2832 93.6128 89.6704C93.4926 89.784 93.3512 89.8728 93.1966 89.9316C93.0421 89.9905 92.8775 90.0184 92.7122 90.0136C87.1302 90.4038 84.7836 82.8887 86.3118 78.5063Z" fill="url(#paint18_linear_101_2071)"/>
<path d="M115.04 69.8709C114.772 69.8719 114.508 69.8128 114.266 69.6979C113.6 69.3781 113.169 68.6595 112.978 67.5595C112.623 65.5062 111.421 51.2504 113.207 49.7251C113.338 49.6046 113.498 49.521 113.672 49.4828C113.846 49.4447 114.026 49.4534 114.195 49.5081C115.691 49.9745 116.997 54.5328 117.36 55.9173L120.1 66.7528C120.144 67.539 119.877 68.8707 118.663 69.0115L118.546 68.0142C119.132 67.9438 119.109 66.9083 119.109 66.8966L116.384 56.1696C115.615 53.2363 114.421 50.5289 113.882 50.4673C112.773 51.4176 113.377 63.9604 113.967 67.3894C114.096 68.1373 114.348 68.6243 114.7 68.7915C114.989 68.888 115.305 68.868 115.58 68.7357L116.064 69.6157C115.747 69.7774 115.396 69.8647 115.04 69.8709Z" fill="#B9141B"/>
<path d="M115.04 69.8709C114.772 69.8719 114.508 69.8128 114.266 69.6979C113.6 69.3781 113.169 68.6595 112.978 67.5595C112.623 65.5062 111.421 51.2504 113.207 49.7251C113.338 49.6046 113.498 49.521 113.672 49.4828C113.846 49.4447 114.026 49.4534 114.195 49.5081C115.691 49.9745 116.997 54.5328 117.36 55.9173L120.1 66.7528C120.144 67.539 119.877 68.8707 118.663 69.0115L118.546 68.0142C119.132 67.9438 119.109 66.9083 119.109 66.8966L116.384 56.1696C115.615 53.2363 114.421 50.5289 113.882 50.4673C112.773 51.4176 113.377 63.9604 113.967 67.3894C114.096 68.1373 114.348 68.6243 114.7 68.7915C114.989 68.888 115.305 68.868 115.58 68.7357L116.064 69.6157C115.747 69.7774 115.396 69.8647 115.04 69.8709Z" fill="url(#paint19_linear_101_2071)"/>
</g>
<defs>
<linearGradient id="paint0_linear_101_2071" x1="81.4839" y1="144.558" x2="124.764" y2="144.558" gradientUnits="userSpaceOnUse">
<stop offset="0.12" stop-color="#010101" stop-opacity="0"/>
<stop offset="0.95" stop-color="#010101"/>
</linearGradient>
<linearGradient id="paint1_linear_101_2071" x1="89.2926" y1="29.3733" x2="91.7592" y2="29.3337" gradientUnits="userSpaceOnUse">
<stop stop-color="#E5C6D6"/>
<stop offset="0.42" stop-color="#EAD4D0"/>
<stop offset="1" stop-color="#F0E9CB"/>
</linearGradient>
<linearGradient id="paint2_linear_101_2071" x1="1910.44" y1="548.324" x2="1889.8" y2="548.737" gradientUnits="userSpaceOnUse">
<stop stop-color="#E5C6D6"/>
<stop offset="0.42" stop-color="#EAD4D0"/>
<stop offset="1" stop-color="#F0E9CB"/>
</linearGradient>
<linearGradient id="paint3_linear_101_2071" x1="102.642" y1="160.524" x2="96.6022" y2="42.2627" gradientUnits="userSpaceOnUse">
<stop stop-color="white" stop-opacity="0"/>
<stop offset="0.95" stop-color="white"/>
</linearGradient>
<linearGradient id="paint4_linear_101_2071" x1="4908.04" y1="5774.42" x2="5531.93" y2="5385.59" gradientUnits="userSpaceOnUse">
<stop stop-color="#E5C6D6"/>
<stop offset="0.42" stop-color="#EAD4D0"/>
<stop offset="1" stop-color="#F0E9CB"/>
</linearGradient>
<linearGradient id="paint5_linear_101_2071" x1="6675.04" y1="5971.98" x2="6061.58" y2="5575.65" gradientUnits="userSpaceOnUse">
<stop stop-color="#E5C6D6"/>
<stop offset="0.42" stop-color="#EAD4D0"/>
<stop offset="1" stop-color="#F0E9CB"/>
</linearGradient>
<linearGradient id="paint6_linear_101_2071" x1="95.2604" y1="9.3256" x2="97.7708" y2="15.6719" gradientUnits="userSpaceOnUse">
<stop stop-color="#010101" stop-opacity="0"/>
<stop offset="0.95" stop-color="#010101"/>
</linearGradient>
<linearGradient id="paint7_linear_101_2071" x1="3659" y1="3084.37" x2="4044.63" y2="3084.37" gradientUnits="userSpaceOnUse">
<stop stop-color="#E5C6D6"/>
<stop offset="0.42" stop-color="#EAD4D0"/>
<stop offset="1" stop-color="#F0E9CB"/>
</linearGradient>
<linearGradient id="paint8_linear_101_2071" x1="2745.24" y1="1563.76" x2="2868.45" y2="921.991" gradientUnits="userSpaceOnUse">
<stop offset="0.12" stop-color="#010101" stop-opacity="0"/>
<stop offset="0.95" stop-color="#010101"/>
</linearGradient>
<linearGradient id="paint9_linear_101_2071" x1="5616.21" y1="3325.33" x2="6584.58" y2="3325.33" gradientUnits="userSpaceOnUse">
<stop stop-color="#E5C6D6"/>
<stop offset="0.42" stop-color="#EAD4D0"/>
<stop offset="1" stop-color="#F0E9CB"/>
</linearGradient>
<linearGradient id="paint10_linear_101_2071" x1="55.7477" y1="70.7574" x2="86.0575" y2="73.8086" gradientUnits="userSpaceOnUse">
<stop offset="0.52" stop-color="white" stop-opacity="0.52"/>
<stop offset="0.95" stop-color="white"/>
</linearGradient>
<linearGradient id="paint11_linear_101_2071" x1="10684" y1="16310.6" x2="8671.36" y2="16348.1" gradientUnits="userSpaceOnUse">
<stop offset="0.52" stop-color="white" stop-opacity="0.52"/>
<stop offset="0.95" stop-color="white"/>
</linearGradient>
<linearGradient id="paint12_linear_101_2071" x1="2985.83" y1="1510.16" x2="2866.26" y2="1593.02" gradientUnits="userSpaceOnUse">
<stop offset="0.12" stop-color="#010101" stop-opacity="0"/>
<stop offset="0.95" stop-color="#010101"/>
</linearGradient>
<linearGradient id="paint13_linear_101_2071" x1="4500.06" y1="10337.9" x2="4932.96" y2="10280" gradientUnits="userSpaceOnUse">
<stop stop-color="white" stop-opacity="0"/>
<stop offset="0.95" stop-color="white"/>
</linearGradient>
<linearGradient id="paint14_linear_101_2071" x1="114.938" y1="59.7333" x2="101.729" y2="60.364" gradientUnits="userSpaceOnUse">
<stop stop-color="white" stop-opacity="0"/>
<stop offset="0.11" stop-color="white" stop-opacity="0.18"/>
<stop offset="0.29" stop-color="white" stop-opacity="0.42"/>
<stop offset="0.45" stop-color="white" stop-opacity="0.63"/>
<stop offset="0.6" stop-color="white" stop-opacity="0.79"/>
<stop offset="0.74" stop-color="white" stop-opacity="0.9"/>
<stop offset="0.86" stop-color="white" stop-opacity="0.98"/>
<stop offset="0.95" stop-color="white"/>
</linearGradient>
<linearGradient id="paint15_linear_101_2071" x1="620.551" y1="377.885" x2="597.534" y2="375.681" gradientUnits="userSpaceOnUse">
<stop offset="0.12" stop-color="#010101" stop-opacity="0"/>
<stop offset="0.95" stop-color="#010101"/>
</linearGradient>
<linearGradient id="paint16_linear_101_2071" x1="866.718" y1="378.566" x2="890.109" y2="375.396" gradientUnits="userSpaceOnUse">
<stop offset="0.12" stop-color="#010101" stop-opacity="0"/>
<stop offset="0.95" stop-color="#010101"/>
</linearGradient>
<linearGradient id="paint17_linear_101_2071" x1="959.362" y1="9693.17" x2="1078.2" y2="9690.31" gradientUnits="userSpaceOnUse">
<stop stop-color="white" stop-opacity="0"/>
<stop offset="0.95" stop-color="white"/>
</linearGradient>
<linearGradient id="paint18_linear_101_2071" x1="2355.14" y1="5187.44" x2="2992.21" y2="5226.8" gradientUnits="userSpaceOnUse">
<stop stop-color="white" stop-opacity="0"/>
<stop offset="0.95" stop-color="white"/>
</linearGradient>
<linearGradient id="paint19_linear_101_2071" x1="2931.26" y1="4999.04" x2="4001.72" y2="5058.43" gradientUnits="userSpaceOnUse">
<stop offset="0.12" stop-color="#010101" stop-opacity="0"/>
<stop offset="0.95" stop-color="#010101"/>
</linearGradient>
<clipPath id="clip0_101_2071">
<rect width="200" height="156.928" fill="white"/>
</clipPath>
</defs>
</svg>
