<svg width="18" height="18" viewBox="0 0 18 18" fill="none" xmlns="http://www.w3.org/2000/svg">
<path d="M17.3461 0.865206L13.6899 0.0214735C13.2927 -0.0699308 12.8849 0.137487 12.7232 0.510135L11.0357 4.44755C10.888 4.79208 10.9865 5.19636 11.2783 5.43191L13.4087 7.17562C12.1431 9.87205 9.9318 12.115 7.17913 13.4052L5.43541 11.2748C5.19635 10.983 4.79558 10.8845 4.45106 11.0322L0.513637 12.7196C0.137473 12.8849 -0.0699449 13.2927 0.0214595 13.6899L0.865192 17.3461C0.953081 17.7258 1.29057 18 1.68783 18C10.6912 18 18 10.7052 18 1.68784C18 1.2941 17.7293 0.953094 17.3461 0.865206Z" fill="white"/>
</svg>
